<svg  viewBox="0 0 217 217" fill="none" xmlns="http://www.w3.org/2000/svg">
<path d="M0 111.274C0.95822 111.19 1.87466 111.399 2.74961 111.816C3.99943 112.358 5.20761 112.941 6.45744 113.524C7.54057 114.026 8.62371 114.526 9.70698 114.984C10.082 115.151 10.4569 115.192 10.8317 115.275C11.165 114.942 11.0401 114.651 10.9152 114.4C10.1653 112.816 9.37374 111.19 8.62384 109.606C8.0405 108.314 7.49894 107.021 6.95737 105.686C6.83232 105.396 6.91573 105.062 6.87395 104.437C7.41566 104.937 7.83217 105.229 8.08214 105.562C8.83203 106.647 9.49865 107.73 10.2069 108.814C10.9984 110.065 11.7483 111.316 12.5815 112.566C13.7897 114.317 15.1644 115.943 16.7475 117.402C17.2059 117.82 17.6642 118.32 18.164 118.819C17.1225 120.237 16.2893 121.614 15.0395 122.739C14.4979 123.239 13.9562 123.656 13.2481 123.822C11.4151 124.24 9.87353 125.199 8.29046 126.158C7.16569 126.824 6.08242 127.575 4.99929 128.242C4.49936 128.534 4.04107 128.91 3.24954 128.867C3.33282 128.617 3.37445 128.408 3.4995 128.22C4.2494 127.409 5.04093 126.616 5.83246 125.824C7.04064 124.698 8.29047 123.572 9.49865 122.447C9.79025 122.197 10.0402 121.864 10.2902 121.614C10.082 121.155 9.74861 121.279 9.49865 121.279C7.95723 121.238 6.4158 121.321 4.87424 121.238C3.87438 121.196 2.87452 120.988 1.91644 120.82C1.58306 120.779 1.20818 120.613 1.16655 120.113C1.41651 119.695 1.91644 119.612 2.37473 119.571C3.08285 119.487 3.79111 119.487 4.49936 119.404C5.54086 119.321 6.62399 119.236 7.66562 119.112C8.20719 119.069 8.70712 118.945 9.16527 118.361C9.04036 118.111 8.99872 117.736 8.7904 117.527C8.29047 117.028 7.70726 116.61 7.12392 116.193C6.29075 115.651 5.41594 115.151 4.541 114.609C3.16626 113.776 1.79139 112.941 0.624842 111.857C0.45829 111.733 0.208326 111.69 0 111.607C0 111.524 0 111.399 0 111.274Z" fill="#662D91"/>
<path d="M65.0321 21.3042C64.1573 20.7205 63.2824 20.1368 62.4076 19.5114C60.8661 18.4275 59.3247 17.3019 57.8248 16.1761C57.2834 15.7593 56.7 15.3007 56.5335 14.4252C56.95 14.3834 57.2834 14.2167 57.5748 14.3001C58.0333 14.4252 58.4081 14.7169 58.8248 14.9672C61.5326 16.5514 64.199 18.1773 66.9069 19.8034C67.0318 19.8867 67.2402 19.9283 67.5318 20.0118C67.4901 19.6781 67.5318 19.3864 67.4067 19.1364C66.6986 17.3019 65.9903 15.5091 65.3237 13.6748C64.9905 12.7159 64.7405 11.7568 64.4906 10.7563C64.4489 10.5895 64.5738 10.3395 64.6571 9.92252C65.0738 10.2977 65.3654 10.4644 65.5322 10.7146C66.0736 11.5068 66.6152 12.2989 67.0736 13.091C67.8652 14.5502 68.6149 16.0093 69.4064 17.4685C69.6148 17.8022 69.8232 18.1357 70.0314 18.4692C70.5313 18.3859 70.4481 18.0106 70.4897 17.7605C70.9479 15.8426 71.3645 13.9665 71.8229 12.0487C72.1144 10.8397 72.4894 9.67231 72.9059 8.46336C73.031 8.0464 73.3226 7.67123 73.5309 7.29592C74.0308 7.42102 74.0308 7.71288 74.0308 8.00474C74.1141 9.96417 73.7809 11.8819 73.406 13.7997C73.1977 14.8838 72.9059 16.0093 72.6977 17.0935C72.6561 17.3852 72.6561 17.6771 72.6561 17.9689C72.6561 18.0522 72.781 18.1357 72.8643 18.2606C73.281 18.4275 73.5726 18.1773 73.7809 17.9273C74.5308 17.0935 75.2807 16.2596 75.9889 15.384C76.9471 14.1332 77.8636 12.7992 78.8218 11.5068C79.2801 10.8814 79.8217 10.3395 80.4049 9.83907C80.7383 9.54721 81.1548 9.4639 81.5714 9.63066C82.238 9.83907 82.5713 10.5479 82.3213 11.2149C82.1131 11.7152 81.863 12.1738 81.5298 12.5908C80.9466 13.3829 80.28 14.1332 79.655 14.9255C78.197 16.8015 76.6972 18.6359 75.2807 20.5121C74.6975 21.3042 74.1975 22.2214 73.7391 23.0969C73.0726 24.2643 73.031 25.4734 73.5309 26.6823C73.8643 27.5161 74.1975 28.35 74.5308 29.142C80.3216 42.1081 86.0708 55.074 91.8616 68.0818C94.9028 74.8773 97.944 81.7146 101.027 88.4686C101.527 89.5527 102.11 90.5533 102.735 91.5956C102.943 91.929 103.235 92.2626 103.527 92.5543C103.651 92.6794 103.818 92.7211 103.984 92.8045C104.443 92.6378 104.443 92.2626 104.402 91.929C104.068 90.3448 103.735 88.8022 103.401 87.2596C101.194 76.9618 98.9855 66.6641 96.736 56.3666C95.4027 50.3213 93.9447 44.276 92.4866 38.2308C92.1532 36.8133 91.57 35.3958 91.1118 34.0199C90.7785 33.0612 90.1535 32.4358 89.237 31.977C87.279 30.9765 85.2376 30.2262 83.1545 29.559C81.4881 29.0171 79.78 28.4334 78.1137 27.8496C77.6969 27.7247 77.3222 27.4745 76.8221 27.1826C77.8219 26.8491 78.3635 26.8908 80.1967 27.2243C81.238 27.4328 82.2797 27.6412 83.3212 27.808C84.4044 27.9747 85.5292 28.3083 86.7789 28.0582C86.6956 27.6829 86.6956 27.3077 86.5291 27.0992C85.9041 26.3072 85.2376 25.5567 84.571 24.8062C83.6128 23.6806 82.6129 22.5966 81.6965 21.4293C81.3214 20.9289 80.8633 20.4704 80.8215 19.8034C81.1548 19.5114 81.4465 19.5948 81.6965 19.7617C82.6545 20.4288 83.6545 21.0958 84.571 21.8463C86.0291 23.0552 87.4872 24.306 88.9037 25.515C89.1954 25.7651 89.5286 26.0153 89.8202 26.2654C90.2784 26.057 90.1118 25.7235 90.0702 25.4734C89.7786 23.5971 89.4452 21.721 89.112 19.8867C88.9869 19.178 88.862 18.4692 88.7787 17.7605C88.737 17.5103 88.862 17.2184 88.9871 16.7182C89.4036 17.1768 89.737 17.3852 89.9035 17.7188C90.3202 18.6359 90.7368 19.5532 91.0701 20.5121C91.4449 21.5543 91.7783 22.6384 92.1948 23.6806C92.3199 24.0559 92.6115 24.3476 92.9447 24.8062C93.3197 24.306 93.653 23.9724 93.8197 23.5555C94.4445 22.3464 94.9861 21.0958 95.5694 19.8867C96.0693 18.886 96.5275 17.8438 97.0276 16.8431C97.2358 16.4263 97.4859 16.0093 97.7773 15.6342C97.9858 15.3423 98.2357 15.0506 98.6524 15.1756C98.9856 15.259 99.1106 15.6342 98.9022 16.2596C98.6523 17.1768 98.319 18.0522 98.0274 18.9695C97.4442 20.6372 96.8192 22.3047 96.2777 23.9724C96.0693 24.5978 95.9444 25.2232 95.8193 25.7651C96.1526 26.1821 96.4442 26.057 96.6943 25.932C98.0274 25.1397 99.3188 24.3476 100.652 23.5555C102.027 22.7217 103.361 21.8879 104.776 21.0958C105.152 20.8872 105.61 20.5955 106.11 20.8456C106.193 21.3876 105.777 21.721 105.442 21.9712C104.234 23.0134 103.027 24.0559 101.819 25.0981C100.027 26.6407 98.2358 28.1833 96.4442 29.7258C94.8195 31.06 94.278 32.7275 94.6112 34.7704C95.0277 37.2302 95.3195 39.6899 95.861 42.1081C98.7357 55.9078 101.652 69.6659 104.569 83.4657C105.068 85.8421 105.735 88.1769 106.36 90.5115C106.526 91.1786 106.817 91.8457 107.026 92.471C107.568 92.4294 107.526 92.0541 107.568 91.8457C107.651 90.8033 107.735 89.7195 107.735 88.6353C108.192 72.5427 108.068 56.4082 107.859 40.3153C107.818 36.7716 107.818 33.2278 107.692 29.6424C107.609 26.7241 107.485 23.8475 107.318 20.9289C107.276 20.1785 107.109 19.3864 107.026 18.6359C106.9 17.5103 106.36 16.6347 105.485 15.926C103.901 14.5918 102.11 13.508 100.277 12.5491C98.7773 11.7152 97.2774 10.8814 95.7776 10.0058C95.2778 9.7141 94.8195 9.3388 94.3612 8.92197C94.1945 8.79687 94.1529 8.54667 94.0696 8.33826C94.5696 7.96295 94.9444 8.25481 95.2778 8.37991C98.0691 9.50556 100.902 10.6312 103.694 11.7152C104.11 11.8819 104.569 11.9654 105.235 12.1738C104.859 11.5068 104.61 11.0065 104.36 10.5895C102.985 8.37991 101.61 6.17028 100.277 3.91899C99.9021 3.33528 99.6105 2.7099 99.3187 2.12618C99.6938 1.70936 99.9854 1.87612 100.194 2.08453C101.152 3.04342 102.152 3.96065 103.027 5.00298C104.151 6.37869 105.152 7.83799 106.234 9.25549C106.567 9.67231 106.859 10.0893 107.152 10.4644C107.735 10.4228 107.609 10.0476 107.651 9.79741C107.776 7.67123 107.859 5.54491 108.068 3.41872C108.151 2.5848 108.36 1.79267 108.567 1.00054C108.651 0.708681 108.9 0.416961 109.193 0C109.775 0.708683 109.818 1.4175 109.859 2.08453C109.984 3.46038 110.068 4.79443 110.234 6.12862C110.358 7.17082 110.567 8.21316 111.15 9.29714C111.483 9.13039 111.859 9.00529 112.025 8.79687C112.692 7.96295 113.317 7.12917 113.983 6.29538C114.817 5.21139 115.65 4.1274 116.525 3.08521C116.858 2.66825 117.191 2.20963 117.9 2.16798C117.9 2.37639 118.024 2.62659 117.941 2.79335C117.358 4.0441 116.775 5.25305 116.192 6.46214C115.608 7.62944 114.984 8.79687 114.442 9.96417C114.233 10.3811 114.192 10.8397 114.109 11.2149C114.525 11.5901 114.9 11.4651 115.191 11.34C116.775 10.798 118.316 10.256 119.857 9.67231C121.066 9.25549 122.316 8.83853 123.565 8.42157C123.941 8.2966 124.357 8.2966 125.023 8.21315C124.773 8.63011 124.69 8.92198 124.483 9.04694C123.898 9.4639 123.315 9.83907 122.69 10.1726C121.399 10.8397 120.024 11.4651 118.732 12.1321C116.941 13.0494 115.191 14.0499 113.4 14.9672C112.234 15.5509 111.692 16.4263 111.609 17.7605C111.483 20.4704 111.193 23.1803 111.067 25.932C110.859 30.1427 110.693 34.3536 110.61 38.5226C110.358 51.3218 110.151 64.121 110.025 76.8785C109.984 80.9642 110.151 85.05 110.275 89.1358C110.275 89.8861 110.234 90.6782 110.734 91.4704C110.984 91.3036 111.317 91.2203 111.442 91.0119C111.818 90.2614 112.192 89.5109 112.401 88.7188C113.15 85.717 113.859 82.7569 114.483 79.7135C117.191 66.9143 119.857 54.115 122.566 41.316C123.066 38.9395 123.441 36.5215 123.941 34.145C124.107 33.2696 123.982 32.4775 123.482 31.8103C122.69 30.7681 121.941 29.7258 121.066 28.767C119.567 27.1826 117.983 25.6818 116.399 24.1392C115.9 23.6389 115.4 23.0969 114.941 22.5966C114.817 22.4298 114.734 22.2214 114.525 21.8463C115.524 22.013 116.109 22.5133 116.732 22.8884C117.441 23.3471 118.109 23.8055 118.775 24.306C119.4 24.7646 120.024 25.2232 120.649 25.6818C121.274 26.1404 121.898 26.5572 122.69 27.1826C122.607 26.5989 122.649 26.2654 122.524 25.9737C121.857 23.8891 121.108 21.8463 120.44 19.7617C120.107 18.761 119.857 17.7188 119.608 16.6765C119.524 16.3013 119.524 15.8844 119.441 15.2172C119.857 15.5091 120.107 15.5925 120.233 15.8009C120.941 17.01 121.691 18.2606 122.316 19.5114C123.106 21.1374 123.857 22.8468 124.607 24.5144C124.773 24.8897 124.982 25.2232 125.273 25.7235C126.648 22.68 126.857 19.3864 128.69 16.7182C128.69 16.6765 128.814 16.7182 128.857 16.7182C129.19 17.8855 129.19 18.8027 128.898 21.054C128.69 22.5133 128.524 23.9724 128.315 25.64C128.69 25.515 128.981 25.4316 129.19 25.3066C131.19 23.9308 133.105 22.4716 134.813 20.7205C135.314 20.2202 135.855 19.7617 136.48 19.3864C136.73 19.2197 137.106 19.3448 137.438 19.303C137.48 20.0951 137.064 20.5537 136.73 21.0123C135.897 22.0547 135.022 23.1385 134.106 24.1392C133.064 25.2648 131.982 26.3488 130.898 27.4745C130.648 27.7247 130.481 28.0165 130.106 28.4334C130.522 28.4334 130.731 28.475 130.94 28.475C133.98 27.9749 137.022 27.4328 140.021 26.9742C140.646 26.8908 141.313 26.8908 141.98 26.8908C142.147 26.8908 142.312 27.0992 142.521 27.2659C142.104 27.8913 141.521 28.0582 140.979 28.2249C139.27 28.7252 137.562 29.1838 135.855 29.6424C134.439 30.0176 132.981 30.3095 131.564 30.7263C130.773 30.9348 129.982 31.2684 129.231 31.5602C127.898 32.1021 126.981 33.0612 126.607 34.4787C125.774 37.6888 124.816 40.8574 124.107 44.1093C121.941 54.0317 119.816 63.996 117.691 73.9601C116.775 78.3793 115.9 82.7571 115.067 87.1762C114.817 88.552 114.525 89.9695 114.525 91.3452C114.984 91.5537 115.108 91.2203 115.233 91.0119C115.942 89.7195 116.649 88.4269 117.317 87.0929C126.481 68.2067 135.231 49.1122 143.479 29.7674C144.062 28.3917 144.563 27.0159 145.104 25.64C145.438 24.8062 145.353 24.0141 144.854 23.3054C144.062 22.138 143.272 20.9705 142.396 19.845C141.146 18.2606 139.855 16.7182 138.605 15.1339C138.106 14.5085 137.605 13.8832 137.355 12.8408C137.73 12.9659 137.979 12.9659 138.106 13.091C138.854 13.6748 139.562 14.3001 140.272 14.9672C141.313 15.926 142.396 16.8849 143.438 17.8022C143.77 18.0939 144.188 18.3024 144.563 18.5526C145.104 18.0939 145.061 17.5103 145.022 17.01C145.022 15.5925 144.979 14.175 144.895 12.7575C144.813 11.34 144.73 9.92252 144.687 8.46336C145.312 8.67177 145.229 9.17204 145.353 9.50556C146.021 11.5484 146.604 13.5913 147.27 15.5925C147.437 16.0928 147.644 16.5514 147.895 17.1768C148.312 16.8431 148.687 16.6765 148.936 16.343C149.644 15.384 150.269 14.3834 150.895 13.3829C151.561 12.3406 152.227 11.2984 152.978 10.2977C153.145 10.0476 153.519 9.92252 154.02 9.589C153.936 10.2977 153.936 10.798 153.811 11.2149C153.394 12.5491 152.937 13.9248 152.436 15.259C151.977 16.5098 151.479 17.8022 151.27 19.0529C151.561 19.4281 151.895 19.303 152.145 19.178C153.394 18.5108 154.645 17.8022 155.852 17.0935C157.061 16.3847 158.268 15.6342 159.519 14.9255C159.935 14.6753 160.394 14.5502 160.81 14.3834C161.06 14.3001 161.434 14.7169 161.31 14.9672C161.144 15.259 160.977 15.5925 160.727 15.8426C159.935 16.5514 159.143 17.2601 158.268 17.8855C156.852 18.9278 155.393 19.9283 153.936 20.9705C153.561 21.2209 153.187 21.5126 152.852 21.8046C153.019 22.2631 153.353 22.1796 153.603 22.1796C155.894 22.1796 158.227 22.1796 160.519 22.2214C161.561 22.2631 162.643 22.3464 163.685 22.5133C164.518 22.6384 164.934 23.0969 164.892 23.5971C164.81 24.2643 164.268 24.4309 163.767 24.5562C163.31 24.6813 162.852 24.7229 162.351 24.7229C160.394 24.8062 158.435 24.8479 156.477 24.8897C154.519 24.9313 152.562 24.973 150.644 25.3066C149.394 25.515 148.48 26.057 147.895 27.2659C146.562 30.1011 145.022 32.8528 143.73 35.6876C138.398 47.3195 133.105 58.9512 127.773 70.5831C125.065 76.545 122.357 82.5484 119.608 88.5104C119.025 89.7611 118.442 90.9702 117.857 92.1792C117.608 92.7211 117.4 93.2632 117.191 93.8051C117.15 93.8885 117.233 94.0136 117.233 94.1386C117.524 94.4306 117.774 94.2637 118.024 94.0553C118.566 93.5965 119.149 93.1381 119.608 92.6378C121.608 90.4698 123.607 88.302 125.607 86.0923C126.024 85.6754 126.398 85.2168 127.065 84.4663C126.898 85.1333 126.857 85.4253 126.731 85.6337C125.648 87.5515 124.566 89.4275 123.482 91.3452C122.982 92.2208 122.483 93.0964 121.982 93.9718C121.857 94.222 121.774 94.4722 121.608 94.9724C122.024 94.8474 122.233 94.8474 122.399 94.7223C123.358 94.0136 124.315 93.3465 125.232 92.5961C131.773 87.3846 138.063 81.9231 144.271 76.3364C149.729 71.4169 155.104 66.4141 160.519 61.4945C165.351 57.0753 170.224 52.6559 175.101 48.2367C175.891 47.5279 176.683 46.8192 177.516 46.0271C177.391 45.4434 177.267 44.8597 177.14 44.3177C176.224 40.5655 175.266 36.8549 174.35 33.1028C174.183 32.394 174.1 31.6437 174.226 30.8932C174.933 31.5186 175.183 32.3523 175.517 33.1445C175.891 34.0199 176.224 34.8956 176.6 35.7711C176.933 36.6049 177.183 37.4386 177.516 38.2724C177.849 39.0647 177.974 39.9818 178.559 40.8574C178.85 40.3986 179.14 40.1069 179.266 39.7317C179.723 38.6477 180.099 37.5219 180.515 36.3964C181.015 35.0206 181.473 33.6031 182.015 32.2274C182.223 31.6853 182.391 31.1016 182.931 30.7681C183.348 30.8515 183.348 31.1849 183.307 31.4351C183.181 32.4775 183.057 33.5614 182.931 34.6036C182.765 35.9378 182.598 37.3135 182.515 38.6477C182.473 39.4815 182.557 40.3153 182.724 41.1076C183.016 42.5251 183.891 43.4005 185.307 43.734C186.474 43.9842 187.639 44.0675 188.848 43.9426C190.264 43.8173 191.679 43.6924 193.098 43.6089C193.972 43.5673 194.847 43.5673 195.596 43.9009C195.763 44.4427 195.472 44.6096 195.222 44.6929C194.097 44.9848 192.931 45.3184 191.806 45.5268C190.348 45.8186 188.889 46.0271 187.431 46.3188C186.514 46.4856 186.347 46.6107 185.557 47.3612C185.806 47.653 186.015 48.0282 186.347 48.1951C187.264 48.737 188.223 49.2373 189.139 49.7375C190.43 50.4464 191.764 51.0717 193.056 51.8221C193.639 52.1557 194.138 52.5725 194.639 52.9479C194.806 53.0728 194.847 53.323 194.972 53.5732C194.223 53.865 193.598 53.6982 193.013 53.4896C191.472 52.9062 189.932 52.3225 188.389 51.7388C186.306 50.905 184.181 50.1545 182.141 49.2373C179.85 48.2367 178.015 48.9038 176.35 50.5297C175.14 51.6971 174.017 52.8644 172.766 53.9901C167.641 58.5761 162.518 63.1621 157.394 67.7065C147.729 76.3364 138.021 84.9249 128.357 93.5965C126.648 95.1393 125.023 96.7652 123.358 98.3911C122.982 98.7663 122.566 99.0995 122.399 99.7674C122.69 99.725 122.94 99.7674 123.106 99.6841C124.065 99.2252 125.065 98.8086 125.982 98.266C131.314 95.306 136.605 92.3043 141.895 89.3024C152.978 82.9655 164.059 76.5866 175.14 70.208C175.641 69.9161 176.141 69.6242 176.683 69.2907C176.724 68.8739 176.809 68.5402 176.809 68.2067C176.848 64.1628 176.683 60.1603 176.141 56.1579C176.015 55.1157 175.849 54.0734 176.141 53.0728C176.6 52.8644 176.809 53.1146 176.933 53.3647C177.349 54.2819 177.766 55.1991 178.1 56.1579C178.641 57.7423 179.057 59.3266 179.599 60.9108C179.808 61.4945 179.932 62.1616 180.515 62.7035C180.807 62.3283 181.099 62.0365 181.307 61.7029C181.932 60.6189 182.473 59.535 183.098 58.4511C183.723 57.367 184.348 56.283 185.015 55.2408C185.264 54.8655 185.599 54.4903 185.973 54.1985C186.265 53.9901 186.639 53.9901 186.972 54.4487C186.556 56.2413 185.64 57.909 184.89 59.6601C184.181 61.3694 183.348 63.0786 182.807 64.7881C183.14 65.1632 183.39 65.0382 183.557 64.9131C184.848 64.3294 186.14 63.7458 187.431 63.1621C188.514 62.6618 189.598 62.2032 190.68 61.7862C191.056 61.6195 191.472 61.6195 191.888 61.5778C192.014 61.5778 192.223 61.7446 192.264 61.8697C192.306 61.9948 192.264 62.2449 192.18 62.3283C191.806 62.7035 191.389 63.037 190.931 63.329C189.723 64.121 188.514 64.8298 187.348 65.6219C186.722 66.0389 186.097 66.4974 185.472 66.956C185.098 67.2478 184.765 67.5814 184.682 68.2067C184.974 68.3735 185.222 68.6654 185.514 68.707C186.265 68.8739 187.015 68.9989 187.805 69.0405C188.93 69.124 190.056 69.0405 191.181 69.124C192.18 69.1656 193.18 69.3324 194.18 69.4576C194.43 69.4993 194.68 69.7077 195.098 69.9161C194.721 70.1663 194.514 70.4164 194.305 70.458C193.139 70.6248 191.972 70.8333 190.806 70.875C189.139 70.9584 187.473 70.9168 185.849 70.9168C185.432 70.9168 185.056 70.9584 184.682 70.9584C184.515 71.4169 184.806 71.5838 185.015 71.7506C186.474 73.043 187.973 74.3354 189.389 75.6695C190.473 76.6701 191.514 77.7541 192.515 78.7963C192.763 79.0881 192.931 79.4633 193.139 79.7968C192.68 80.1721 192.347 79.8386 192.096 79.6717C190.43 78.6295 188.806 77.5455 187.181 76.4617C185.557 75.3775 183.973 74.2519 182.306 73.2097C181.516 72.7093 180.641 72.3343 179.808 71.8755C179.14 71.5421 178.474 71.5004 177.766 71.8339C177.016 72.1674 176.224 72.4592 175.475 72.8344C173.225 74.0018 170.934 75.1275 168.725 76.4199C155.561 84.0495 142.437 91.6789 129.273 99.3494C128.065 100.058 126.857 100.809 125.648 101.559C125.315 101.768 125.066 102.06 124.649 102.435C125.482 102.686 126.107 102.435 126.731 102.268C129.815 101.352 132.855 100.476 135.897 99.5174C150.644 94.9307 165.351 90.303 180.099 85.6754C182.974 84.7581 185.89 83.9242 188.722 83.0071C190.056 82.5484 191.389 82.0482 192.68 81.4645C195.596 80.1721 197.43 78.0042 198.097 74.8773C198.471 73.0846 198.762 71.2918 199.139 69.4576C199.389 68.1651 199.596 66.9143 199.846 65.6219C199.929 65.1632 200.138 64.7464 200.262 64.3294C200.888 64.3294 200.847 64.7464 200.888 65.0799C201.137 67.5397 201.345 70.0411 201.595 72.5009C201.637 73.0846 201.679 73.6683 201.761 74.1686C202.22 74.4188 202.388 74.0852 202.554 73.8767C203.511 72.7511 204.429 71.5838 205.428 70.458C206.094 69.7077 206.803 68.9989 207.511 68.2902C207.802 68.04 208.179 67.8732 208.72 67.5397C208.677 68.0818 208.803 68.4569 208.636 68.707C208.011 69.8326 207.345 70.9584 206.636 72.0423C205.72 73.4181 204.721 74.7522 203.804 76.128C203.596 76.4617 203.43 76.8369 203.221 77.2955C204.137 77.5039 204.888 77.2538 205.596 77.0871C207.428 76.6284 209.262 76.128 211.094 75.6695C211.637 75.5443 212.22 75.4193 212.761 75.6278C212.886 76.0447 212.636 76.2531 212.387 76.4199C211.178 77.0871 209.969 77.7123 208.803 78.3377C207.511 79.0047 206.179 79.6717 204.888 80.4222C204.179 80.8391 203.471 81.2978 203.137 82.1316C203.178 82.882 203.596 83.4657 203.97 84.0495C205.012 85.5086 206.094 86.8845 207.178 88.302C208.011 89.4275 208.886 90.5533 209.719 91.7206C210.011 92.1374 210.303 92.5961 210.22 93.3048C209.887 93.1797 209.552 93.1797 209.386 93.0131C208.636 92.4294 207.887 91.8457 207.262 91.1368C206.22 90.0112 205.219 88.8022 204.22 87.6766C203.596 86.9678 202.971 86.2173 202.346 85.5503C201.013 84.1328 199.346 83.5074 197.43 83.5074C195.763 83.549 194.097 83.7575 192.515 84.1744C188.598 85.2584 184.639 86.3008 180.765 87.5515C163.6 93.0964 146.437 98.683 129.314 104.27C128.356 104.561 127.399 104.937 126.481 105.27C126.231 105.353 125.982 105.52 125.732 105.646C125.732 106.021 125.941 106.104 126.19 106.104C127.44 106.062 128.69 106.062 129.898 105.979C132.855 105.729 135.773 105.437 138.73 105.146C142.896 104.728 147.104 104.27 151.27 103.852C155.644 103.436 159.977 102.977 164.351 102.56C167.476 102.268 170.601 102.018 173.725 101.726C176.848 101.393 179.974 101.059 183.057 100.643C184.181 100.476 185.264 100.184 186.306 99.8507C187.973 99.3085 189.139 98.1827 189.723 96.5151C190.473 94.3471 191.263 92.1792 192.096 90.0112C192.597 88.7604 193.18 87.5098 193.764 86.3007C193.972 85.8838 194.18 85.467 194.888 85.4253C194.93 85.6337 195.056 85.8838 195.056 86.0507C194.888 86.9678 194.68 87.885 194.43 88.8022C193.888 90.845 193.305 92.8878 192.722 94.9724C192.597 95.4728 192.473 96.0147 192.639 96.6401C192.971 96.4735 193.305 96.3482 193.555 96.1815C195.056 95.0142 196.514 93.8469 198.055 92.7211C199.012 92.0124 200.013 91.4287 201.054 90.845C201.387 90.6782 201.804 90.3865 202.305 90.845C202.138 91.1786 202.013 91.5539 201.761 91.8457C201.013 92.5961 200.262 93.3465 199.471 94.0553C198.555 94.8891 197.638 95.723 196.763 96.5984C196.305 97.0569 195.846 97.5157 195.763 98.266C196.138 98.7253 196.638 98.8919 197.137 98.9329C198.429 99.0585 199.722 99.1828 201.013 99.2661C201.637 99.3085 202.305 99.1828 202.845 99.5584C202.929 100.142 202.47 100.225 202.179 100.31C200.47 100.809 198.762 101.309 197.054 101.809C196.429 101.977 195.846 102.144 195.013 102.394C195.389 102.686 195.596 102.894 195.805 103.06C197.137 103.852 198.471 104.603 199.763 105.437C200.555 105.938 201.305 106.562 202.013 107.146C202.22 107.354 202.305 107.73 202.47 108.022C201.846 108.355 201.345 108.189 200.847 108.022C199.763 107.563 198.68 107.104 197.596 106.647C196.347 106.104 195.18 105.437 193.846 105.187C193.514 105.437 193.598 105.729 193.722 106.021C194.514 107.563 195.263 109.064 196.055 110.607C196.721 111.94 197.346 113.275 197.972 114.609C198.179 115.025 198.346 115.484 198.013 116.069C197.72 115.901 197.346 115.777 197.137 115.568C196.597 114.942 196.055 114.317 195.638 113.608C194.68 111.983 193.764 110.315 192.847 108.688C192.306 107.73 191.764 106.73 191.181 105.77C190.056 103.895 188.348 102.936 186.14 102.977C184.848 103.019 183.514 103.019 182.223 103.103C177.516 103.519 172.807 103.978 168.1 104.437C162.977 104.937 157.852 105.52 152.728 106.062C147.853 106.562 142.937 107.063 138.063 107.605C134.522 108.022 131.023 108.522 127.523 108.981C127.19 109.023 126.898 109.231 126.44 109.44C126.857 109.773 127.149 109.982 127.399 110.148C127.773 110.439 128.189 110.648 128.564 110.94C129.106 111.44 128.981 112.066 128.231 112.275C127.732 112.441 127.19 112.441 126.648 112.525C126.274 112.608 125.898 112.691 125.565 112.732C125.44 113.234 125.691 113.4 125.941 113.524C126.607 113.817 127.232 114.109 127.898 114.317C135.022 116.735 142.104 119.195 149.27 121.488C159.561 124.782 169.934 127.951 180.267 131.16C181.224 131.453 182.223 131.702 183.181 131.952C184.515 132.328 185.764 132.119 186.89 131.327C187.598 130.785 188.264 130.202 188.889 129.576C189.389 129.076 189.805 128.534 190.264 128.034C190.765 128.158 190.68 128.492 190.68 128.743C190.68 129.702 190.68 130.618 190.722 131.702C191.263 131.619 191.679 131.577 192.056 131.494C194.305 130.953 196.514 130.327 198.762 129.826C199.555 129.618 200.388 129.535 201.221 129.493C201.513 129.493 201.804 129.702 202.305 129.909C201.804 130.285 201.513 130.577 201.178 130.701C199.846 131.203 198.514 131.66 197.18 132.119C195.722 132.62 194.262 133.078 192.806 133.579C192.264 133.787 191.679 133.953 191.263 134.621C191.598 134.829 191.847 135.08 192.138 135.204C193.263 135.621 194.389 135.996 195.472 136.372C196.514 136.748 197.596 137.081 198.638 137.497C199.012 137.623 199.389 137.873 199.722 138.123C199.846 138.206 199.929 138.373 200.096 138.623C199.846 138.748 199.679 138.915 199.471 138.915C198.514 138.873 197.555 138.832 196.638 138.665C194.888 138.332 193.18 137.914 191.431 137.581C191.181 137.54 190.889 137.581 190.473 137.581C190.597 137.997 190.639 138.332 190.847 138.623C191.348 139.415 191.931 140.166 192.473 140.958C193.598 142.5 194.721 144.001 195.805 145.544C196.097 145.961 196.389 146.42 196.638 146.92C196.806 147.169 196.93 147.462 196.68 147.754C196.347 148.13 195.972 147.836 195.722 147.671C195.056 147.086 194.347 146.502 193.764 145.837C192.306 144.168 190.931 142.5 189.514 140.791C189.139 140.333 188.765 139.916 188.389 139.457C187.931 139.581 187.973 139.916 187.973 140.166C187.973 142.167 187.973 144.21 187.931 146.211C187.931 147.378 187.805 148.546 187.598 149.629C187.098 149.755 186.972 149.464 186.848 149.213C186.389 148.087 186.265 146.92 186.223 145.752C186.182 144.334 186.097 142.917 185.973 141.5C185.681 137.956 183.931 135.371 180.683 133.912C179.307 133.287 177.849 132.661 176.392 132.202C161.561 127.492 146.73 122.78 131.898 118.111C129.939 117.485 127.898 116.985 125.898 116.485C125.44 116.36 124.982 116.36 124.315 116.319C124.483 116.693 124.524 116.944 124.649 117.028C125.399 117.568 126.19 118.153 126.982 118.612C132.689 121.988 138.398 125.365 144.147 128.658C156.268 135.621 168.435 142.417 180.765 149.046C182.182 149.796 183.599 150.547 185.015 151.256C185.557 151.506 186.097 151.713 186.682 151.798C187.389 151.88 187.847 152.257 188.223 152.84C189.097 154.174 189.681 154.383 191.181 153.924C192.096 153.673 192.971 153.299 193.806 152.84C195.098 152.131 196.305 151.297 197.555 150.506C198.971 149.629 200.346 148.713 201.761 147.836C202.138 147.586 202.554 147.337 203.221 147.504C203.137 147.754 203.095 148.003 202.971 148.13C202.138 148.963 201.305 149.838 200.43 150.63C199.263 151.713 198.055 152.716 196.888 153.758C197.013 154.299 197.389 154.217 197.638 154.217C199.513 154.341 201.43 154.424 203.304 154.591C204.22 154.674 205.18 154.924 206.055 155.174C206.344 155.259 206.595 155.55 206.969 155.842C206.636 156.092 206.429 156.301 206.137 156.383C205.387 156.551 204.636 156.675 203.888 156.76C201.305 157.092 198.721 157.467 196.221 157.802C196.013 158.302 196.305 158.426 196.556 158.593C197.763 159.385 198.93 160.136 200.138 160.928C201.013 161.512 201.887 162.178 202.721 162.805C203.053 163.095 203.345 163.471 203.596 163.804C203.387 164.305 203.053 164.18 202.804 164.096C201.804 163.721 200.847 163.304 199.846 162.888C198.721 162.388 197.596 161.803 196.471 161.304C195.931 161.054 195.389 160.886 194.68 160.637C194.68 161.054 194.597 161.345 194.68 161.552C195.18 162.888 195.722 164.18 196.264 165.514C196.845 166.93 197.43 168.349 198.013 169.766C198.264 170.349 198.471 170.976 198.305 171.642C197.929 171.892 197.72 171.642 197.555 171.433C197.013 170.683 196.429 169.932 195.931 169.099C195.222 167.933 194.639 166.682 193.972 165.514C193.555 164.805 193.139 164.096 192.639 163.43C192.18 162.845 191.514 162.929 191.305 163.679C190.972 164.763 190.722 165.847 190.514 166.973C190.221 168.474 190.056 170.017 189.805 171.518C189.723 172.142 189.555 172.768 189.222 173.311C188.848 173.393 188.722 173.184 188.68 172.934C188.556 172.06 188.348 171.185 188.348 170.309C188.306 166.514 188.348 162.721 188.306 158.927C188.306 158.218 188.306 157.51 188.306 156.884C186.765 155.675 141.479 129.284 125.356 120.196C124.899 119.946 124.44 119.737 123.982 119.528C123.524 119.821 123.482 120.196 123.732 120.487C124.065 120.946 124.483 121.405 124.899 121.821C128.857 125.658 132.814 129.493 136.814 133.244C144.104 139.999 151.479 146.711 158.81 153.423C159.811 154.341 160.768 155.298 161.726 156.216C161.476 156.633 161.226 156.425 161.102 156.342C160.101 155.718 159.06 155.133 158.185 154.383C155.061 151.84 151.977 149.255 148.936 146.629C142.021 140.583 135.147 134.495 128.272 128.451C126.19 126.616 124.065 124.823 121.941 123.03C121.441 122.613 120.982 122.155 120.399 121.988C120.024 122.197 120.107 122.406 120.233 122.613C120.775 123.489 121.274 124.364 121.857 125.156C125.482 130.202 129.064 135.288 132.689 140.333C138.772 148.796 144.854 157.258 150.895 165.723C151.561 166.639 152.186 167.598 152.77 168.516C153.102 169.016 153.061 169.016 153.102 170.141C152.728 169.85 152.354 169.641 152.103 169.391C151.102 168.224 150.062 167.098 149.145 165.847C145.52 161.096 141.938 156.301 138.398 151.506C133.273 144.545 128.189 137.54 123.066 130.577C121.898 128.993 120.69 127.492 119.441 125.991C118.941 125.406 118.358 124.866 117.774 124.364C117.274 123.948 116.691 123.905 116.15 124.323C115.274 124.99 114.399 125.699 113.483 126.45C119.441 150.464 125.356 174.394 131.314 198.367C131.814 198.45 132.189 198.532 132.605 198.532C134.147 198.575 135.688 198.575 137.231 198.659C138.356 198.741 139.438 198.95 140.562 199.118C140.896 199.158 141.229 199.326 141.564 199.45C141.646 199.492 141.688 199.617 141.771 199.701C141.146 200.118 141.146 200.118 139.688 200.16C138.938 200.201 138.188 199.994 137.396 200.492C139.814 203.37 142.855 205.537 144.687 208.79C144.73 208.872 144.687 208.998 144.687 209.248C144.478 209.207 144.229 209.289 144.062 209.165C142.896 208.372 141.688 207.621 140.562 206.788C139.313 205.87 138.188 204.828 136.979 203.911C136.48 203.536 135.98 203.077 135.314 203.035C134.979 203.536 135.231 203.995 135.314 204.412C135.606 205.913 135.897 207.414 136.147 208.957C136.313 210.082 136.313 211.206 136.189 212.25C135.773 212.541 135.523 212.416 135.396 212.124C134.979 211.206 134.522 210.291 134.189 209.374C133.773 208.08 133.44 206.746 133.064 205.454C132.938 204.953 132.772 204.454 132.605 203.953C131.982 204.12 131.939 204.662 131.73 205.08C130.605 207.371 129.523 209.666 128.398 211.957C128.148 212.416 127.856 212.875 127.565 213.333C127.356 213.625 126.773 213.501 126.69 213.166C126.607 212.834 126.524 212.459 126.564 212.124C126.731 211.206 126.857 210.249 127.149 209.374C127.689 207.58 128.357 205.788 128.898 203.995C129.023 203.62 129.064 203.203 129.147 202.619C128.607 202.868 128.231 202.996 127.898 203.203C126.398 204.162 124.94 205.162 123.441 206.079C122.274 206.788 121.108 207.497 119.941 208.165C119.65 208.331 119.315 208.331 118.691 208.456C119.191 207.788 119.483 207.329 119.857 206.955C121.982 204.704 124.19 202.578 126.814 200.951C128.148 200.118 128.524 199.118 128.231 197.699C127.732 195.323 127.399 192.905 126.814 190.57C123.898 178.814 120.899 167.057 117.941 155.298C115.775 146.711 113.567 138.08 111.359 129.493C111.233 129.034 111.109 128.575 111.026 128.117C110.9 127.533 110.567 127.2 110.025 127.033C107.942 126.324 107.442 126.533 106.776 128.658C105.984 131.244 105.318 133.912 104.693 136.539C103.735 140.375 102.818 144.252 101.86 148.087C101.569 149.172 101.194 150.255 100.819 151.297C100.694 151.672 100.485 152.048 100.277 152.381C100.194 152.505 99.9437 152.59 99.8188 152.548C99.6938 152.505 99.4856 152.339 99.4856 152.215C99.4856 151.798 99.5272 151.381 99.6105 151.005C100.402 146.879 101.277 142.751 102.027 138.623C102.777 134.745 103.444 130.827 104.11 126.907C104.151 126.574 104.193 126.199 104.234 125.615C103.86 125.908 103.61 126.032 103.485 126.241C102.693 127.616 101.902 129.034 101.152 130.41C100.402 131.743 99.6938 133.12 98.9439 134.454C98.6523 134.995 98.319 135.58 97.5691 135.955C97.4859 135.621 97.3608 135.413 97.4026 135.247C97.7773 133.996 98.1107 132.745 98.5272 131.536C99.1522 129.702 99.8605 127.866 100.527 126.032C100.694 125.532 100.902 125.032 100.694 124.364C100.444 124.531 100.152 124.573 99.9854 124.782C98.819 126.115 97.6941 127.492 96.5693 128.867C95.3195 130.41 94.0696 132.036 92.7782 133.579C92.4449 133.996 92.0283 134.329 91.6533 134.704C91.3617 134.995 91.0283 134.954 90.6534 134.745C90.5701 133.996 91.0283 133.496 91.3617 132.953C92.2365 131.619 93.1532 130.327 94.028 128.993C95.2778 127.116 96.5275 125.282 97.7773 123.365C98.0691 122.947 98.444 122.489 98.194 121.947C97.9024 121.655 97.6108 121.738 97.3608 121.905C96.8193 122.238 96.236 122.573 95.736 122.989C94.8612 123.698 94.028 124.448 93.1948 125.24C85.1542 133.037 76.7805 140.458 68.5316 148.003C64.0739 152.089 59.7412 156.258 55.3669 160.428C54.3669 161.345 53.5338 162.429 52.5757 163.43C51.8258 164.222 51.5757 165.139 51.659 166.181C51.7425 167.807 52.1174 169.349 52.5757 170.892C52.9922 172.351 53.4088 173.852 53.7421 175.353C53.9504 176.228 54.0755 177.188 53.8255 178.104C53.2422 178.064 53.1589 177.687 53.0338 177.396C52.2007 175.353 51.4091 173.351 50.576 171.309C50.3259 170.726 50.0759 170.141 49.7428 169.349C49.451 169.641 49.1594 169.766 49.0762 170.017C48.7012 170.892 48.4096 171.768 48.1178 172.686C47.4513 174.77 46.7847 176.854 46.1181 178.939C45.9516 179.439 45.8266 179.981 45.2017 180.148C44.7017 179.813 44.785 179.314 44.8684 178.855C45.0767 177.27 45.2849 175.688 45.5767 174.102C45.8266 172.643 46.1181 171.185 46.4098 169.725C46.4931 169.267 46.5348 168.808 46.6182 168.392C46.2016 168.057 45.9932 168.392 45.8266 168.557C44.7434 169.391 43.7435 170.309 42.6604 171.142C41.6605 171.892 40.6189 172.518 39.5359 173.184C39.1609 173.435 38.7027 173.643 38.2443 173.435C37.9528 173.102 38.161 172.852 38.3277 172.643C39.1192 171.81 39.8691 171.017 40.7024 170.267C41.6189 169.434 42.6186 168.683 43.577 167.891C44.0767 167.474 44.535 167.015 44.9517 166.599C44.785 166.015 44.3685 166.097 44.0351 166.097C42.1604 166.181 40.244 166.306 38.3693 166.39C37.2028 166.432 35.9947 166.514 34.8282 166.514C34.2032 166.514 33.5784 166.432 32.9534 166.015C33.2451 165.429 33.7033 165.305 34.1616 165.222C35.4947 164.931 36.8279 164.722 38.161 164.472C39.4525 164.222 40.7024 164.013 41.9938 163.721C42.452 163.638 42.9103 163.471 43.077 162.971C42.9936 162.429 42.577 162.178 42.1604 161.97C41.2855 161.47 40.3691 161.011 39.4942 160.552C38.0361 159.76 36.5779 159.01 35.1197 158.218C34.6615 157.968 34.2865 157.593 33.87 157.219C33.7867 157.134 33.7867 156.884 33.8283 156.76C33.9116 156.633 34.1199 156.467 34.2449 156.508C34.7449 156.592 35.2865 156.717 35.7863 156.926C37.4944 157.635 39.1609 158.343 40.869 159.051C42.702 159.844 44.5767 160.595 46.5348 161.096C48.243 161.552 49.7428 161.345 51.2008 160.219C54.7003 157.593 58.0333 154.715 61.2827 151.798C67.9068 145.794 74.5726 139.833 81.1964 133.829C84.8626 130.535 88.5704 127.325 92.2365 124.073C93.2781 123.113 94.3196 122.155 95.3195 121.155C95.7776 120.696 96.236 120.237 96.4859 119.445C96.111 119.445 95.8193 119.404 95.6111 119.487C94.1945 120.113 92.7782 120.696 91.4449 121.446C86.1124 124.407 80.7799 127.325 75.489 130.368C62.2409 138.04 48.9929 145.794 35.7863 153.549C34.495 154.299 33.2451 155.091 32.037 155.883C31.5785 156.175 31.162 156.467 30.7454 156.799C29.8705 157.51 29.3706 158.426 29.3706 159.595C29.4123 161.552 29.4955 163.512 29.5788 165.429C29.6624 167.807 29.704 170.184 29.7456 172.518C29.7456 172.977 29.7873 173.476 29.1623 173.81C28.9957 173.435 28.7456 173.102 28.6624 172.727C28.2875 170.683 27.9541 168.64 27.6209 166.599C27.4125 165.264 27.3293 163.889 27.1626 162.555C27.1209 162.346 27.0377 162.138 26.996 161.929C26.4961 161.803 26.4543 162.178 26.3294 162.388C25.3296 164.137 24.3713 165.888 23.3715 167.641C22.7049 168.766 21.9966 169.85 21.2883 170.935C20.9552 171.433 20.6636 171.934 19.9554 172.184C19.8303 171.934 19.5804 171.642 19.6636 171.476C19.872 170.808 20.1219 170.141 20.4135 169.516C21.2051 167.807 22.0384 166.097 22.7883 164.346C23.1631 163.554 23.4132 162.679 23.7047 161.844C23.7881 161.594 23.7881 161.304 23.8714 160.845C23.3715 161.054 23.0382 161.136 22.7466 161.304C20.7886 162.262 18.8305 163.262 16.8724 164.222C16.2892 164.514 15.6642 164.722 15.081 164.931C14.7894 165.055 14.4144 164.972 14.3311 164.68C14.2478 164.43 14.3311 164.056 14.4978 163.889C14.956 163.43 15.456 162.971 15.9976 162.637C17.2474 161.846 18.5387 161.096 19.7887 160.302C20.4135 159.927 20.9969 159.553 21.5801 159.176C21.7884 159.01 21.9133 158.759 22.08 158.468C21.4135 157.926 20.7469 157.802 20.0387 157.717C18.4971 157.55 16.9973 157.426 15.456 157.301C14.4562 157.219 13.4562 157.134 12.4564 156.967C12.2063 156.925 11.9565 156.717 11.5815 156.508C11.9982 156.258 12.2898 155.966 12.5814 155.925C14.0395 155.675 15.4977 155.425 16.9557 155.259C18.4971 155.133 20.0387 155.091 21.5801 155.007C21.9133 155.007 22.2051 154.882 22.7883 154.758C21.955 153.924 21.1634 153.423 20.4552 152.84C19.6636 152.215 18.8721 151.631 18.0806 150.964C17.3307 150.379 16.6226 149.755 15.9143 149.129C15.2477 148.504 14.4978 147.921 14.0395 146.836C14.4562 146.836 14.6645 146.753 14.831 146.836C15.8727 147.378 16.9557 147.878 17.9557 148.504C19.3304 149.422 20.6219 150.464 21.9966 151.381C23.4132 152.339 24.8296 153.299 26.3294 154.174C26.996 154.549 27.7459 154.8 28.4542 155.007C28.9541 155.174 29.3706 154.882 29.5372 154.341C29.6624 153.965 29.7873 153.549 29.8289 153.132C29.9538 151.672 30.1205 150.171 30.1621 148.713C30.2038 146.294 30.2038 143.877 30.2038 141.417C30.2038 141.084 30.3288 140.707 29.9122 140.375C28.5375 141.541 27.5375 143.083 26.2878 144.377C25.0796 145.669 23.9963 147.045 22.2883 148.13C22.2883 147.671 22.2051 147.462 22.2883 147.295C22.9132 146.17 23.5798 145.043 24.2464 143.918C25.1629 142.459 26.1627 141.084 27.0793 139.624C27.4125 139.082 27.7876 138.539 27.8708 137.79C27.4542 137.79 27.1209 137.706 26.7876 137.79C25.996 137.997 25.2045 138.248 24.413 138.456C23.1631 138.748 21.8717 139.041 20.6219 139.291C20.1219 139.374 19.5387 139.498 19.0388 138.915C19.2054 138.706 19.3722 138.456 19.5804 138.332C20.8718 137.706 22.1634 137.122 23.4549 136.581C24.7046 136.08 25.996 135.621 27.2876 135.163C27.6209 135.038 27.9125 134.871 28.4542 134.662C27.9125 134.412 27.5792 134.245 27.2042 134.162C24.7462 133.453 22.33 132.745 19.872 131.995C18.8721 131.702 17.8723 131.286 16.8724 130.868C16.5808 130.744 16.3308 130.451 15.9143 130.118C16.4141 129.909 16.7058 129.702 16.9973 129.702C17.8306 129.743 18.6639 129.826 19.4555 130.035C21.7468 130.577 24.038 131.203 26.3294 131.786C26.9128 131.911 27.4542 132.036 28.0374 132.161C28.704 131.286 28.1208 130.244 28.6207 129.326C28.8707 129.45 29.079 129.493 29.2457 129.618C29.5788 129.868 29.8289 130.202 30.1621 130.451C31.8703 131.911 33.8283 132.62 36.078 131.995C39.8274 130.953 43.6186 129.909 47.3263 128.784C60.8661 124.657 74.2808 120.32 87.6123 115.61C88.9453 115.151 90.2784 114.609 91.57 114.109C91.8616 113.983 92.1116 113.776 92.4032 113.567C92.0699 113.025 91.6116 113.108 91.2368 113.15C88.5288 113.191 85.7792 113.108 83.0712 113.317C78.9469 113.65 74.864 114.233 70.7397 114.692C67.8652 115.025 64.9905 115.318 62.0743 115.61C57.9081 116.027 53.7004 116.485 49.5343 116.902C44.2852 117.444 39.0358 117.944 33.8283 118.529C31.2454 118.819 28.6624 119.153 26.0794 119.445C25.2461 119.528 24.4546 119.528 23.6214 119.487C23.4549 119.487 23.2048 119.195 23.1631 119.028C23.1215 118.862 23.2881 118.529 23.4132 118.444C23.9963 118.194 24.6213 117.903 25.2461 117.777C26.621 117.527 28.0374 117.278 29.4539 117.111C32.995 116.693 36.4945 116.319 40.0358 115.943C44.2852 115.484 48.4928 115.068 52.7422 114.651C56.7 114.233 60.616 113.859 64.5738 113.441C68.4483 113.025 72.3227 112.566 76.1973 112.149C79.0301 111.857 81.863 111.607 84.6543 111.316C86.5291 111.107 88.4039 110.857 90.2784 110.565C90.945 110.482 91.6533 110.315 92.3615 109.773C92.0283 109.523 91.8616 109.314 91.6116 109.231C90.945 109.064 90.2368 108.897 89.5286 108.814C83.2379 108.063 76.9471 107.354 70.6564 106.604C63.7407 105.812 56.7833 105.02 49.8261 104.27C46.9514 103.978 44.0351 103.728 41.1606 103.519C38.9942 103.352 36.7863 103.227 34.6199 103.103C33.9116 103.06 33.2035 103.103 32.4952 103.06C30.7037 102.936 29.2873 103.645 28.1624 105.02C27.0793 106.271 25.996 107.522 25.5379 109.19C25.2045 110.398 24.2464 111.107 23.0382 111.899C23.0799 111.316 23.0382 111.024 23.1215 110.774C23.4549 109.689 23.8298 108.647 24.1631 107.563C24.5797 106.271 24.3713 105.895 22.9966 105.646C22.2051 105.479 21.3719 105.396 20.3303 105.229C20.6219 104.937 20.7886 104.728 21.0385 104.603C22.1634 103.978 23.2881 103.352 24.6213 102.601C24.2048 102.394 23.9963 102.227 23.7465 102.144C21.4552 101.643 19.1221 101.143 16.7891 100.643C16.1641 100.517 15.5393 100.351 14.6227 100.142C15.5809 99.725 16.2892 99.725 16.9973 99.6417C17.7056 99.5584 18.4138 99.5584 19.1221 99.4751C19.872 99.3918 20.6636 99.3085 21.4135 99.2252C22.08 99.1419 22.8299 99.2252 23.5798 98.9329C23.1215 98.0159 22.33 97.5573 21.7468 96.9319C21.1634 96.3482 20.5385 95.7646 19.997 95.1393C19.4138 94.5139 18.7888 93.8885 18.6223 93.0131C19.0804 92.6794 19.4138 92.8879 19.7053 93.0964C20.7053 93.7634 21.6634 94.4722 22.6216 95.0976C23.2048 95.4728 23.8298 95.8481 24.4546 96.1398C24.9547 96.3899 25.3712 96.1398 25.4128 95.5144C25.4545 95.056 25.4545 94.5556 25.4128 94.0969C25.3295 92.9713 25.2045 91.8457 25.1212 90.7199C25.0796 90.0112 24.9963 89.3024 25.1629 88.552C25.3295 88.8022 25.4962 89.0523 25.6212 89.3442C26.1211 90.8033 26.5794 92.2626 27.0793 93.7218C27.4125 94.5972 27.7876 95.4728 28.2041 96.3482C29.1623 98.3078 30.7037 99.6007 32.7868 100.31C34.8282 101.017 36.9112 101.393 39.0358 101.643C45.785 102.435 52.5757 103.186 59.3247 103.852C65.9903 104.561 72.6145 105.229 79.28 105.812C82.6962 106.104 86.1124 106.188 89.5703 106.312C90.1118 106.354 90.6118 106.229 91.1535 106.188C91.2368 106.188 91.32 106.021 91.4449 105.854C91.32 105.729 91.1951 105.479 91.0283 105.396C90.0702 104.937 89.112 104.478 88.1121 104.102C82.9879 102.101 77.8636 100.101 72.7394 98.0993C71.8646 97.7659 70.9895 97.3906 70.1147 97.0153C69.8649 96.8903 69.6148 96.7235 69.4482 96.39C70.1147 96.5568 70.8229 96.7235 71.4896 96.8903C76.4887 98.3078 81.4881 99.725 86.5291 101.102C88.4039 101.602 90.32 102.018 92.2365 102.477C92.5282 102.56 92.8198 102.56 93.3197 102.601C93.028 102.185 92.9031 101.935 92.6949 101.768C91.7365 101.102 90.7785 100.393 89.7786 99.7674C87.8205 98.5573 85.7792 97.4322 83.8211 96.2231C82.4046 95.3477 81.0715 94.3888 79.6967 93.4716C79.3635 93.2632 78.9885 93.0131 79.0718 92.5127C79.5717 92.2626 79.9882 92.5961 80.4049 92.8045C82.6962 93.8885 84.9876 95.014 87.279 96.0982C89.737 97.2655 92.1948 98.474 94.653 99.6417C95.0695 99.8507 95.4862 100.017 96.1526 100.142C95.9861 99.725 95.9444 99.5174 95.8193 99.3494C95.2362 98.683 94.6528 98.0159 94.0696 97.3489C93.4864 96.6819 92.9031 96.0147 92.3199 95.3477C91.945 94.8891 91.6116 94.3888 91.6116 93.6385C91.9034 93.6385 92.2365 93.5549 92.4448 93.6385C93.2365 94.1386 93.9864 94.7223 94.7363 95.306C95.3195 95.7646 95.9028 96.3066 96.6527 96.9736C96.6527 96.5151 96.736 96.3066 96.6527 96.1398C96.3193 95.5145 95.9861 94.8891 95.6111 94.3054C87.1123 81.1727 78.3219 68.2485 68.6149 55.9913C66.9902 53.9484 65.1988 52.0305 63.5325 50.0711C62.0743 48.3617 60.2412 47.4863 57.9498 47.403C54.9919 47.3194 52.034 47.6114 49.1178 48.1116C48.2846 48.2367 47.493 48.4451 46.7014 48.6119C46.4098 48.6536 46.0765 48.6119 45.535 48.6119C46.1597 47.7781 46.8681 47.3613 47.618 46.986C48.8677 46.4023 50.1593 46.0271 51.4924 45.7769C52.4924 45.6101 53.4505 45.3601 54.4502 45.1097C54.9086 44.9848 55.3669 44.8597 55.6585 44.2343C55.4918 44.0259 55.3669 43.6506 55.0752 43.5256C54.2004 43.0252 53.2839 42.6084 52.3672 42.1914C50.8674 41.5244 49.326 40.899 47.8264 40.232C47.2014 39.9401 46.5348 39.6483 46.2017 39.023C46.2849 38.481 46.6598 38.3977 46.9932 38.4393C47.5764 38.5226 48.1596 38.6894 48.7012 38.8145C51.1175 39.4815 53.4505 40.232 55.9501 40.5238C56.4917 40.6072 57.0333 40.649 57.5332 40.6072C58.8664 40.4822 59.5747 39.8568 59.8661 38.5643C60.0746 37.6888 60.1579 36.8133 60.1995 35.9378C60.2828 34.6453 60.1995 33.3112 60.2828 32.0187C60.3244 30.8932 60.4911 29.7674 60.6577 28.6836C60.6995 28.35 60.9494 28.0582 61.1577 27.6412C61.4077 27.9749 61.6577 28.1833 61.6993 28.4334C61.8659 29.2255 61.9493 30.0594 62.0326 30.8932C62.1576 32.4358 62.2409 33.9783 62.4076 35.4791C62.5325 36.2713 62.8242 37.0635 63.0741 37.8556C63.324 38.5226 63.8239 38.8978 64.6155 38.6894C64.8239 38.6477 65.0738 38.6894 65.407 38.6894C65.0321 40.8574 63.8656 42.6084 63.2407 44.6513C63.3657 44.9013 63.5325 45.2348 63.7407 45.485C74.6558 60.5356 85.6126 75.5443 96.5693 90.5949C97.5691 91.9708 98.694 93.3048 99.7772 94.639C100.069 94.9724 100.319 95.431 100.985 95.3893C100.944 95.0976 100.985 94.8056 100.902 94.5556C100.444 93.3465 100.027 92.0957 99.5272 90.8868C95.1528 80.7141 90.8201 70.5415 86.3207 60.4522C81.7797 50.2796 77.0304 40.1902 72.4061 30.1011C71.9895 29.1838 71.4896 28.3083 71.0313 27.4328C70.4897 26.3488 69.6148 25.6818 68.4484 25.515C67.6985 25.3899 66.9486 25.2648 66.1569 25.2232C64.2822 25.1397 62.3659 25.1397 60.4911 25.0981C58.7831 25.0563 57.0749 24.973 55.3669 24.8479C54.7836 24.8062 54.2004 24.5978 53.6587 24.3893C53.2005 24.2225 53.1589 23.4722 53.5754 23.1803C53.9088 22.9718 54.3253 22.7633 54.7003 22.68C55.5751 22.5133 56.4501 22.388 57.325 22.3464C59.6996 22.2214 62.0743 22.0963 64.4073 22.013C64.6987 22.013 64.9488 21.9712 65.2404 21.9296C64.9488 21.5126 64.9905 21.4293 65.0321 21.3042ZM93.4864 115.901C92.9447 115.984 92.6531 116.027 92.3615 116.069C90.6534 116.526 88.9453 116.985 87.2373 117.485C74.489 121.362 61.9075 125.574 49.3261 129.909C44.9517 131.41 40.6608 133.078 36.328 134.662C35.1197 135.08 34.2865 135.83 33.87 137.038C33.7033 137.497 33.495 137.914 33.3701 138.373C32.412 141.041 31.7037 143.793 31.2038 146.586C31.0371 147.628 30.8704 148.713 30.8288 149.755C30.7454 150.88 31.162 151.297 32.3284 151.13C33.2035 151.004 34.0783 150.797 34.8698 150.464C36.4945 149.712 38.0777 148.92 39.6192 148.045C51.0759 141.541 62.5325 134.995 73.9892 128.451C78.5718 125.824 83.1128 123.156 87.6123 120.487C89.1954 119.571 90.695 118.486 92.1948 117.444C92.6949 117.111 93.1948 116.776 93.4864 115.901Z" fill="#662D91"/>
<path d="M42.5772 52.6974C42.4523 52.9892 42.2855 53.281 42.2439 53.6146C41.9106 55.5324 41.5356 57.4503 41.2858 59.3679C40.994 61.4941 40.8691 63.6204 40.6608 65.7468C40.6192 66.2052 40.6192 66.7056 40.6192 67.1643C40.5775 67.998 40.9108 68.6651 41.5774 69.1654C42.1606 69.5823 42.6605 70.0826 43.2855 70.4577C45.0351 71.5835 46.7434 72.7092 48.493 73.8348C50.4094 75.0439 52.3258 76.2112 54.2006 77.4202C54.7004 77.7122 55.1171 78.129 55.617 78.5043C55.0338 78.8378 54.7004 78.5459 54.3256 78.3792C52.4508 77.5037 50.576 76.5864 48.7431 75.6693C46.785 74.7104 44.8685 73.6681 42.9105 72.6675C42.2439 72.3339 41.494 72.0421 40.7858 71.7501C39.6193 71.2499 38.4945 71.3751 37.4113 72.0838C35.7033 73.1676 33.995 74.2518 32.2871 75.294C30.6206 76.2946 28.9125 77.2534 27.2044 78.2124C26.8711 78.3792 26.4961 78.6709 25.9963 78.5043C26.2879 77.7538 26.8711 77.3368 27.4128 76.92C29.2873 75.3773 31.2038 73.8765 33.0786 72.3757C33.3702 72.1255 33.7452 71.9169 33.8701 71.3333C33.3285 71.2917 32.8703 71.25 32.4536 71.2082C30.3706 71.0831 28.3293 70.9998 26.2463 70.8331C25.4131 70.7914 24.6216 70.583 23.7881 70.4161C23.5383 70.3744 23.33 70.1244 22.955 69.874C23.455 69.6656 23.7465 69.4572 24.0799 69.4156C25.538 69.2906 27.0378 69.1653 28.4958 69.0819C30.079 68.9569 31.6621 68.8735 33.2869 68.7485C33.5785 68.7069 33.8285 68.5818 34.0367 68.5401C34.2451 68.0815 34.0367 67.8313 33.7868 67.6645C32.8703 66.9974 31.9537 66.4138 30.9956 65.7468C29.6207 64.7877 28.246 63.8706 26.9127 62.9116C26.4128 62.5364 25.913 62.1195 25.6213 61.3275C25.9547 61.3275 26.2463 61.244 26.4545 61.3275C27.5794 61.8278 28.7043 62.328 29.829 62.87C31.2038 63.537 32.5787 64.2042 33.995 64.8712C34.4117 65.0797 34.8701 65.2048 35.4532 65.4549C35.4115 65.0381 35.4532 64.7461 35.3283 64.496C34.6616 62.7867 33.9534 61.1191 33.2451 59.4096C32.7452 58.159 32.2454 56.8666 31.7871 55.6158C31.6621 55.2405 31.7038 54.8654 31.6204 54.1565C32.1621 54.6152 32.4954 54.8654 32.7036 55.1571C33.4952 56.3245 34.2868 57.5336 34.995 58.7426C35.8282 60.1184 36.5781 61.5359 37.3696 62.9116C37.5362 63.2036 37.6197 63.6204 38.1611 63.5788C38.5778 62.328 38.7027 60.994 39.0361 59.7016C39.2861 58.6593 39.4943 57.6169 39.786 56.6164C40.2025 55.1989 40.5775 53.7814 41.494 52.5723C41.9524 51.9887 41.9106 51.3633 41.4523 50.7796C41.0774 50.321 40.6608 49.9042 40.2441 49.4454C39.2444 48.2781 38.0779 48.153 36.7446 48.7367C34.7866 49.5705 32.8286 50.4043 30.8289 51.1548C29.1208 51.7801 27.3712 52.3222 25.6213 52.9058C25.4131 52.9892 25.163 52.9892 24.9963 53.0309C24.7465 52.6974 24.913 52.5306 25.1214 52.4055C26.1212 51.7802 27.1627 51.1964 28.1627 50.6128C29.4958 49.8625 30.9123 49.1953 32.2454 48.445C32.7036 48.1947 33.2451 48.0281 33.3285 47.3192C32.9953 46.9023 32.4536 46.7772 31.9537 46.6939C30.079 46.3603 28.246 46.0268 26.3712 45.6515C25.3713 45.4431 24.4131 45.193 23.455 44.9427C23.2051 44.8594 22.9966 44.6093 22.7884 44.4426C23.2051 43.8172 23.7465 43.8588 24.2882 43.8588C25.9963 43.9005 27.7043 43.984 29.4125 44.0256C30.4123 44.0673 31.4122 44.1507 32.412 44.1924C33.1202 44.1924 33.1202 44.1507 34.1201 43.567C33.995 43.2751 33.9118 42.9001 33.7036 42.6498C33.1619 42.1078 32.5787 41.5659 31.9953 41.1073C31.2038 40.4819 30.3706 39.8982 29.5791 39.3145C29.1624 38.981 28.7043 38.6891 28.3709 38.2723C27.9126 37.8137 26.9544 37.3549 27.5377 36.6046C28.0377 35.9792 28.7459 36.6879 29.2457 37.0215C30.2457 37.6469 31.1621 38.3973 32.1621 39.0644C33.0369 39.6898 33.9118 40.3152 34.7866 40.8989C35.0783 41.0656 35.4115 41.149 35.7866 41.2741C36.0364 40.3568 35.8698 39.523 35.7449 38.7308C35.4115 36.6462 34.995 34.5201 34.7033 32.4354C34.62 31.8517 34.7033 31.2682 34.7449 30.6845C34.7449 30.5594 34.9534 30.3925 35.0783 30.3509C35.2032 30.3509 35.4532 30.4343 35.5365 30.5594C35.8282 31.143 36.0782 31.7267 36.2865 32.3521C37.1197 34.937 37.9112 37.5635 38.7444 40.1484C38.8694 40.6069 39.0361 41.0238 39.2444 41.691C39.4942 41.3157 39.7027 41.0656 39.8276 40.8153C40.5775 38.8144 41.2441 36.7715 41.994 34.8119C42.494 33.4777 43.1187 32.227 43.7436 30.9346C43.9105 30.5594 44.2019 30.2259 44.7436 30.5177C45.0351 31.2264 44.8686 31.8936 44.6186 32.5606C44.1603 34.0198 43.6604 35.4789 43.1606 36.9381C42.3689 39.3561 41.619 41.7743 40.7858 44.1924C40.4942 45.0263 40.6608 45.6933 41.2441 46.3186C42.7856 47.9446 44.2436 49.6538 45.9102 51.1966C50.8677 55.7824 55.8253 60.327 60.8245 64.8712C68.6983 72.0421 76.6139 79.1713 84.5295 86.3005C85.1127 86.8008 85.6543 87.3428 86.196 87.9265C86.5292 88.2599 86.7375 88.6769 86.9875 89.0104C86.7792 89.469 86.4458 89.4273 86.2376 89.2606C85.5293 88.802 84.8211 88.385 84.1963 87.8429C81.405 85.4667 78.5303 83.1736 75.8224 80.7138C66.7404 72.5006 57.575 64.3291 48.1181 56.5746C46.8266 55.5324 45.5352 54.5317 44.2019 53.5312C43.702 53.0309 43.3271 52.6141 42.5772 52.6974Z" fill="#662D91"/>
<path d="M155.145 38.8978C155.311 38.3975 155.52 38.1057 155.561 37.7722C155.685 36.1046 155.809 34.4787 155.894 32.8108C155.936 31.3517 155.894 29.8509 156.268 28.3917C156.353 28.1415 156.477 27.8913 156.603 27.5579C157.228 28.2666 157.269 28.2666 157.311 28.6834C157.435 30.2677 157.52 31.8521 157.644 33.478C157.768 34.8955 157.852 36.313 157.976 37.7304C158.018 38.0224 158.144 38.2724 158.268 38.5644C158.353 38.7728 158.893 38.8561 159.06 38.6477C159.228 38.4808 159.352 38.2724 159.435 38.064C160.686 35.7709 162.56 34.0617 164.518 32.4775C164.684 32.3524 164.934 32.3523 165.267 32.2272C165.267 32.5608 165.351 32.8108 165.267 32.9776C164.934 33.7282 164.601 34.4787 164.144 35.1874C163.143 36.8133 162.101 38.3559 161.06 39.9818C160.851 40.3153 160.686 40.6906 160.394 41.2325C160.936 41.1074 161.269 41.0658 161.602 40.9823C164.226 40.1903 166.809 39.4399 169.434 38.6477C169.934 38.4808 170.475 38.3559 170.975 38.2308C171.267 38.1475 171.6 38.1475 171.725 38.5225C171.85 38.8561 171.6 39.1062 171.392 39.2731C170.933 39.5648 170.516 39.8567 170.017 40.1069C168.766 40.649 167.517 41.1907 166.268 41.6911C164.684 42.3165 163.06 42.9002 161.269 43.5673C161.602 43.8173 161.811 44.0257 162.018 44.0674C163.6 44.5678 165.226 44.9848 166.766 45.5268C168.392 46.1103 169.934 46.7774 171.516 47.4861C171.932 47.653 172.35 47.9031 172.559 48.2784C172.267 48.8203 171.893 48.5701 171.558 48.5285C169.476 48.0698 167.393 47.6114 165.308 47.1944C163.976 46.9025 162.643 46.6523 161.31 46.4439C160.727 46.3606 160.142 46.3188 159.56 46.3188C157.811 46.2355 156.31 46.9025 155.145 48.1949C154.353 49.0705 153.603 49.9876 152.936 50.9465C147.228 59.0347 141.188 66.8309 135.105 74.6272C133.689 76.4615 132.231 78.2126 130.773 80.047C130.564 80.2972 130.315 80.5056 129.898 80.6306C130.106 80.2554 130.315 79.8385 130.564 79.4633C135.773 71.4586 141.146 63.6207 147.104 56.158C148.271 54.6987 149.437 53.1563 150.519 51.6135C151.27 50.5297 151.895 49.404 152.478 48.2366C153.685 45.7769 153.894 43.2336 152.936 40.649C152.436 39.2731 151.77 37.9389 151.187 36.5632C150.437 34.8537 149.603 33.1028 148.854 31.3933C148.645 30.8931 148.519 30.3095 148.353 29.7676C148.854 29.6008 148.978 29.9342 149.104 30.1844C149.979 31.5184 150.811 32.8943 151.687 34.2283C152.478 35.4791 153.311 36.6882 154.144 37.8973C154.353 38.1891 154.728 38.4392 155.145 38.8978Z" fill="#662D91"/>
<path d="M8.1235 92.5127C8.91517 90.7617 10.0399 89.4275 11.1647 88.0518C12.2896 86.6759 13.4145 85.3417 14.2477 83.9242C13.9976 83.3824 13.6645 83.4657 13.4145 83.5074C11.623 83.7993 9.78998 84.1328 7.99859 84.4246C7.08201 84.5914 6.12379 84.7163 5.20734 84.7999C4.95738 84.8416 4.66578 84.7163 4.41581 84.6747C4.29076 84.1746 4.62414 84.0495 4.8741 83.966C6.08215 83.4657 7.2487 82.9238 8.49852 82.5067C10.2066 81.8813 11.9564 81.3396 13.7061 80.7558C14.0395 80.6307 14.331 80.5056 14.831 80.2554C13.0812 79.38 11.4148 78.8381 9.78998 78.1292C8.20691 77.4206 6.4988 76.9618 5.12406 75.7111C5.54058 75.2526 5.95723 75.4193 6.33211 75.461C7.49866 75.7111 8.62357 75.9613 9.78998 76.2948C11.0398 76.6284 12.2896 77.0036 13.5394 77.3788C14.0395 77.5039 14.5393 77.629 14.9976 77.7539C15.3725 77.3788 15.0809 77.1287 14.956 76.9202C14.0811 75.5861 13.1644 74.2936 12.248 72.9595C11.4148 71.6671 10.5399 70.4164 9.74834 69.0823C9.49838 68.707 9.37346 68.2485 9.20677 67.8732C9.49837 67.498 9.7067 67.6648 9.87339 67.8316C10.5816 68.4569 11.3315 69.0406 11.9564 69.7493C13.2478 71.1252 14.4977 72.5427 15.7891 73.9184C16.2058 74.3354 16.5807 74.7523 16.9557 75.1693C17.4555 75.0858 17.3722 74.7523 17.3722 74.4605C17.4138 72.3759 17.3722 70.3331 17.4555 68.2485C17.4972 67.0811 17.6223 65.872 17.7472 64.7047C17.7472 64.4961 17.8721 64.2877 17.9138 64.1211C18.3304 64.0377 18.4555 64.2461 18.4971 64.4961C18.7471 65.6636 18.997 66.7894 19.1637 67.9565C19.4552 70.0828 19.5804 72.209 19.9135 74.2936C20.0802 75.5861 20.4135 76.8368 20.705 78.1292C20.8717 78.9214 21.3716 79.4634 22.1632 79.7552C24.2461 80.5473 26.3293 81.4229 28.4539 82.1733C35.2446 84.5496 42.077 86.8845 48.8677 89.2607C51.1174 90.0528 53.2837 90.8866 55.5335 91.7205C55.9084 91.8456 56.2417 92.0541 56.7415 92.3461C55.95 92.5961 55.3666 92.3877 54.8252 92.2625C49.2844 90.7617 43.7435 89.3025 38.2443 87.7183C34.1199 86.5092 29.9955 85.175 25.9128 83.8409C24.7878 83.4657 23.7047 83.0071 22.6631 82.4651C21.08 81.6729 19.6636 81.8397 18.3722 82.9237C17.5389 83.6325 16.7472 84.5079 16.0807 85.3835C13.9976 88.01 11.5397 90.1779 8.87339 92.1792C8.6652 92.3041 8.3736 92.3877 8.1235 92.5127Z" fill="#662D91"/>
<path d="M98.9855 158.635C98.6523 160.719 98.3607 162.804 97.944 164.889C96.4859 172.436 94.9861 179.981 93.4447 187.486C92.8615 190.321 92.0699 193.114 91.4866 195.948C91.2784 197.033 91.2366 198.158 91.195 199.283C91.1533 200.534 91.7365 201.577 92.6948 202.369C93.0696 202.661 93.4447 202.953 93.8195 203.203C96.6108 205.121 99.0689 207.414 101.36 209.873C101.569 210.082 101.693 210.331 101.86 210.582C101.86 210.623 101.819 210.666 101.777 210.874C100.735 210.416 99.8605 209.79 98.9439 209.165C98.0273 208.581 97.1941 207.997 96.2775 207.414C95.361 206.831 94.4862 206.079 93.1947 205.955C93.1531 206.414 93.028 206.746 93.1113 207.038C93.3614 207.956 93.6114 208.872 93.9446 209.748C94.5694 211.541 95.2777 213.292 95.9027 215.084C96.0276 215.418 96.1526 215.752 96.1943 216.086C96.2359 216.21 96.111 216.46 95.9859 216.545C95.8609 216.627 95.5694 216.627 95.4862 216.545C95.1528 216.253 94.7779 215.918 94.5278 215.502C93.8195 214.293 93.1113 213.042 92.4864 211.792C91.7365 210.249 91.0283 208.706 90.2784 207.121C90.1535 206.831 89.9452 206.538 89.6119 205.996C89.362 206.788 89.1954 207.329 89.0702 207.83C88.5704 209.666 88.1538 211.5 87.6121 213.333C87.4039 214.084 87.1955 214.918 86.3622 215.543C86.1957 215.252 85.9874 215.002 85.9874 214.752C85.9874 213.751 86.0291 212.75 86.0708 211.75C86.1541 210.623 86.279 209.498 86.3206 208.372C86.3622 207.706 86.3206 207.08 86.2373 206.414C86.0708 205.162 85.3625 204.369 84.1127 204.079C83.1128 203.829 82.113 203.87 81.1131 203.995C79.2383 204.245 77.3635 204.495 75.489 204.704C74.864 204.787 74.1974 204.828 73.5309 204.787C73.1559 204.745 72.781 204.578 72.406 204.454C72.3227 203.829 72.6143 203.579 73.0726 203.452C74.5723 203.077 76.0722 202.702 77.572 202.41C79.8217 201.911 82.0712 201.495 84.3209 200.993C85.1126 200.827 85.9041 200.492 86.654 200.201C87.5288 199.868 88.1121 199.242 88.362 198.325C89.0286 195.739 89.8201 193.196 90.4451 190.612C91.9031 184.442 93.2363 178.272 94.7363 172.142C95.736 168.057 96.8609 164.013 97.9024 159.969C98.0273 159.427 98.2774 158.885 98.4856 158.343C98.7356 158.552 98.8606 158.593 98.9855 158.635Z" fill="#662D91"/>
<path d="M131.023 111.483C131.397 111.024 131.856 111.107 132.231 111.107C135.188 111.316 138.147 111.524 141.063 111.774C144.312 112.066 147.52 112.399 150.77 112.691C154.895 113.108 159.019 113.524 163.101 113.942C167.058 114.359 170.975 114.735 174.933 115.151C178.933 115.568 182.931 116.027 186.931 116.402C190.931 116.778 194.93 117.235 198.971 117.278C200.762 117.318 202.47 117.028 204.179 116.36C206.927 115.277 209.719 114.233 212.47 113.234C213.636 112.817 214.844 112.482 216.01 112.149C216.219 112.108 216.468 112.108 216.927 112.108C216.553 112.525 216.344 112.817 216.094 113.025C214.969 113.776 213.802 114.485 212.636 115.192C211.761 115.734 210.886 116.193 210.053 116.735C209.719 116.944 209.386 117.235 209.094 117.527C208.72 117.903 208.677 118.32 208.969 118.819C209.262 119.321 209.761 119.695 209.761 120.446C209.345 120.487 208.929 120.529 208.553 120.529C206.471 120.363 204.429 120.237 202.346 120.029C197.929 119.612 193.514 119.154 189.097 118.695C183.973 118.153 178.85 117.611 173.767 117.069C169.767 116.652 165.767 116.276 161.768 115.86C157.644 115.443 153.519 115.025 149.437 114.568C145.895 114.192 142.396 113.817 138.854 113.4C136.814 113.15 134.772 112.732 132.731 112.399C132.272 112.316 131.814 112.149 131.397 111.942C131.231 111.857 131.147 111.607 131.023 111.483Z" fill="#662D91"/>
<path d="M72.5727 187.235C71.8646 187.359 71.5312 187.359 71.2396 187.486C70.0731 188.069 68.9483 188.736 67.8234 189.361C66.6986 189.987 65.5738 190.612 64.4073 191.236C63.7823 191.571 63.7407 191.529 62.6159 191.529C62.7409 191.236 62.7826 190.946 62.9491 190.778C63.8239 189.987 64.699 189.152 65.6155 188.444C66.9069 187.444 68.2818 186.484 69.6565 185.526C69.9898 185.275 70.2815 185.025 70.6564 184.733C70.3648 184.275 69.9481 184.275 69.5733 184.192C66.9486 183.774 64.324 183.4 61.6577 183.023C61.2828 182.983 60.8661 182.983 60.4495 182.482C61.2412 182.44 61.8659 182.399 62.4908 182.358C65.1572 182.149 67.7817 181.94 70.4481 181.649C71.4896 181.523 72.5311 181.231 73.5726 180.981C74.3642 180.815 74.9891 180.356 75.4057 179.689C75.9889 178.814 76.6139 177.938 77.1555 177.02C78.2386 175.103 79.2385 173.143 80.28 171.226C81.863 168.307 83.4462 165.388 85.0293 162.512C85.4459 161.72 85.9874 161.011 86.4874 160.302C86.6123 160.136 86.779 160.012 87.0706 159.801C87.1539 160.677 86.8208 161.261 86.5707 161.844C85.4876 164.387 84.3627 166.93 83.2795 169.516C82.1131 172.309 80.9466 175.103 79.8217 177.896C79.5301 178.605 79.3635 179.356 79.0718 180.063C78.4886 181.607 78.6969 183.108 79.6133 184.484C80.4883 185.734 81.4049 186.985 82.363 188.194C83.4462 189.528 84.6126 190.778 85.7375 192.071C86.1126 192.53 86.4458 192.989 86.8624 193.489C86.4042 193.74 86.2791 193.363 86.1126 193.196C84.571 191.654 83.0712 190.07 81.5298 188.486C80.9049 187.86 80.28 187.235 79.3219 186.818C79.1967 187.193 78.9469 187.486 78.9469 187.777C78.9469 189.445 79.0301 191.07 79.0718 192.737C79.1134 194.447 79.1968 196.156 79.2385 197.866C79.2385 198.158 79.0718 198.491 78.9052 199.076C78.572 198.491 78.3219 198.158 78.197 197.782C77.8221 196.49 77.4471 195.156 77.1138 193.864C76.7388 192.154 76.4054 190.403 76.0306 188.652C75.9889 188.444 75.9056 188.235 75.864 188.027C75.3641 187.944 75.3223 188.277 75.1974 188.528C74.1141 190.612 73.0311 192.737 71.9479 194.823C71.6562 195.323 71.3229 195.824 70.948 196.283C70.8646 196.365 70.6148 196.407 70.4897 196.365C70.3648 196.324 70.198 196.116 70.1563 195.989C70.1147 195.697 70.1147 195.406 70.198 195.114C70.5313 193.905 70.9064 192.737 71.2396 191.529C71.6146 190.153 72.0311 188.86 72.5727 187.235Z" fill="#662D91"/>
<path d="M39.1196 191.07C39.5778 190.528 39.7863 190.194 40.0361 190.028C40.9527 189.443 41.8276 188.902 42.7857 188.444C44.2438 187.694 45.7853 187.027 47.2851 186.317C47.6184 186.15 47.9515 185.943 48.4932 185.608C48.035 185.442 47.785 185.275 47.535 185.234C45.452 184.733 43.369 184.316 41.3277 183.816C40.1195 183.524 38.953 183.108 37.7865 182.732C37.2865 182.565 36.8698 182.273 36.4533 182.023C36.5784 181.398 36.9531 181.398 37.2865 181.44C38.5781 181.564 39.8695 181.649 41.161 181.899C44.5354 182.565 47.8683 183.315 51.2012 184.025C51.5345 184.107 51.9093 184.15 52.3678 184.233C53.8258 182.649 55.2839 181.064 56.7837 179.438C58.2419 177.896 59.575 176.271 61.1582 174.812C61.2414 174.936 61.3247 175.02 61.2831 175.061C60.2832 177.479 59.2834 179.856 57.867 182.066C57.5336 182.606 57.1171 183.15 56.617 183.524C55.7422 184.233 55.6589 185.108 55.9089 186.067C56.0754 186.693 56.2838 187.318 56.5754 187.903C57.2836 189.404 57.9919 190.905 58.7001 192.363C59.4917 194.031 60.2832 195.657 60.9913 197.366C61.2414 197.949 61.5747 198.532 61.3663 199.367C61.1164 199.2 60.8248 199.117 60.6999 198.908C60.0749 198.075 59.45 197.198 58.8667 196.283C57.9086 194.74 56.9919 193.154 56.0338 191.571C55.8671 191.279 55.6172 191.029 55.4505 190.82C54.9923 190.905 55.0756 191.196 55.034 191.403C54.7007 193.698 54.3675 195.948 53.9925 198.241C53.8674 199.117 53.6176 199.951 53.3675 200.827C53.2842 201.075 53.0759 201.243 52.8676 201.534C52.326 200.909 52.2843 200.285 52.2427 199.617C52.1593 198.45 52.1593 197.24 52.076 196.074C52.0344 195.114 51.9511 194.197 51.8677 193.239C51.6595 190.653 48.3265 188.652 46.1186 189.277C45.3688 189.486 44.6605 189.778 43.9522 190.028C42.8273 190.403 41.7026 190.778 40.5778 191.112C40.2444 191.155 39.8695 191.07 39.1196 191.07Z" fill="#662D91"/>
<path d="M165.226 159.635C165.976 159.844 166.6 159.969 167.184 160.178C169.101 160.886 171.017 160.804 172.892 160.136C174.391 159.594 175.891 159.01 177.391 158.468C178.89 157.926 180.391 157.426 181.932 156.926C182.306 156.799 182.723 156.799 183.39 156.717C183.057 157.134 182.931 157.384 182.723 157.51C181.932 158.009 181.099 158.468 180.308 158.968C179.307 159.594 178.308 160.178 177.308 160.845C176.766 161.22 176.226 161.552 176.017 162.22C176.226 162.721 176.682 162.888 177.14 163.013C178.141 163.304 179.183 163.554 180.224 163.804C181.431 164.095 182.641 164.346 183.849 164.639C184.265 164.722 184.391 164.846 185.016 165.514C184.682 165.638 184.348 165.888 184.056 165.888C182.931 165.888 181.808 165.931 180.683 165.764C178.683 165.514 176.724 165.18 174.725 164.889C174.433 164.846 174.141 164.889 173.725 164.889C173.808 165.222 173.808 165.556 173.933 165.723C174.766 166.639 175.641 167.515 176.516 168.392C177.517 169.307 178.6 170.141 179.599 171.1C179.974 171.433 180.308 171.892 180.598 172.351C180.849 172.768 180.432 173.393 179.974 173.351C179.516 173.269 179.016 173.184 178.641 172.934C177.766 172.351 176.933 171.685 176.141 170.974C175.6 170.517 175.142 169.975 174.6 169.473C174.226 169.099 173.808 168.766 173.351 168.474C172.475 167.933 172.1 168.099 171.893 169.099C171.558 170.85 171.142 171.017 169.726 169.932C169.434 169.725 169.143 169.516 168.934 169.349C168.35 169.307 168.059 169.6 167.934 170.017C167.475 171.185 166.977 172.309 166.642 173.519C166.101 175.353 164.892 176.645 163.352 178.188C163.434 177.52 163.393 177.228 163.476 176.896C164.059 174.977 164.684 173.06 165.269 171.142C165.559 170.225 165.809 169.349 166.018 168.392C166.435 166.599 166.476 164.763 165.976 162.971C165.726 162.138 165.517 161.261 165.308 160.386C165.226 160.26 165.269 160.01 165.226 159.635Z" fill="#662D91"/>
<path d="M166.518 191.321C166.518 193.196 166.56 195.114 166.518 196.992C166.476 198.034 166.392 199.118 166.268 200.16C166.226 200.492 166.101 200.869 165.935 201.16C165.6 201.785 164.684 201.785 164.309 201.202C164.144 200.951 164.018 200.659 163.977 200.368C163.893 199.617 163.809 198.825 163.768 198.076C163.643 196.615 163.519 195.114 163.352 193.655C163.31 193.239 163.144 192.863 163.018 192.489C162.977 192.321 162.81 192.239 162.727 192.112C162.185 192.03 161.935 192.406 161.685 192.698C160.893 193.779 160.103 194.906 159.31 196.032C158.603 197.031 157.852 198.034 157.104 199.033C156.852 199.326 156.519 199.535 156.02 199.909C156.02 199.409 155.936 199.118 156.02 198.867C157.145 195.491 158.56 192.239 160.851 189.445C163.6 186.109 167.184 184.15 171.434 183.482C171.934 183.4 172.475 183.442 172.975 183.4C173.184 183.859 172.892 183.983 172.642 184.107C172.183 184.275 171.726 184.4 171.31 184.609C170.893 184.816 170.516 185.067 170.226 185.275C170.142 185.943 170.475 186.235 170.851 186.402C171.726 186.861 172.642 187.32 173.558 187.694C174.934 188.277 176.308 188.82 177.641 189.404C178.265 189.696 178.89 190.07 179.475 190.446C179.641 190.57 179.723 190.778 179.932 191.029C179.099 191.363 178.432 191.236 177.766 191.07C176.433 190.738 175.142 190.361 173.85 189.987C172.559 189.611 171.225 189.237 169.934 188.86C169.559 188.778 169.143 188.778 168.601 188.736C168.851 189.319 169.017 189.778 169.267 190.153C169.893 191.236 170.601 192.239 171.225 193.322C171.767 194.238 172.267 195.156 172.768 196.116C172.892 196.324 172.85 196.657 172.892 196.992C171.974 196.907 171.517 196.324 171.06 195.824C169.893 194.573 168.809 193.239 167.643 191.947C167.393 191.654 167.101 191.363 166.81 191.112C166.727 191.197 166.642 191.236 166.518 191.321Z" fill="#662D91"/>
<path d="M83.7797 142.959C83.8214 143.46 83.9463 143.751 83.863 143.959C83.6547 144.502 83.4047 145.043 83.0715 145.544C81.9882 147.253 80.9467 148.963 79.8219 150.63C75.3226 157.301 70.5316 163.763 65.5323 170.1C64.9491 170.85 64.3242 171.559 63.7409 172.309C63.5743 172.518 63.3243 172.643 62.991 172.686C63.2826 172.184 63.491 171.683 63.8242 171.185C65.3656 168.808 66.8656 166.39 68.4903 164.056C72.4481 158.343 76.4057 152.714 80.4051 147.045C81.155 145.961 81.9466 144.961 82.7799 143.918C82.9882 143.627 83.3213 143.375 83.7797 142.959Z" fill="#662D91"/>
<path d="M85.2375 206.663C84.7375 207.83 83.696 208.498 82.7795 209.289C79.4884 212.124 78.6968 212.666 77.1553 213.042C77.1137 212.707 77.0304 212.375 77.1137 212.083C77.197 211.832 77.4471 211.582 77.6553 211.415C79.655 209.581 81.9047 207.997 84.321 206.746C84.5294 206.622 84.7792 206.622 84.9876 206.579C85.0293 206.496 85.0709 206.579 85.2375 206.663Z" fill="#662D91"/>
</svg>

