<?xml version="1.0" standalone="yes"?>
<svg xmlns="http://www.w3.org/2000/svg" width="1539" height="2249">
    <defs>
        <style>
            .eyelid {
                animation: blink 2s infinite linear both;
            }

            @keyframes blink {
                0% {
                    clip-path: circle(0% at var(--eyelid-offset) -20%);
                }
                80% {
                    clip-path: circle(0% at var(--eyelid-offset) -20%);
                }
                90% {
                    clip-path: circle(200% at var(--eyelid-offset) -20%);
                }
                100% {
                    clip-path: circle(0% at var(--eyelid-offset) -20%);
                }
            }
        </style>
    </defs>
    <path style="fill:#231f21; stroke:none;" d="M654 0C636.839 6.24561 620.83 18.9944 606 29.4104C595.59 36.7217 586.596 45.2856 577 53.5747C566.555 62.5964 549.64 72.3279 543.461 85C537.58 97.0586 559.428 103.583 568 100.973C575.767 98.6082 583.727 89.6206 590 84.6003C608.031 70.1709 623.847 53.3604 643 40.3442C649.96 35.6145 667.912 29.0193 669.638 20.0032C670.929 13.2605 657.667 5.3689 654 0M948.004 101.742C938.446 105.443 936.614 120.917 945.094 126.521C953.318 131.955 966.461 131.092 976 133C993.492 136.499 1008.69 141.792 1025 149.231C1030.58 151.778 1044.03 161.282 1050 158.867C1069.26 151.073 1045.26 135.367 1038 131C1016.38 118.001 997.205 107.245 972 103.08C965.121 101.944 954.724 99.1399 948.004 101.742M684 102.425C660.736 105.593 636.634 116.123 623.927 137C614.379 152.687 611.027 172.399 606.627 190C593.973 240.614 587.592 293.873 600.373 345C610.02 383.585 633.097 430.936 681 424.711C707.278 421.296 728.224 398.528 737.988 375C747.676 351.656 752.08 326.488 757.884 302C768.035 259.172 779.637 215.614 768.116 172C757.689 132.528 728.72 96.3357 684 102.425z" />
    <path style="fill:#ffffff; stroke:none;" d="M625 365L626 365C630.513 349.102 639.764 335.269 656 329.548C681.172 320.678 705.156 343.199 705.957 368C706.383 381.205 699.945 391.455 693 402C719.063 388.694 726.926 355.916 733.373 330C748.449 269.401 773.859 196.52 734.229 140C712.343 108.786 662.042 116.078 640.529 144C630.617 156.865 627.568 177.482 623.884 193C618.165 217.09 614.292 241.383 611.831 266C608.388 300.429 614.388 332.387 625 365z" />
    <path class="eyelid" style="fill:#231f21; stroke:#231f21; --eyelid-offset: 65%" d="M625 365L626 365C630.513 349.102 639.764 335.269 656 329.548C681.172 320.678 705.156 343.199 705.957 368C706.383 381.205 699.945 391.455 693 402C719.063 388.694 726.926 355.916 733.373 330C748.449 269.401 773.859 196.52 734.229 140C712.343 108.786 662.042 116.078 640.529 144C630.617 156.865 627.568 177.482 623.884 193C618.165 217.09 614.292 241.383 611.831 266C608.388 300.429 614.388 332.387 625 365z" />
    <path style="fill:#b9b7b7; stroke:none;" d="M703.667 120.333L704.333 120.667L703.667 120.333z" />
    <path style="fill:#807e7e; stroke:none;" d="M705 120L706 121L705 120z" />
    <path style="fill:#545151; stroke:none;" d="M706 120L707 121L706 120M674 121L675 122L674 121z" />
    <path style="fill:#807e7e; stroke:none;" d="M675 121L676 122L675 121z" />
    <path style="fill:#b9b7b7; stroke:none;" d="M676 121L677 122L676 121M708 121L709 122L708 121z" />
    <path style="fill:#545151; stroke:none;" d="M709 121L710 122L709 121M671 122L672 123L671 122z" />
    <path style="fill:#b9b7b7; stroke:none;" d="M672 122L673 123L672 122M711 122L712 123L711 122z" />
    <path style="fill:#545151; stroke:none;" d="M712 122L713 123L712 122M668 123L669 124L668 123z" />
    <path style="fill:#b9b7b7; stroke:none;" d="M669 123L670 124L669 123z" />
    <path style="fill:#807e7e; stroke:none;" d="M714 123L715 124L714 123M666 124L667 125L666 124M716 124L717 125L716 124z" />
    <path style="fill:#545151; stroke:none;" d="M663 125L664 126L663 125z" />
    <path style="fill:#b9b7b7; stroke:none;" d="M664 125L665 126L664 125z" />
    <path style="fill:#807e7e; stroke:none;" d="M718 125L719 126L718 125z" />
    <path style="fill:#545151; stroke:none;" d="M661 126L662 127L661 126z" />
    <path style="fill:#b9b7b7; stroke:none;" d="M662 126L663 127L662 126z" />
    <path style="fill:#545151; stroke:none;" d="M720 126L721 127L720 126M659 127L660 128L659 127z" />
    <path style="fill:#b9b7b7; stroke:none;" d="M660 127L661 128L660 127M721 127L722 128L721 127z" />
    <path style="fill:#807e7e; stroke:none;" d="M658 128L659 129L658 128z" />
    <path style="fill:#545151; stroke:none;" d="M723 128L724 129L723 128z" />
    <path style="fill:#807e7e; stroke:none;" d="M656 129L657 130L656 129z" />
    <path style="fill:#b9b7b7; stroke:none;" d="M724 129L725 130L724 129z" />
    <path style="fill:#545151; stroke:none;" d="M654 130L655 131L654 130z" />
    <path style="fill:#b9b7b7; stroke:none;" d="M655 130L656 131L655 130M725 130L726 131L725 130z" />
    <path style="fill:#807e7e; stroke:none;" d="M653 131L654 132L653 131z" />
    <path style="fill:#b9b7b7; stroke:none;" d="M726 131L727 132L726 131M652 132L653 133L652 132z" />
    <path style="fill:#545151; stroke:none;" d="M728 132L729 133L728 132M650 133L651 134L650 133M729 133L730 134L729 133z" />
    <path style="fill:#807e7e; stroke:none;" d="M649 134L650 135L649 134z" />
    <path style="fill:#b9b7b7; stroke:none;" d="M648 135L649 136L648 135M730 135L731 136L730 135M647 136L648 137L647 136M731 136L732 137L731 136M646 137L647 138L646 137z" />
    <path style="fill:#807e7e; stroke:none;" d="M732 137L733 138L732 137z" />
    <path style="fill:#b9b7b7; stroke:none;" d="M645 138L646 139L645 138z" />
    <path style="fill:#545151; stroke:none;" d="M733 138L734 139L733 138z" />
    <path style="fill:#b9b7b7; stroke:none;" d="M644 139L645 140L644 139M643 140L644 141L643 140M734 140L735 141L734 140M642 141L643 142L642 141z" />
    <path style="fill:#807e7e; stroke:none;" d="M735 141L736 142L735 141M641 142L642 143L641 142z" />
    <path style="fill:#545151; stroke:none;" d="M640 143L641 144L640 143z" />
    <path style="fill:#b9b7b7; stroke:none;" d="M736 143L737 144L736 143z" />
    <path style="fill:#545151; stroke:none;" d="M737 144L738 145L737 144z" />
    <path style="fill:#b9b7b7; stroke:none;" d="M639 145L640 146L639 145M737 145L738 146L737 145z" />
    <path style="fill:#807e7e; stroke:none;" d="M638 146L639 147L638 146M738 146L739 147L738 146M637 148L638 149L637 148M739 148L740 149L739 148M636 150L637 151L636 150M740 150L741 151L740 150z" />
    <path style="fill:#545151; stroke:none;" d="M741 151L742 152L741 151z" />
    <path style="fill:#807e7e; stroke:none;" d="M635 152L636 153L635 152z" />
    <path style="fill:#b9b7b7; stroke:none;" d="M741 152L742 153L741 152z" />
    <path style="fill:#545151; stroke:none;" d="M742 153L743 154L742 153M634 154L635 155L634 154z" />
    <path style="fill:#b9b7b7; stroke:none;" d="M742 154L743 155L742 154M634 155L635 156L634 155z" />
    <path style="fill:#545151; stroke:none;" d="M743 155L744 156L743 155z" />
    <path style="fill:#b9b7b7; stroke:none;" d="M743 156L744 157L743 156z" />
    <path style="fill:#807e7e; stroke:none;" d="M633 157L634 158L633 157z" />
    <path style="fill:#b9b7b7; stroke:none;" d="M633 158L634 159L633 158z" />
    <path style="fill:#807e7e; stroke:none;" d="M744 158L745 159L744 158M632 160L633 161L632 160M745 160L746 161L745 160z" />
    <path style="fill:#b9b7b7; stroke:none;" d="M632 161L633 162L632 161z" />
    <path style="fill:#807e7e; stroke:none;" d="M746 162L747 163L746 162z" />
    <path style="fill:#545151; stroke:none;" d="M631 163L632 164L631 163z" />
    <path style="fill:#b9b7b7; stroke:none;" d="M746 163L747 164L746 163M631 164L632 165L631 164z" />
    <path style="fill:#545151; stroke:none;" d="M747 164L748 165L747 164z" />
    <path style="fill:#b9b7b7; stroke:none;" d="M747 165L748 166L747 165z" />
    <path style="fill:#545151; stroke:none;" d="M630 166L631 167L630 166z" />
    <path style="fill:#807e7e; stroke:none;" d="M630 167L631 168L630 167M748 167L749 168L748 167z" />
    <path style="fill:#b9b7b7; stroke:none;" d="M630 168L631 169L630 168M748 168L749 169L748 168z" />
    <path style="fill:#545151; stroke:none;" d="M749 169L750 170L749 169z" />
    <path style="fill:#807e7e; stroke:none;" d="M629 170L630 171L629 170M749 170L750 171L749 170z" />
    <path style="fill:#b9b7b7; stroke:none;" d="M629 171L630 172L629 171M749 171L750 172L749 171z" />
    <path style="fill:#545151; stroke:none;" d="M750 172L751 173L750 172M628 173L629 174L628 173z" />
    <path style="fill:#807e7e; stroke:none;" d="M750 173L751 174L750 173M628 174L629 175L628 174z" />
    <path style="fill:#b9b7b7; stroke:none;" d="M750 174L751 175L750 174M628 175L629 176L628 175z" />
    <path style="fill:#807e7e; stroke:none;" d="M751 176L752 177L751 176z" />
    <path style="fill:#545151; stroke:none;" d="M627 177L628 178L627 177z" />
    <path style="fill:#b9b7b7; stroke:none;" d="M751 177L752 178L751 177z" />
    <path style="fill:#807e7e; stroke:none;" d="M627 178L628 179L627 178z" />
    <path style="fill:#b9b7b7; stroke:none;" d="M627 179L628 180L627 179z" />
    <path style="fill:#545151; stroke:none;" d="M752 179L753 180L752 179z" />
    <path style="fill:#807e7e; stroke:none;" d="M752 180L753 181L752 180z" />
    <path style="fill:#545151; stroke:none;" d="M626 181L627 182L626 181z" />
    <path style="fill:#b9b7b7; stroke:none;" d="M752 181L753 182L752 181M626.333 182.667L626.667 183.333L626.333 182.667z" />
    <path style="fill:#545151; stroke:none;" d="M753 183L754 184L753 183z" />
    <path style="fill:#807e7e; stroke:none;" d="M753 184L754 185L753 184z" />
    <path style="fill:#545151; stroke:none;" d="M625 185L626 186L625 185z" />
    <path style="fill:#b9b7b7; stroke:none;" d="M753.333 185.667L753.667 186.333L753.333 185.667M625 186L626 187L625 186z" />
    <path style="fill:#545151; stroke:none;" d="M624 188L625 189L624 188M754 188L755 189L754 188z" />
    <path style="fill:#807e7e; stroke:none;" d="M624 189L625 190L624 189M754 189L755 190L754 189z" />
    <path style="fill:#b9b7b7; stroke:none;" d="M624 190L625 191L624 190M754.333 190.667L754.667 191.333L754.333 190.667z" />
    <path style="fill:#545151; stroke:none;" d="M623 192L624 193L623 192z" />
    <path style="fill:#807e7e; stroke:none;" d="M623 193L624 194L623 193z" />
    <path style="fill:#b9b7b7; stroke:none;" d="M623 194L624 195L623 194z" />
    <path style="fill:#545151; stroke:none;" d="M755 194L756 195L755 194z" />
    <path style="fill:#807e7e; stroke:none;" d="M755.333 195.667L755.667 196.333L755.333 195.667z" />
    <path style="fill:#545151; stroke:none;" d="M622.333 196.667L622.667 197.333L622.333 196.667z" />
    <path style="fill:#b9b7b7; stroke:none;" d="M755 197L755 200L756 200L755 197M622.333 198.667L622.667 199.333L622.333 198.667z" />
    <path style="fill:#545151; stroke:none;" d="M621 201L622 202L621 201z" />
    <path style="fill:#807e7e; stroke:none;" d="M621 202L622 203L621 202z" />
    <path style="fill:#545151; stroke:none;" d="M756 202L756 207L757 207L756 202z" />
    <path style="fill:#b9b7b7; stroke:none;" d="M621 203L622 204L621 203z" />
    <path style="fill:#545151; stroke:none;" d="M620 205L621 206L620 205z" />
    <path style="fill:#807e7e; stroke:none;" d="M620 206L621 207L620 206z" />
    <path style="fill:#b9b7b7; stroke:none;" d="M620.333 207.667L620.667 208.333L620.333 207.667z" />
    <path style="fill:#807e7e; stroke:none;" d="M756 207L756 212L757 212L756 207z" />
    <path style="fill:#545151; stroke:none;" d="M619 210L620 211L619 210z" />
    <path style="fill:#807e7e; stroke:none;" d="M619 211L620 212L619 211z" />
    <path style="fill:#b9b7b7; stroke:none;" d="M619 212L620 213L619 212z" />
    <path style="fill:#545151; stroke:none;" d="M756 212L756 218L757 218L756 212M618 215L619 216L618 215z" />
    <path style="fill:#231f21; stroke:none;" d="M936 215.425C901.907 220.063 878.761 250.898 867.692 282C859.927 303.818 861.969 326.345 862.961 349C864.873 392.681 866.885 435.44 882.424 477C895.113 510.935 915.076 552.968 959 547.714C997.686 543.088 1014.82 510.185 1023.37 476C1038.98 413.603 1048.42 339.784 1022.42 279C1008.67 246.854 974.692 210.161 936 215.425z" />
    <path style="fill:#807e7e; stroke:none;" d="M618 216L619 217L618 216z" />
    <path style="fill:#b9b7b7; stroke:none;" d="M618 217L619 218L618 217z" />
    <path style="fill:#545151; stroke:none;" d="M617 220L618 221L617 220z" />
    <path style="fill:#807e7e; stroke:none;" d="M617 221L618 222L617 221z" />
    <path style="fill:#b9b7b7; stroke:none;" d="M755 221L755 224L756 224L755 221M617.333 222.667L617.667 223.333L617.333 222.667z" />
    <path style="fill:#807e7e; stroke:none;" d="M755.333 224.667L755.667 225.333L755.333 224.667z" />
    <path style="fill:#545151; stroke:none;" d="M616.333 225.667L616.667 226.333L616.333 225.667M755.333 226.667L755.667 227.333L755.333 226.667z" />
    <path style="fill:#807e7e; stroke:none;" d="M616 227L617 228L616 227z" />
    <path style="fill:#b9b7b7; stroke:none;" d="M616.333 228.667L616.667 229.333L616.333 228.667M754.333 230.667L754.667 231.333L754.333 230.667z" />
    <path style="fill:#545151; stroke:none;" d="M615.333 231.667L615.667 232.333L615.333 231.667z" />
    <path style="fill:#807e7e; stroke:none;" d="M754 232L755 233L754 232z" />
    <path style="fill:#545151; stroke:none;" d="M935.667 232.333L936.333 232.667L935.667 232.333z" />
    <path style="fill:#807e7e; stroke:none;" d="M937 232L937 233L945 233L937 232z" />
    <path style="fill:#545151; stroke:none;" d="M945.667 232.333L946.333 232.667L945.667 232.333z" />
    <path style="fill:#807e7e; stroke:none;" d="M615 233L616 234L615 233z" />
    <path style="fill:#545151; stroke:none;" d="M754.333 233.667L754.667 234.333L754.333 233.667M930 233L931 234L930 233z" />
    <path style="fill:#807e7e; stroke:none;" d="M931 233L932 234L931 233z" />
    <path style="fill:#b9b7b7; stroke:none;" d="M932.667 233.333L933.333 233.667L932.667 233.333z" />
    <path style="fill:#ffffff; stroke:none;" d="M907 492L908 492C910.56 478.412 914.971 466.439 926 457.329C945.167 441.497 971.774 449.601 982.627 471C991.257 488.018 986.861 501.997 982 519C1001.96 504.931 1006.05 474.279 1010.79 452C1023.7 391.291 1033.24 305.587 986.911 256.001C981.148 249.834 974.235 244.54 967 240.208C918.176 210.973 881.929 274.536 879.089 316C877.424 340.316 880.424 366.675 882.089 391C884.533 426.684 895.668 458.502 907 492z" />
    <path class="eyelid" style="fill:#231f21; stroke:#231f21; --eyelid-offset: 45%" d="M907 492L908 492C910.56 478.412 914.971 466.439 926 457.329C945.167 441.497 971.774 449.601 982.627 471C991.257 488.018 986.861 501.997 982 519C1001.96 504.931 1006.05 474.279 1010.79 452C1023.7 391.291 1033.24 305.587 986.911 256.001C981.148 249.834 974.235 244.54 967 240.208C918.176 210.973 881.929 274.536 879.089 316C877.424 340.316 880.424 366.675 882.089 391C884.533 426.684 895.668 458.502 907 492z" />
    <path style="fill:#b9b7b7; stroke:none;" d="M949.667 233.333L950.333 233.667L949.667 233.333z" />
    <path style="fill:#807e7e; stroke:none;" d="M951 233L952 234L951 233z" />
    <path style="fill:#545151; stroke:none;" d="M952 233L953 234L952 233z" />
    <path style="fill:#b9b7b7; stroke:none;" d="M615.333 234.667L615.667 235.333L615.333 234.667z" />
    <path style="fill:#545151; stroke:none;" d="M926 234L927 235L926 234z" />
    <path style="fill:#807e7e; stroke:none;" d="M927 234L928 235L927 234z" />
    <path style="fill:#b9b7b7; stroke:none;" d="M928 234L929 235L928 234M954 234L955 235L954 234z" />
    <path style="fill:#545151; stroke:none;" d="M955 234L956 235L955 234z" />
    <path style="fill:#807e7e; stroke:none;" d="M924 235L925 236L924 235z" />
    <path style="fill:#b9b7b7; stroke:none;" d="M925 235L926 236L925 235M957 235L958 236L957 235z" />
    <path style="fill:#545151; stroke:none;" d="M958 235L959 236L958 235M921 236L922 237L921 236z" />
    <path style="fill:#b9b7b7; stroke:none;" d="M922 236L923 237L922 236M959 236L960 237L959 236z" />
    <path style="fill:#807e7e; stroke:none;" d="M960 236L961 237L960 236z" />
    <path style="fill:#545151; stroke:none;" d="M614.333 237.667L614.667 238.333L614.333 237.667z" />
    <path style="fill:#b9b7b7; stroke:none;" d="M753 237L754 238L753 237M920 237L921 238L920 237z" />
    <path style="fill:#807e7e; stroke:none;" d="M962 237L963 238L962 237M753.333 238.667L753.667 239.333L753.333 238.667z" />
    <path style="fill:#b9b7b7; stroke:none;" d="M919 238L920 239L919 238z" />
    <path style="fill:#807e7e; stroke:none;" d="M964 238L965 239L964 238M614.333 239.667L614.667 240.333L614.333 239.667z" />
    <path style="fill:#545151; stroke:none;" d="M917 239L918 240L917 239z" />
    <path style="fill:#b9b7b7; stroke:none;" d="M918 239L919 240L918 239M965 239L966 240L965 239z" />
    <path style="fill:#545151; stroke:none;" d="M966 239L967 240L966 239M753 240L754 241L753 240M916 240L917 241L916 240z" />
    <path style="fill:#b9b7b7; stroke:none;" d="M967 240L968 241L967 240M614.333 241.667L614.667 242.333L614.333 241.667z" />
    <path style="fill:#545151; stroke:none;" d="M915 241L916 242L915 241M969 241L970 242L969 241M914 242L915 243L914 242z" />
    <path style="fill:#b9b7b7; stroke:none;" d="M970 242L971 243L970 242M752 243L753 244L752 243z" />
    <path style="fill:#545151; stroke:none;" d="M913 243L914 244L913 243M972 243L973 244L972 243z" />
    <path style="fill:#807e7e; stroke:none;" d="M752 244L753 245L752 244z" />
    <path style="fill:#545151; stroke:none;" d="M912 244L913 245L912 244z" />
    <path style="fill:#b9b7b7; stroke:none;" d="M973 244L974 245L973 244z" />
    <path style="fill:#545151; stroke:none;" d="M613.333 245.667L613.667 246.333L613.333 245.667M752.333 245.667L752.667 246.333L752.333 245.667M911 245L912 246L911 245z" />
    <path style="fill:#b9b7b7; stroke:none;" d="M974 245L975 246L974 245z" />
    <path style="fill:#545151; stroke:none;" d="M975 245L976 246L975 245M910 246L911 247L910 246z" />
    <path style="fill:#807e7e; stroke:none;" d="M976 246L977 247L976 246M613 247L614 248L613 247z" />
    <path style="fill:#545151; stroke:none;" d="M909 247L910 248L909 247z" />
    <path style="fill:#b9b7b7; stroke:none;" d="M977 247L978 248L977 247M613 248L613 251L614 251L613 248M751.333 248.667L751.667 249.333L751.333 248.667z" />
    <path style="fill:#545151; stroke:none;" d="M908 248L909 249L908 248z" />
    <path style="fill:#b9b7b7; stroke:none;" d="M978 248L979 249L978 248z" />
    <path style="fill:#545151; stroke:none;" d="M979 248L980 249L979 248z" />
    <path style="fill:#b9b7b7; stroke:none;" d="M908 249L909 250L908 249z" />
    <path style="fill:#545151; stroke:none;" d="M980 249L981 250L980 249z" />
    <path style="fill:#807e7e; stroke:none;" d="M751 250L752 251L751 250z" />
    <path style="fill:#b9b7b7; stroke:none;" d="M907 250L908 251L907 250z" />
    <path style="fill:#807e7e; stroke:none;" d="M981 250L982 251L981 250z" />
    <path style="fill:#545151; stroke:none;" d="M751 251L752 252L751 251z" />
    <path style="fill:#b9b7b7; stroke:none;" d="M906 251L907 252L906 251z" />
    <path style="fill:#807e7e; stroke:none;" d="M982 251L983 252L982 251z" />
    <path style="fill:#b9b7b7; stroke:none;" d="M905 252L906 253L905 252M983 252L984 253L983 252z" />
    <path style="fill:#545151; stroke:none;" d="M612.333 253.667L612.667 254.333L612.333 253.667z" />
    <path style="fill:#b9b7b7; stroke:none;" d="M750.333 253.667L750.667 254.333L750.333 253.667z" />
    <path style="fill:#807e7e; stroke:none;" d="M904 253L905 254L904 253z" />
    <path style="fill:#b9b7b7; stroke:none;" d="M984 253L985 254L984 253z" />
    <path style="fill:#545151; stroke:none;" d="M903 254L904 255L903 254z" />
    <path style="fill:#b9b7b7; stroke:none;" d="M985 254L986 255L985 254z" />
    <path style="fill:#807e7e; stroke:none;" d="M612 255L613 256L612 255M750 255L751 256L750 255z" />
    <path style="fill:#545151; stroke:none;" d="M902 255L903 256L902 255z" />
    <path style="fill:#b9b7b7; stroke:none;" d="M986 255L987 256L986 255M612 256L612 259L613 259L612 256z" />
    <path style="fill:#545151; stroke:none;" d="M750 256L751 257L750 256z" />
    <path style="fill:#807e7e; stroke:none;" d="M987 256L988 257L987 256z" />
    <path style="fill:#b9b7b7; stroke:none;" d="M901 257L902 258L901 257z" />
    <path style="fill:#807e7e; stroke:none;" d="M988 257L989 258L988 257z" />
    <path style="fill:#b9b7b7; stroke:none;" d="M749.333 258.667L749.667 259.333L749.333 258.667z" />
    <path style="fill:#807e7e; stroke:none;" d="M900 258L901 259L900 258z" />
    <path style="fill:#545151; stroke:none;" d="M989 258L990 259L989 258M899 259L900 260L899 259M990 259L991 260L990 259z" />
    <path style="fill:#807e7e; stroke:none;" d="M749 260L750 261L749 260z" />
    <path style="fill:#b9b7b7; stroke:none;" d="M990 260L991 261L990 260z" />
    <path style="fill:#545151; stroke:none;" d="M611.333 261.667L611.667 262.333L611.333 261.667M749 261L750 262L749 261z" />
    <path style="fill:#b9b7b7; stroke:none;" d="M898 261L899 262L898 261M991 261L992 262L991 261z" />
    <path style="fill:#807e7e; stroke:none;" d="M897 262L898 263L897 262M992 262L993 263L992 262M611 263L611 266L612 266L611 263z" />
    <path style="fill:#b9b7b7; stroke:none;" d="M748 263L749 264L748 263z" />
    <path style="fill:#545151; stroke:none;" d="M896 263L897 264L896 263M993 263L994 264L993 263z" />
    <path style="fill:#807e7e; stroke:none;" d="M748 264L749 265L748 264z" />
    <path style="fill:#b9b7b7; stroke:none;" d="M896 264L897 265L896 264z" />
    <path style="fill:#231f21; stroke:none;" d="M292 275L288 274L290 278L285 278C284.743 280.381 282.566 284.384 282 280L281 280L280 285L277 283L273 289L274 292L267 294L272 287L262 295L262 296L264 297C259.505 298.332 257.507 299.454 256 304C249.717 301.069 245.184 306.772 240 310C240.467 314.506 240.18 317.533 235 316L235 323C229.769 321.533 221.851 320.066 223 328L196 343C186.931 352.927 192.648 365.415 196 377L199 375C198.162 380.169 198.915 382.313 204 384C201.716 387.451 202.956 389.627 205 393L207 392L208 393L207 396C209.307 397.874 219.789 404.486 216 407L216 408L219 409C220.062 413.357 223.704 415.36 228 415L227 419L228 419L232 419L232 420L230 421L234 426L235 426L236 424L237 424L241 426L239 431L249 440L251 438L252 438L255 439C255.521 443.304 256.134 446.772 261 447L267 452L271 453L268 452L272 459L273 459L275 457L275 461L296 473L296 474L294 474L294 475L300 475C300.826 480.11 304.37 482.243 309 484L309 481L311 485L326 493L327 496L334 498C338.198 497.964 351.797 515.015 356 507L357 507L359 511L358 507L360 513L370 517L375 513L375 514L372 514L372 515L382 521L380 518L384 517L383 523L392 527L395 526C397.455 529.33 400.353 529.582 404 528L407 532L420.093 536.616L437 542L438 542L440 540L438 543L449 544L448 546C452.239 546.962 454.636 546.851 457 543L458 543L457 549C461.857 550.11 475.17 549.41 476 555L490 559L489 556L490 560L505 558L502 560L501 563L512 567L512 565L517 564C517.624 572.035 529.028 574.937 536 574C538.461 578.322 542.281 578.889 547 579L547 578L544 578L544 577L548 578L546 581L551 581L576 593L579 592C581.713 596.137 585.637 597.102 590 595L588 598L602 601C603.076 604.861 606.296 605.388 610 605L615 609L616 605L620 605L616 610L631 613L631 617L645 621L644 619L645 619L648 624L653 621L654 621L655 621L657 623L656 628L660 629L660 625L663 628L673 631L670 632L670 633L675 632C675.717 636.39 677.646 637.558 682 637C684.638 640.955 687.803 640.384 692 639L690 643L696 645L698 644L700 648L704 648L707 644L709 648L705 648C708.508 653.35 713.48 651.967 719 652C719.958 657.796 726.479 661.033 732 660L733 663L734 660C736.131 661.055 737.596 661.753 735 663L735 664L756 671L757 671C757.828 674.882 761.945 676.624 765 674L767 679L772 677C775.368 682.85 788.191 690.798 795 690L795 693L802 694L803 694C803.992 696.904 807.017 700.276 810 698L811 698L818 704L824 703L822 707L830 709L832 713L835 714L836 714L840 712L839 717C846.687 720.594 854.971 724.877 862.271 729.097C867.733 732.255 870.144 736.455 877 735L876 739L888 742L887 746L894 747L895 747L895 751L898 750C898.319 752.847 899.148 753.08 902 753L901 755L904 754L906 758L907 758L911 756L910 760C915.009 763.215 918.724 767.155 925 766C925 768.627 926.505 768.398 929 768C930.404 772.844 936.474 781.842 941 775L941 778L942 779L944 778C944 788.15 970.094 793.625 969 798L983 802L982 805L995 810L1000 817L1001 814L1012 820L1009 821L1009 822L1021 826L1022 823L1024 823C1024.7 828.033 1025.94 830.823 1030 834L1030 831L1033 832L1031 838C1034.9 842.674 1027.59 859.627 1034 861L1034 862L1031 865L1034 864L1030 866L1030 867L1035 867L1034 873L1033 873L1033 870L1032 870C1026.79 880.061 1021.58 891.342 1023 903C1018.71 903.745 1018.01 905.949 1019 910C1014.44 911.585 1013.44 916.735 1012 921L1015 921L1009 931L1013 931L1006 936L1006 937L1010 943L1003 946L1007 948L1007 949L1003 947L999 963L997 966L998 966L1000 964C997.279 967.852 994.762 970.398 997 975L994 973L998 976L998 977L994 977L994 981C988.207 985.85 987.27 1000.89 985 1008L988 1012C986.062 1012.74 983.921 1013.44 986 1015L986 1016L983 1015L983 1029L982 1029L982 1025L981 1025L982 1033L982 1034L976 1049L979 1053C971.484 1055.44 971.678 1072.19 970 1079L973 1079L973 1082L971 1081C969.742 1086.57 965.531 1092.61 969 1098C966.043 1099.92 966.117 1101.7 967 1105L970 1104L966 1106L967 1112L962 1126L965 1131L961 1130L960 1147L961 1152L957 1154C958.121 1158.81 958.552 1162.25 955 1166L954 1170L954 1171L956 1180L953 1179C951.841 1184.05 949.217 1195.48 954 1198L954 1201L949 1201C948.477 1203.54 948.405 1203.69 951 1204L951 1205C946.456 1207.51 947.121 1211.37 948 1216L947 1226L943 1228L943 1229L945 1232C939.95 1235.09 935.938 1257.82 939 1263L934 1269L939 1272C934.412 1271.28 929.415 1276.32 935 1277L935 1278L932 1279L933 1286L932 1286L932 1280L931 1280C930.923 1284.59 925.573 1299.03 930 1300L930 1301C926.884 1303.29 924.825 1306.51 927 1310C924.241 1311.5 925.166 1313.89 927 1316C923.92 1317.24 922.075 1319.44 925 1322L925 1329L925 1330L924 1333L919 1333L920 1344L916 1350L919 1352L915 1353L917 1355L917 1356C913.657 1358.97 912.827 1361.69 914 1366C911.126 1368.19 911.158 1370.64 912 1374C908.445 1376.54 907.017 1385.59 912 1387L909 1394L911 1398L911 1399L906 1397L905 1406L901 1425L899 1437L902 1437L902 1438L898 1438C898.013 1441.19 897.597 1443.27 901 1444L901 1445L898 1445L899 1449L897 1447L896 1447L894 1458C899.891 1462.8 885.214 1469.28 893 1474L890 1474L880 1511L885 1511L886 1515L877 1518L875 1523L875 1524L877 1524L877 1525C872.263 1526.02 873.203 1531.17 876 1534C870.927 1536.49 869.232 1540.7 868 1546L871 1545L871 1546L868 1554L862 1561L862 1566L865 1567L865 1568C858.485 1569.08 859.816 1574.69 860 1580L857 1578L857 1591C850.088 1592.02 850.097 1598.18 849 1604L852 1603L852 1608L850 1605C844.565 1606.89 843.008 1614.82 844 1620C840.631 1622.58 841.545 1626.14 842 1630L836 1632L839 1638L839 1639L836 1643L834 1641L832 1645L832 1650L830 1651L829 1651L829 1649L828 1649L827 1657C821.26 1660.17 817.352 1666.5 817 1673L814 1672L817 1675L815 1679C811.02 1678.68 808.92 1679.44 807 1683L811 1684L811 1685L807 1685L808 1688L807 1688L806 1685L793.576 1697.54L780 1711L768 1717L768 1718L770 1718L770 1719C763.637 1718.67 752.923 1724.72 751 1731C747.416 1730.69 743.923 1730.82 744 1735C739.961 1733.57 735.066 1735.27 738 1740L732 1742L731 1738L723 1741L724 1744L723 1744C721.873 1741.99 721.127 1741.99 720 1744C707.959 1743.66 695.981 1758.08 685 1753L685 1757L684 1757L684 1754L676 1758C670.86 1754.46 651.119 1757.34 648 1763C637.095 1757.07 626.126 1762.79 615 1764L618 1762L618 1761L614 1764L613 1764L604 1762L605 1760L587 1763C585.591 1754.96 567.284 1759.65 562 1754L561 1756L560 1756L561 1753L557 1753L557 1757L556 1757C555.936 1754.01 556.054 1752.65 553 1752L555 1756C550.341 1756.08 549.448 1754.53 550 1750L533 1747L533 1744L528 1743L528 1749L526 1749L526 1745L522 1742L520 1743L519 1738L513 1740L514 1736L500 1730L501 1732L500 1732L498 1728L495 1729C493.188 1725.79 491.269 1725.18 488 1727L492 1728L492 1729L486 1728L484 1720L479 1720L480 1718L474 1718L475 1715C472.496 1713.51 471.396 1712.73 471 1716L470 1716L469 1711L460 1710L460 1705L458 1707L457 1707L448 1697L443 1700L443 1698L442 1698L442 1700L441 1700L443 1697L437 1690L436 1690L430 1692L432 1686L424 1682L424 1686L420 1687L419 1687L416 1682L417 1681L423 1684L412 1673L410 1676L410 1672L409 1670C404.568 1666.73 401.638 1664.6 396 1665L398 1663L398 1662L381 1651L382 1648L368 1640C367.223 1634.97 364.338 1630.92 359 1631L355 1626L352 1623L348 1619C347.663 1611.4 339.849 1610.3 336 1605L333 1605L335 1600L331 1600L331 1599L333 1598L330 1597L329 1592L326 1592L327 1589L324 1585L321 1586L319 1582L321 1582L316 1575L312 1570L314 1566L313 1566L310 1567L312 1564C307.529 1559.22 305.005 1542.8 305 1536L298 1536L298 1535L302 1534C301.862 1530.12 305.301 1524.72 299 1524L295 1527C299.221 1519.09 301.026 1517.62 301 1508L300 1508L298 1510L298 1506C304.405 1501.43 300.683 1493.34 300 1487L289 1484L286 1486C285.027 1482.69 283.261 1482.61 280 1483L275 1480L271 1484L269 1478L257 1477C250.329 1466.09 236.832 1484.09 234 1468L227 1470L228 1466L221 1467C217.906 1461.84 195.789 1456.06 195 1460L194 1460L193 1457L192 1460L187 1458L187 1454L182 1456L181 1456L178 1451C173.36 1450.61 167.803 1449.87 166 1455L164 1454L162 1469L159 1469L158 1475L161 1472L162 1479L160 1477L159 1480L163 1481L161 1485L160 1485C158.489 1477.99 155.304 1487.58 154.694 1490C153.684 1494 154.635 1501.07 156 1505C151.56 1507.41 151.923 1513.33 151 1518L155 1518L155 1519L153 1520L150 1522L150 1531L153 1530L153 1533L150 1532L152 1546C147.975 1548.94 149.352 1572.36 154 1573L152 1575L152 1576L156 1582C152.597 1582.73 153.013 1584.81 153 1588L159 1589L159 1594L155 1595L157 1604L162 1604L160 1606L163 1608L163 1609L162 1611L160 1609C154.378 1623.07 169.326 1641.08 175 1652L172 1653L182 1670C178.156 1674.38 185.54 1676.89 189 1677L189 1678L184 1678C186.373 1683.76 191.481 1697.65 198 1699L205 1715L209 1714L212 1718C210.598 1721.6 211.345 1723.24 214 1726L219 1723L218 1728L215 1727L221 1733C223.647 1743.19 230.62 1749.87 241 1750L239 1752L239 1753L242 1754L239 1754C239.439 1759.82 243.1 1764.99 249 1766L249 1770L252 1769L258 1770L258 1771L253 1773L261 1779L264 1782L265 1786L269 1784L270 1791L275 1790C274.335 1795.2 277.05 1798.52 282 1800L281 1802L293 1808L292 1811C302.259 1819.58 313.44 1834.15 327 1836C326.847 1842.34 333.318 1846.07 339 1847L338 1850L342 1850L343 1854L347 1853L351 1857L355 1863L356 1863L361 1862L359 1865L366 1868C367.597 1872.53 371.838 1871.54 376 1872L376 1873L373 1873L379 1877L381 1881L387 1879L390 1881L390 1885L391 1885L391 1882L392 1882C392.474 1888.15 397.541 1891.25 402 1895L403 1895L404 1893L405 1893C407.128 1896.56 408.717 1898.62 413 1898L418 1900C419.019 1903.2 422.733 1908.44 426 1905L427 1905L429 1909L434 1909L433 1912L453 1920C455.519 1923.84 468.904 1929.65 473 1928L474 1931L477 1930C481.464 1936.76 488.48 1933.79 495 1933L493 1938L514 1943L521 1940L521 1943L519 1944L515 1942L515 1945L529 1946L526 1947L526 1948L531 1949L531 1945L532 1945L532 1948L543 1950C544.624 1952.79 547.49 1952.19 548 1949L549 1949L549 1953C551.993 1952.94 553.346 1953.05 554 1950L575 1957L576 1957L582 1953L581 1958L585 1958L585 1957L583 1957L583 1956L591 1956C595.214 1959.39 599.232 1959.29 604 1957C606.732 1960.79 614.807 1961.65 618 1958L615 1959L615 1956L618 1957L619 1954L620 1957L621 1957L623 1955C622.973 1957.62 623.432 1957.55 626 1957L623 1959L623 1960L644 1960L647 1955L649 1956L650 1960L665 1958L665.015 1995L663.039 2071L667 2235L595 2231L594 2244L681 2249C681 2151.5 675.811 2054.57 680 1957L692 1954L695 1956L695 1950C698.119 1953.3 703.413 1954.74 708 1953.51C711.594 1952.56 714.129 1948.01 717 1952L725 1950L740 1944L741 1947L748 1945L752.961 1981L753 2141L821 2132L820 2119L766 2126L766 2019C766 1991.86 767.206 1964.24 759 1938L763 1941L764 1941L769 1936C776.917 1937.9 785.06 1934.12 789 1927L790 1927L792 1931L796 1929L793 1929L798 1925L799 1928L813 1921L815 1922L820 1917L836 1912L834 1909L834 1908L839 1909C843.623 1905.44 851.668 1906.38 852 1899L853 1899L854 1901L863 1897L861 1893L869 1893L869 1886L870 1886L871 1890L876 1885C881.879 1886.09 889.009 1880.76 890 1875L895 1875L892 1868C897.561 1867.97 906.659 1868.87 908 1862C911.966 1860.31 916.479 1858.68 917 1854L925 1849L925 1841L926 1841C926.841 1847.08 932.334 1841.67 932 1837C935.918 1837.64 938.242 1837.1 939 1833C949.633 1830.02 947.393 1821.31 953 1815L954 1816L953 1820C957.999 1815.93 960.88 1811.31 962 1805L965 1806L968 1803L968 1795L972 1793L971 1797L972 1797C973.977 1793.89 980.659 1786.25 977 1783L977 1782L981 1782L981 1781L979 1781L979 1780L983 1780L992 1762C995.747 1759.86 996.567 1757.19 996 1753C1005.56 1749.84 1011.94 1727.84 1010 1719L1015 1719C1015.03 1715.17 1014.9 1710.38 1019 1709L1020 1704L1016 1704L1015 1699L1022 1701L1022 1695L1026 1690L1026 1688L1024 1688L1024 1683L1023 1683L1023 1687L1019 1684L1025 1681L1026 1684L1030 1673L1028 1675L1027 1675L1029 1670L1028 1668C1034.34 1665.89 1036.76 1659.65 1033 1654C1039.3 1651.7 1039.78 1644.93 1041 1639L1035 1633L1043 1633L1053 1592L1050 1586L1055 1587L1057 1568C1064.04 1563.56 1066.13 1539.12 1067 1531L1063 1530L1067 1530L1067 1520C1070.72 1519.2 1070 1516.36 1070 1513L1069 1513L1066 1515L1066 1514L1067 1510L1071 1510C1070.11 1502.72 1076.07 1490.81 1069 1486L1069 1485L1075 1485L1071 1480L1076 1473L1073 1474L1072 1467L1077 1463L1077 1457L1072 1455C1077.43 1455.42 1077.94 1452.95 1078 1448L1075 1448L1078 1442L1079 1435L1079 1434L1077 1431C1081.58 1430.42 1080.23 1420.1 1081 1416L1078 1420L1075 1421L1074 1421L1074 1417L1078 1417L1079 1409L1075 1408L1078 1404L1078 1406L1082 1405L1079 1401L1079 1398C1085.08 1397.28 1080.42 1388.45 1083 1385L1080 1384L1081 1380L1082 1380L1083 1382L1084 1375L1080 1375L1080 1374L1084 1374L1084 1373L1077 1374L1085 1369L1085 1363L1081 1363L1081 1354L1084 1356C1087.67 1352.91 1087.01 1347.3 1086 1343L1083 1344L1082 1342L1088 1336L1085 1330L1089 1329L1088 1323L1089 1315C1095.3 1309.05 1092.58 1291.37 1090 1284L1094 1283L1096 1265L1093 1260L1093 1259C1095.33 1257.25 1096.77 1257.21 1094 1255L1097 1254L1097 1231C1101.45 1230.26 1097.61 1223.31 1096 1221L1099 1222L1101 1202L1097 1202L1098 1195L1100 1198L1101 1198L1100 1183L1100 1182L1100 1181C1103.18 1179.17 1103.21 1168.67 1099 1168L1103 1165L1103 1147L1100 1146L1100 1142L1103 1141L1104 1141L1105 1131L1102 1130L1105 1129L1105 1128L1101 1123L1102 1123L1104 1127L1106 1114L1104 1109L1106 1110L1108 1083L1105 1079C1108.52 1078.59 1110.24 1073.51 1106 1073L1106 1072C1112.3 1069.91 1110.86 1050.36 1113 1044L1110 1047L1109 1047L1110 1037L1113 1038L1114 1032L1107 1030L1115 1031L1114 1024L1111 1026L1110 1025L1110 1023C1114.39 1021.33 1116.87 1017.69 1116 1013L1120 1004L1119 992L1122 991C1121.06 988.712 1120.44 988.342 1123 988L1123 987C1116.06 984.818 1123.42 974.489 1124 979L1125 979L1124 974L1128 969L1124 966L1127 967L1131 961L1131 960L1127 958L1131 959L1138 937L1134 937L1134 941L1133 941L1132 936L1134 934L1139 933L1140 933L1138 925L1142 925L1143 904C1152.31 900.912 1148.1 884.93 1145 879L1146 879L1147 881C1152.97 872.164 1151 858.271 1151 848L1146 847C1148.62 844.045 1153.64 833.834 1147 833L1146 810L1145 810L1145 812L1144 812L1145 804L1141 803L1141 802C1143.92 799.061 1143.65 789.997 1139 789L1139 788L1141 787L1135 785L1135 783C1140.87 779.365 1139.99 771.957 1136 767L1135 756L1129 755L1130 747L1131 747L1132 750L1133 750C1132.32 742.569 1128.36 733.413 1121 731L1121 726L1120 726L1119 720L1115 723L1114 723L1114 714L1111 714L1111 711L1108 712C1107.12 707.994 1106.45 705.204 1102 705L1098 701L1095 695L1094 695L1086 697L1086 696L1091 692L1083 686L1071 681L1058 672C1054.78 670.48 1050.54 668.246 1050 673L1041 669C1037.98 668.597 1038.63 666.701 1039 664L1034 663L1032 669L1030 669L1032 664L1032 663L1029 660L1017.99 656.069L994 647L992 652L991 652L991 646L990 646L990 650L986 650L986 649L989 648L982 644L982 643L984 643L984 642L976 641L976 639L970 639C967.942 634.471 964.87 633.994 961 637C959.665 632.182 958.379 629.69 953 630L954 628L948 632L945 623L944 623L942 628L939 627L941 625L935 622L935 618L928 618L928 614L918 609L915 611L914 610L915 608L899 600C896.96 596.665 889.582 590.687 886 594L885 594L884 594L874 587L873 591L871 588L875 586L871 585C869.905 580.237 858.662 575.353 854 576C850.807 569.854 840.734 565.953 834 566L834 565L836 564L833 563L833 566L831 566L832 562L821 561C820.548 557.428 815.382 550.583 814 557L813 557L809 554L809 553L814 553L814 552L809 552C805.604 547.755 796.036 541.82 795 547L792 546C793.209 542.547 790.559 537.694 787 541L786 541L775 533L774 537L770 529L752 526L754 521L737 515L738 513C734.273 510.682 730.085 506.408 727 511C723.784 504.891 718.068 500.844 711 501L711 498L709 498L709 500L707 498L704 499C703.161 495.107 700.297 496.654 697 497C696.81 491.285 693.888 488.309 688 489C687.25 485.392 680.39 480.417 677 483L676 483C674.483 478.753 670.116 477.209 666 476L665 477L665 479L668 480L668 481C664.251 480.707 663.106 479.55 662 476L666 476L666 475L658 474C655.788 469.56 651.984 466.965 647 467C644.89 463.782 629.927 454.861 627 457L626 457L622 453L622 456L618 456L620 451L614 450L606 445L606 447L604 443L597 440L597 445L596 445C593.897 441.2 591.742 441.117 588 443L585 442L584 437L592 440C588.188 433.917 577.825 429.247 571.089 427.06C566.369 425.528 561.099 427.212 560 421L539 414L539 415L544 416L544 417L536 417L535 410C529.203 407.646 526.154 407.271 520 409L520 403L517 404C512.835 396.038 497.827 392.752 490 388.971C486.594 387.326 482.933 384.481 479.019 384.403C476.045 384.343 474.129 386.234 472 388L476 384L476 383L473 380L456 374L459 379C454.135 375.064 452.399 367.587 445 369L440 366C439.089 360.751 434.687 360.498 430 361L431 357L407 348L407 347L409 346L409 345L408 341L397 339L397 338L400 338L394 333L395 331L383 326L386 325L386 324L382 320L380 321C378.724 318.495 376.563 315.552 374 318L373 318L374 315L365 308L366 306L363 306L363 303L352 297L347 292L349 291L349 290L342 288L342 287C345.4 283.698 339.081 280.316 336 280C335.24 274.173 326.668 274.092 322 274L322 270L319 269L318 269L316 271L316 266C312.683 265.373 309.843 264.064 309 268L306 268L306 265C299.341 265.524 294.282 268.435 292 275M307 265L308 266L307 265z" />
    <path style="fill:#545151; stroke:none;" d="M748.333 265.667L748.667 266.333L748.333 265.667z" />
    <path style="fill:#807e7e; stroke:none;" d="M895 265L896 266L895 265z" />
    <path style="fill:#b9b7b7; stroke:none;" d="M994 265L995 266L994 265M611 266L611 269L612 269L611 266z" />
    <path style="fill:#545151; stroke:none;" d="M894 266L895 267L894 266M995 266L996 267L995 266z" />
    <path style="fill:#b9b7b7; stroke:none;" d="M894 267L895 268L894 267M747 268L748 269L747 268z" />
    <path style="fill:#807e7e; stroke:none;" d="M893 268L894 269L893 268z" />
    <path style="fill:#b9b7b7; stroke:none;" d="M996 268L997 269L996 268z" />
    <path style="fill:#ffffff; stroke:none;" d="M308 269L309 270L308 269z" />
    <path style="fill:#807e7e; stroke:none;" d="M747 269L748 270L747 269z" />
    <path style="fill:#545151; stroke:none;" d="M997 269L998 270L997 269z" />
    <path style="fill:#231f21; stroke:none;" d="M324 270L326 272L324 270z" />
    <path style="fill:#545151; stroke:none;" d="M747 270L748 271L747 270z" />
    <path style="fill:#b9b7b7; stroke:none;" d="M892 270L893 271L892 270z" />
    <path style="fill:#545151; stroke:none;" d="M891 271L892 272L891 271z" />
    <path style="fill:#b9b7b7; stroke:none;" d="M998 271L999 272L998 271z" />
    <path style="fill:#ffffff; stroke:none;" d="M295 272L296 273L295 272M298.667 272.333L299.333 272.667L298.667 272.333z" />
    <path style="fill:#545151; stroke:none;" d="M610 272L610 275L611 275L610 272z" />
    <path style="fill:#b9b7b7; stroke:none;" d="M746.333 272.667L746.667 273.333L746.333 272.667M891 272L892 273L891 272z" />
    <path style="fill:#545151; stroke:none;" d="M999 272L1000 273L999 272z" />
    <path style="fill:#807e7e; stroke:none;" d="M890 273L891 274L890 273z" />
    <path style="fill:#b9b7b7; stroke:none;" d="M999 273L1000 274L999 273z" />
    <path style="fill:#807e7e; stroke:none;" d="M746 274L747 275L746 274M1000 274L1001 275L1000 274M610 275L610 280L611 280L610 275z" />
    <path style="fill:#545151; stroke:none;" d="M746 275L747 276L746 275z" />
    <path style="fill:#807e7e; stroke:none;" d="M889 275L890 276L889 275z" />
    <path style="fill:#231f21; stroke:none;" d="M286 276L287 277L286 276z" />
    <path style="fill:#ffffff; stroke:none;" d="M329 276L330 277L329 276z" />
    <path style="fill:#b9b7b7; stroke:none;" d="M1001 276L1002 277L1001 276M745 277L746 278L745 277z" />
    <path style="fill:#807e7e; stroke:none;" d="M888 277L889 278L888 277z" />
    <path style="fill:#545151; stroke:none;" d="M1002 277L1003 278L1002 277z" />
    <path style="fill:#231f21; stroke:none;" d="M283 278L282 280L283 278z" />
    <path style="fill:#807e7e; stroke:none;" d="M745 278L746 279L745 278z" />
    <path style="fill:#b9b7b7; stroke:none;" d="M1002 278L1003 279L1002 278z" />
    <path style="fill:#545151; stroke:none;" d="M745 279L746 280L745 279z" />
    <path style="fill:#807e7e; stroke:none;" d="M887 279L888 280L887 279z" />
    <path style="fill:#545151; stroke:none;" d="M1003 279L1004 280L1003 279z" />
    <path style="fill:#b9b7b7; stroke:none;" d="M610 280L610 295L611 295L610 280M1003 280L1004 281L1003 280M744.333 281.667L744.667 282.333L744.333 281.667z" />
    <path style="fill:#545151; stroke:none;" d="M886 281L887 282L886 281M1004 281L1005 282L1004 281z" />
    <path style="fill:#231f21; stroke:none;" d="M278 282L279 283L278 282z" />
    <path style="fill:#ffffff; stroke:none;" d="M335.667 282.333L336.333 282.667L335.667 282.333z" />
    <path style="fill:#b9b7b7; stroke:none;" d="M886 282L887 283L886 282M1004 282L1005 283L1004 282z" />
    <path style="fill:#807e7e; stroke:none;" d="M744 283L745 284L744 283z" />
    <path style="fill:#545151; stroke:none;" d="M885 283L886 284L885 283M1005 283L1006 284L1005 283M744 284L745 285L744 284z" />
    <path style="fill:#b9b7b7; stroke:none;" d="M885 284L886 285L885 284M1005 284L1006 285L1005 284z" />
    <path style="fill:#545151; stroke:none;" d="M1006 285L1007 286L1006 285z" />
    <path style="fill:#b9b7b7; stroke:none;" d="M743 286L744 287L743 286z" />
    <path style="fill:#807e7e; stroke:none;" d="M884 286L885 287L884 286z" />
    <path style="fill:#b9b7b7; stroke:none;" d="M1006 286L1007 287L1006 286z" />
    <path style="fill:#231f21; stroke:none;" d="M273 287L274 288L273 287z" />
    <path style="fill:#807e7e; stroke:none;" d="M743 287L744 288L743 287z" />
    <path style="fill:#b9b7b7; stroke:none;" d="M884 287L885 288L884 287z" />
    <path style="fill:#545151; stroke:none;" d="M743 288L744 289L743 288M883 288L884 289L883 288z" />
    <path style="fill:#807e7e; stroke:none;" d="M1007 288L1008 289L1007 288z" />
    <path style="fill:#ffffff; stroke:none;" d="M342 289L343 290L342 289z" />
    <path style="fill:#807e7e; stroke:none;" d="M883 289L884 290L883 289z" />
    <path style="fill:#b9b7b7; stroke:none;" d="M742.333 290.667L742.667 291.333L742.333 290.667M883 290L884 291L883 290z" />
    <path style="fill:#545151; stroke:none;" d="M1008 290L1009 291L1008 290M882 291L883 292L882 291z" />
    <path style="fill:#b9b7b7; stroke:none;" d="M1008 291L1009 292L1008 291z" />
    <path style="fill:#545151; stroke:none;" d="M742 292L743 293L742 292z" />
    <path style="fill:#807e7e; stroke:none;" d="M882 292L883 293L882 292z" />
    <path style="fill:#b9b7b7; stroke:none;" d="M882 293L883 294L882 293z" />
    <path style="fill:#807e7e; stroke:none;" d="M1009 293L1010 294L1009 293z" />
    <path style="fill:#b9b7b7; stroke:none;" d="M1009 294L1010 295L1009 294z" />
    <path style="fill:#807e7e; stroke:none;" d="M610 295L610 300L611 300L610 295z" />
    <path style="fill:#b9b7b7; stroke:none;" d="M741 295L742 296L741 295z" />
    <path style="fill:#807e7e; stroke:none;" d="M881 295L882 296L881 295z" />
    <path style="fill:#545151; stroke:none;" d="M1010 295L1011 296L1010 295z" />
    <path style="fill:#807e7e; stroke:none;" d="M741 296L742 297L741 296z" />
    <path style="fill:#b9b7b7; stroke:none;" d="M881 296L882 297L881 296M1010 296L1011 297L1010 296z" />
    <path style="fill:#545151; stroke:none;" d="M741 297L742 298L741 297M880 298L881 299L880 298M1011 298L1012 299L1011 298z" />
    <path style="fill:#b9b7b7; stroke:none;" d="M740 299L741 300L740 299z" />
    <path style="fill:#807e7e; stroke:none;" d="M880 299L881 300L880 299z" />
    <path style="fill:#b9b7b7; stroke:none;" d="M1011 299L1012 300L1011 299z" />
    <path style="fill:#231f21; stroke:none;" d="M359.333 300.667L359.667 301.333L359.333 300.667z" />
    <path style="fill:#545151; stroke:none;" d="M610 300L610 304L611 304L610 300z" />
    <path style="fill:#807e7e; stroke:none;" d="M740 300L741 301L740 300z" />
    <path style="fill:#b9b7b7; stroke:none;" d="M880.333 300.667L880.667 301.333L880.333 300.667z" />
    <path style="fill:#545151; stroke:none;" d="M740 301L741 302L740 301M1012 301L1013 302L1012 301z" />
    <path style="fill:#b9b7b7; stroke:none;" d="M1012 302L1013 303L1012 302M739.333 303.667L739.667 304.333L739.333 303.667z" />
    <path style="fill:#545151; stroke:none;" d="M879.333 304.667L879.667 305.333L879.333 304.667M1013 304L1014 305L1013 304M739 305L740 306L739 305z" />
    <path style="fill:#807e7e; stroke:none;" d="M1013 305L1014 306L1013 305z" />
    <path style="fill:#b9b7b7; stroke:none;" d="M611 306L611 309L612 309L611 306z" />
    <path style="fill:#807e7e; stroke:none;" d="M879.333 306.667L879.667 307.333L879.333 306.667z" />
    <path style="fill:#b9b7b7; stroke:none;" d="M1013 306L1014 307L1013 306M738 308L739 309L738 308M879 308L879 313L880 313L879 308z" />
    <path style="fill:#545151; stroke:none;" d="M1014 308L1015 309L1014 308z" />
    <path style="fill:#807e7e; stroke:none;" d="M611.333 309.667L611.667 310.333L611.333 309.667M738 309L739 310L738 309z" />
    <path style="fill:#b9b7b7; stroke:none;" d="M1014.33 309.667L1014.67 310.333L1014.33 309.667z" />
    <path style="fill:#545151; stroke:none;" d="M738 310L739 311L738 310M611.333 311.667L611.667 312.333L611.333 311.667z" />
    <path style="fill:#b9b7b7; stroke:none;" d="M737 312L738 313L737 312z" />
    <path style="fill:#545151; stroke:none;" d="M1015 312L1016 313L1015 312z" />
    <path style="fill:#807e7e; stroke:none;" d="M737 313L738 314L737 313z" />
    <path style="fill:#b9b7b7; stroke:none;" d="M1015.33 313.667L1015.67 314.333L1015.33 313.667z" />
    <path style="fill:#545151; stroke:none;" d="M737 314L738 315L737 314z" />
    <path style="fill:#231f21; stroke:none;" d="M239 315L240 316L239 315z" />
    <path style="fill:#b9b7b7; stroke:none;" d="M612.333 315.667L612.667 316.333L612.333 315.667M736 316L737 317L736 316z" />
    <path style="fill:#545151; stroke:none;" d="M1016 316L1017 317L1016 316z" />
    <path style="fill:#807e7e; stroke:none;" d="M612.333 317.667L612.667 318.333L612.333 317.667M736 317L737 318L736 317M1016 317L1017 318L1016 317z" />
    <path style="fill:#231f21; stroke:none;" d="M230.667 318.333L231.333 318.667L230.667 318.333z" />
    <path style="fill:#545151; stroke:none;" d="M736 318L737 319L736 318z" />
    <path style="fill:#b9b7b7; stroke:none;" d="M1016 318L1017 319L1016 318z" />
    <path style="fill:#231f21; stroke:none;" d="M228 319L229 320L228 319z" />
    <path style="fill:#545151; stroke:none;" d="M612.333 319.667L612.667 320.333L612.333 319.667z" />
    <path style="fill:#b9b7b7; stroke:none;" d="M735.333 320.667L735.667 321.333L735.333 320.667z" />
    <path style="fill:#545151; stroke:none;" d="M1017.33 320.667L1017.67 321.333L1017.33 320.667z" />
    <path style="fill:#ffffff; stroke:none;" d="M380 322L381 323L380 322z" />
    <path style="fill:#b9b7b7; stroke:none;" d="M613.333 322.667L613.667 323.333L613.333 322.667z" />
    <path style="fill:#807e7e; stroke:none;" d="M735 322L736 323L735 322M1017 322L1018 323L1017 322z" />
    <path style="fill:#545151; stroke:none;" d="M735 323L736 324L735 323z" />
    <path style="fill:#b9b7b7; stroke:none;" d="M1017 323L1018 324L1017 323z" />
    <path style="fill:#807e7e; stroke:none;" d="M613 324L614 325L613 324z" />
    <path style="fill:#545151; stroke:none;" d="M613 325L614 326L613 325z" />
    <path style="fill:#b9b7b7; stroke:none;" d="M734 325L735 326L734 325z" />
    <path style="fill:#807e7e; stroke:none;" d="M734 326L735 327L734 326z" />
    <path style="fill:#545151; stroke:none;" d="M1018 326L1019 327L1018 326z" />
    <path style="fill:#ffffff; stroke:none;" d="M386 327L387 328L386 327z" />
    <path style="fill:#b9b7b7; stroke:none;" d="M666 327L666 328L669 328L666 327z" />
    <path style="fill:#545151; stroke:none;" d="M734 327L735 328L734 327z" />
    <path style="fill:#807e7e; stroke:none;" d="M1018.33 327.667L1018.67 328.333L1018.33 327.667z" />
    <path style="fill:#b9b7b7; stroke:none;" d="M614 328L615 329L614 328M659 328L660 329L659 328z" />
    <path style="fill:#807e7e; stroke:none;" d="M660 328L661 329L660 328z" />
    <path style="fill:#545151; stroke:none;" d="M661.667 328.333L662.333 328.667L661.667 328.333M672.667 328.333L673.333 328.667L672.667 328.333z" />
    <path style="fill:#807e7e; stroke:none;" d="M674 328L675 329L674 328z" />
    <path style="fill:#b9b7b7; stroke:none;" d="M675 328L676 329L675 328M879 328L879 337L880 337L879 328z" />
    <path style="fill:#807e7e; stroke:none;" d="M614 329L615 330L614 329z" />
    <path style="fill:#b9b7b7; stroke:none;" d="M655 329L656 330L655 329z" />
    <path style="fill:#807e7e; stroke:none;" d="M656 329L657 330L656 329z" />
    <path style="fill:#545151; stroke:none;" d="M657 329L658 330L657 329M677 329L678 330L677 329z" />
    <path style="fill:#807e7e; stroke:none;" d="M678 329L679 330L678 329z" />
    <path style="fill:#b9b7b7; stroke:none;" d="M679 329L680 330L679 329M733 329L734 330L733 329M1018 329L1019 330L1018 329z" />
    <path style="fill:#545151; stroke:none;" d="M614 330L615 331L614 330z" />
    <path style="fill:#b9b7b7; stroke:none;" d="M653 330L654 331L653 330z" />
    <path style="fill:#545151; stroke:none;" d="M654 330L655 331L654 330M680 330L681 331L680 330z" />
    <path style="fill:#b9b7b7; stroke:none;" d="M681 330L682 331L681 330z" />
    <path style="fill:#807e7e; stroke:none;" d="M733 330L734 331L733 330z" />
    <path style="fill:#ffffff; stroke:none;" d="M382 331L382 332L385 332L382 331z" />
    <path style="fill:#807e7e; stroke:none;" d="M651 331L652 332L651 331M683 331L684 332L683 331z" />
    <path style="fill:#545151; stroke:none;" d="M733 331L734 332L733 331z" />
    <path style="fill:#807e7e; stroke:none;" d="M649 332L650 333L649 332M685 332L686 333L685 332z" />
    <path style="fill:#545151; stroke:none;" d="M1019.33 332.667L1019.67 333.333L1019.33 332.667z" />
    <path style="fill:#b9b7b7; stroke:none;" d="M615 333L616 334L615 333M647 333L648 334L647 333z" />
    <path style="fill:#545151; stroke:none;" d="M686 333L687 334L686 333z" />
    <path style="fill:#b9b7b7; stroke:none;" d="M687 333L688 334L687 333M732 333L733 334L732 333z" />
    <path style="fill:#807e7e; stroke:none;" d="M615 334L616 335L615 334z" />
    <path style="fill:#b9b7b7; stroke:none;" d="M645 334L646 335L645 334z" />
    <path style="fill:#545151; stroke:none;" d="M646 334L647 335L646 334z" />
    <path style="fill:#807e7e; stroke:none;" d="M688 334L689 335L688 334M732 334L733 335L732 334M1019.33 334.667L1019.67 335.333L1019.33 334.667z" />
    <path style="fill:#545151; stroke:none;" d="M615 335L616 336L615 335z" />
    <path style="fill:#b9b7b7; stroke:none;" d="M644 335L645 336L644 335z" />
    <path style="fill:#545151; stroke:none;" d="M689 335L690 336L689 335M732 335L733 336L732 335z" />
    <path style="fill:#ffffff; stroke:none;" d="M392 338L395 336L392 338z" />
    <path style="fill:#545151; stroke:none;" d="M643 336L644 337L643 336z" />
    <path style="fill:#b9b7b7; stroke:none;" d="M691 336L692 337L691 336M1019 336L1019 339L1020 339L1019 336M616 337L617 338L616 337z" />
    <path style="fill:#545151; stroke:none;" d="M642 337L643 338L642 337z" />
    <path style="fill:#b9b7b7; stroke:none;" d="M692 337L693 338L692 337M731 337L732 338L731 337z" />
    <path style="fill:#807e7e; stroke:none;" d="M879 337L879 344L880 344L879 337M616 338L617 339L616 338z" />
    <path style="fill:#b9b7b7; stroke:none;" d="M640 338L641 339L640 338M693 338L694 339L693 338z" />
    <path style="fill:#807e7e; stroke:none;" d="M731 338L732 339L731 338z" />
    <path style="fill:#545151; stroke:none;" d="M616 339L617 340L616 339z" />
    <path style="fill:#b9b7b7; stroke:none;" d="M639 339L640 340L639 339M694 339L695 340L694 339z" />
    <path style="fill:#545151; stroke:none;" d="M731 339L732 340L731 339z" />
    <path style="fill:#b9b7b7; stroke:none;" d="M638 340L639 341L638 340M695 340L696 341L695 340M617 341L618 342L617 341M637 341L638 342L637 341M730 341L731 342L730 341z" />
    <path style="fill:#545151; stroke:none;" d="M1020 341L1020 345L1021 345L1020 341z" />
    <path style="fill:#807e7e; stroke:none;" d="M617 342L618 343L617 342z" />
    <path style="fill:#545151; stroke:none;" d="M696 342L697 343L696 342z" />
    <path style="fill:#807e7e; stroke:none;" d="M730 342L731 343L730 342z" />
    <path style="fill:#231f21; stroke:none;" d="M408 343L409 344L408 343z" />
    <path style="fill:#545151; stroke:none;" d="M617 343L618 344L617 343M636 343L637 344L636 343z" />
    <path style="fill:#807e7e; stroke:none;" d="M697 343L698 344L697 343z" />
    <path style="fill:#545151; stroke:none;" d="M730 343L731 344L730 343z" />
    <path style="fill:#807e7e; stroke:none;" d="M635 344L636 345L635 344z" />
    <path style="fill:#b9b7b7; stroke:none;" d="M698 344L699 345L698 344z" />
    <path style="fill:#545151; stroke:none;" d="M879 344L879 350L880 350L879 344z" />
    <path style="fill:#b9b7b7; stroke:none;" d="M618 345L619 346L618 345M634 345L635 346L634 345z" />
    <path style="fill:#545151; stroke:none;" d="M698 345L699 346L698 345z" />
    <path style="fill:#b9b7b7; stroke:none;" d="M729 345L730 346L729 345z" />
    <path style="fill:#807e7e; stroke:none;" d="M1020 345L1020 350L1021 350L1020 345z" />
    <path style="fill:#545151; stroke:none;" d="M618 346L619 347L618 346z" />
    <path style="fill:#807e7e; stroke:none;" d="M699 346L700 347L699 346z" />
    <path style="fill:#545151; stroke:none;" d="M729 346L730 347L729 346M633 347L634 348L633 347z" />
    <path style="fill:#b9b7b7; stroke:none;" d="M619 348L620 349L619 348M632 348L633 349L632 348z" />
    <path style="fill:#807e7e; stroke:none;" d="M700 348L701 349L700 348z" />
    <path style="fill:#b9b7b7; stroke:none;" d="M728 348L729 349L728 348z" />
    <path style="fill:#807e7e; stroke:none;" d="M619 349L620 350L619 349z" />
    <path style="fill:#545151; stroke:none;" d="M632 349L633 350L632 349z" />
    <path style="fill:#807e7e; stroke:none;" d="M728 349L729 350L728 349M631 350L632 351L631 350M701 350L702 351L701 350z" />
    <path style="fill:#545151; stroke:none;" d="M728 350L729 351L728 350z" />
    <path style="fill:#b9b7b7; stroke:none;" d="M1020 350L1020 366L1021 366L1020 350M620 351L621 352L620 351z" />
    <path style="fill:#807e7e; stroke:none;" d="M620 352L621 353L620 352M630 352L631 353L630 352z" />
    <path style="fill:#b9b7b7; stroke:none;" d="M702 352L703 353L702 352M727 352L728 353L727 352z" />
    <path style="fill:#545151; stroke:none;" d="M702 353L703 354L702 353M727 353L728 354L727 353z" />
    <path style="fill:#b9b7b7; stroke:none;" d="M621 354L622 355L621 354M629 354L630 355L629 354M703 354L704 355L703 354z" />
    <path style="fill:#545151; stroke:none;" d="M621 355L622 356L621 355M629 355L630 356L629 355z" />
    <path style="fill:#807e7e; stroke:none;" d="M703 355L704 356L703 355z" />
    <path style="fill:#b9b7b7; stroke:none;" d="M726 355L727 356L726 355M628 356L629 357L628 356z" />
    <path style="fill:#545151; stroke:none;" d="M703 356L704 357L703 356M726 356L727 357L726 356z" />
    <path style="fill:#b9b7b7; stroke:none;" d="M880 356L880 363L881 363L880 356z" />
    <path style="fill:#ffffff; stroke:none;" d="M192 357L193 358L192 357z" />
    <path style="fill:#b9b7b7; stroke:none;" d="M622 357L623 358L622 357z" />
    <path style="fill:#807e7e; stroke:none;" d="M628 357L629 358L628 357z" />
    <path style="fill:#545151; stroke:none;" d="M622 358L623 359L622 358z" />
    <path style="fill:#b9b7b7; stroke:none;" d="M704 358L705 359L704 358M725 358L726 359L725 358M627 359L628 360L627 359z" />
    <path style="fill:#807e7e; stroke:none;" d="M704 359L705 360L704 359z" />
    <path style="fill:#545151; stroke:none;" d="M725 359L726 360L725 359z" />
    <path style="fill:#b9b7b7; stroke:none;" d="M623 360L624 361L623 360z" />
    <path style="fill:#807e7e; stroke:none;" d="M627 360L628 361L627 360z" />
    <path style="fill:#545151; stroke:none;" d="M704 360L705 361L704 360M623 361L624 362L623 361M627 361L628 362L627 361z" />
    <path style="fill:#b9b7b7; stroke:none;" d="M724 361L725 362L724 361z" />
    <path style="fill:#545151; stroke:none;" d="M724 362L725 363L724 362z" />
    <path style="fill:#ffffff; stroke:none;" d="M195 366L198 363L195 366z" />
    <path style="fill:#807e7e; stroke:none;" d="M624 363L625 364L624 363z" />
    <path style="fill:#b9b7b7; stroke:none;" d="M626 363L627 364L626 363M705 363L705 366L706 366L705 363M723 363L724 364L723 363z" />
    <path style="fill:#807e7e; stroke:none;" d="M880 363L880 369L881 369L880 363z" />
    <path style="fill:#545151; stroke:none;" d="M624 364L625 365L624 364z" />
    <path style="fill:#807e7e; stroke:none;" d="M626 364L627 365L626 364M723 364L724 365L723 364z" />
    <path style="fill:#ffffff; stroke:none;" d="M199 365L200 366L199 365z" />
    <path style="fill:#b9b7b7; stroke:none;" d="M625 365L626 366L625 365z" />
    <path style="fill:#545151; stroke:none;" d="M626.333 365.667L626.667 366.333L626.333 365.667z" />
    <path style="fill:#807e7e; stroke:none;" d="M625 366L626 367L625 366M705 366L705 373L706 373L705 366z" />
    <path style="fill:#b9b7b7; stroke:none;" d="M722 366L723 367L722 366z" />
    <path style="fill:#807e7e; stroke:none;" d="M1020 366L1020 373L1021 373L1020 366z" />
    <path style="fill:#ffffff; stroke:none;" d="M195.333 367.667L195.667 368.333L195.333 367.667z" />
    <path style="fill:#545151; stroke:none;" d="M722 367L723 368L722 367z" />
    <path style="fill:#b9b7b7; stroke:none;" d="M721 368L722 369L721 368z" />
    <path style="fill:#545151; stroke:none;" d="M721 369L722 370L721 369M880 369L880 374L881 374L880 369z" />
    <path style="fill:#b9b7b7; stroke:none;" d="M720 370L721 371L720 370z" />
    <path style="fill:#545151; stroke:none;" d="M720 371L721 372L720 371z" />
    <path style="fill:#b9b7b7; stroke:none;" d="M719 372L720 373L719 372M705.333 373.667L705.667 374.333L705.333 373.667z" />
    <path style="fill:#545151; stroke:none;" d="M719 373L720 374L719 373M1020 373L1020 379L1021 379L1020 373z" />
    <path style="fill:#b9b7b7; stroke:none;" d="M718 374L719 375L718 374z" />
    <path style="fill:#545151; stroke:none;" d="M718 375L719 376L718 375z" />
    <path style="fill:#807e7e; stroke:none;" d="M717 376L718 377L717 376z" />
    <path style="fill:#ffffff; stroke:none;" d="M460 377L461 378L460 377z" />
    <path style="fill:#545151; stroke:none;" d="M704 377L705 378L704 377z" />
    <path style="fill:#231f21; stroke:none;" d="M468 378L469 379L468 378z" />
    <path style="fill:#807e7e; stroke:none;" d="M704 378L705 379L704 378z" />
    <path style="fill:#545151; stroke:none;" d="M716 378L717 379L716 378z" />
    <path style="fill:#b9b7b7; stroke:none;" d="M704.333 379.667L704.667 380.333L704.333 379.667M715 379L716 380L715 379M881 379L881 384L882 384L881 379z" />
    <path style="fill:#545151; stroke:none;" d="M715 380L716 381L715 380z" />
    <path style="fill:#807e7e; stroke:none;" d="M714 381L715 382L714 381M703 382L704 383L703 382z" />
    <path style="fill:#b9b7b7; stroke:none;" d="M713 382L714 383L713 382M703 383L704 384L703 383z" />
    <path style="fill:#545151; stroke:none;" d="M712 384L713 385L712 384z" />
    <path style="fill:#807e7e; stroke:none;" d="M881 384L881 388L882 388L881 384z" />
    <path style="fill:#b9b7b7; stroke:none;" d="M1019 384L1019 389L1020 389L1019 384z" />
    <path style="fill:#545151; stroke:none;" d="M702 385L703 386L702 385z" />
    <path style="fill:#807e7e; stroke:none;" d="M711 385L712 386L711 385z" />
    <path style="fill:#b9b7b7; stroke:none;" d="M702 386L703 387L702 386M710 386L711 387L710 386z" />
    <path style="fill:#545151; stroke:none;" d="M701 387L702 388L701 387z" />
    <path style="fill:#b9b7b7; stroke:none;" d="M709 387L710 388L709 387z" />
    <path style="fill:#807e7e; stroke:none;" d="M701 388L702 389L701 388z" />
    <path style="fill:#545151; stroke:none;" d="M881 388L881 391L882 391L881 388M708 389L709 390L708 389z" />
    <path style="fill:#807e7e; stroke:none;" d="M1019 389L1019 392L1020 392L1019 389z" />
    <path style="fill:#ffffff; stroke:none;" d="M486.667 390.333L487.333 390.667L486.667 390.333z" />
    <path style="fill:#807e7e; stroke:none;" d="M700 390L701 391L700 390z" />
    <path style="fill:#545151; stroke:none;" d="M707 390L708 391L707 390M706 391L707 392L706 391z" />
    <path style="fill:#807e7e; stroke:none;" d="M699 392L700 393L699 392M705 392L706 393L705 392z" />
    <path style="fill:#545151; stroke:none;" d="M1019 392L1019 396L1020 396L1019 392M698 393L699 394L698 393z" />
    <path style="fill:#807e7e; stroke:none;" d="M704 393L705 394L704 393z" />
    <path style="fill:#ffffff; stroke:none;" d="M211.667 394.333L212.333 394.667L211.667 394.333z" />
    <path style="fill:#b9b7b7; stroke:none;" d="M698 394L699 395L698 394z" />
    <path style="fill:#807e7e; stroke:none;" d="M703 394L704 395L703 394z" />
    <path style="fill:#b9b7b7; stroke:none;" d="M882 394L882 397L883 397L882 394z" />
    <path style="fill:#545151; stroke:none;" d="M697 395L698 396L697 395M702 395L703 396L702 395M701 396L702 397L701 396z" />
    <path style="fill:#b9b7b7; stroke:none;" d="M696 397L697 398L696 397M699 397L700 398L699 397z" />
    <path style="fill:#545151; stroke:none;" d="M700 397L701 398L700 397z" />
    <path style="fill:#807e7e; stroke:none;" d="M882 397L882 400L883 400L882 397z" />
    <path style="fill:#ffffff; stroke:none;" d="M501 398L502 399L501 398z" />
    <path style="fill:#807e7e; stroke:none;" d="M695 398L696 399L695 398z" />
    <path style="fill:#b9b7b7; stroke:none;" d="M698 398L699 399L698 398z" />
    <path style="fill:#545151; stroke:none;" d="M694 399L695 400L694 399z" />
    <path style="fill:#807e7e; stroke:none;" d="M697 399L698 400L697 399z" />
    <path style="fill:#b9b7b7; stroke:none;" d="M1018 399L1018 402L1019 402L1018 399z" />
    <path style="fill:#545151; stroke:none;" d="M693 400L694 401L693 400M696 400L697 401L696 400M882.333 400.667L882.667 401.333L882.333 400.667z" />
    <path style="fill:#b9b7b7; stroke:none;" d="M694 401L695 402L694 401M692 402L693 403L692 402z" />
    <path style="fill:#545151; stroke:none;" d="M693 402L694 403L693 402z" />
    <path style="fill:#807e7e; stroke:none;" d="M1018.33 402.667L1018.67 403.333L1018.33 402.667M691 403L692 404L691 403z" />
    <path style="fill:#b9b7b7; stroke:none;" d="M883 404L883 407L884 407L883 404z" />
    <path style="fill:#545151; stroke:none;" d="M1018 404L1018 407L1019 407L1018 404z" />
    <path style="fill:#ffffff; stroke:none;" d="M221 409L225 408L221 409z" />
    <path style="fill:#807e7e; stroke:none;" d="M883 407L884 408L883 407z" />
    <path style="fill:#545151; stroke:none;" d="M883.333 408.667L883.667 409.333L883.333 408.667z" />
    <path style="fill:#b9b7b7; stroke:none;" d="M1017.33 409.667L1017.67 410.333L1017.33 409.667z" />
    <path style="fill:#231f21; stroke:none;" d="M536.333 410.667L536.667 411.333L536.333 410.667z" />
    <path style="fill:#ffffff; stroke:none;" d="M222 411L223 412L222 411M531.667 411.333L532.333 411.667L531.667 411.333z" />
    <path style="fill:#807e7e; stroke:none;" d="M1017.33 411.667L1017.67 412.333L1017.33 411.667z" />
    <path style="fill:#b9b7b7; stroke:none;" d="M884.333 412.667L884.667 413.333L884.333 412.667z" />
    <path style="fill:#545151; stroke:none;" d="M1017.33 413.667L1017.67 414.333L1017.33 413.667z" />
    <path style="fill:#807e7e; stroke:none;" d="M884 414L885 415L884 414z" />
    <path style="fill:#545151; stroke:none;" d="M884.333 415.667L884.667 416.333L884.333 415.667z" />
    <path style="fill:#b9b7b7; stroke:none;" d="M1016.33 417.667L1016.67 418.333L1016.33 417.667z" />
    <path style="fill:#ffffff; stroke:none;" d="M542.333 418.667L542.667 419.333L542.333 418.667z" />
    <path style="fill:#b9b7b7; stroke:none;" d="M885.333 418.667L885.667 419.333L885.333 418.667z" />
    <path style="fill:#ffffff; stroke:none;" d="M550.333 419.667L550.667 420.333L550.333 419.667z" />
    <path style="fill:#807e7e; stroke:none;" d="M1016.33 419.667L1016.67 420.333L1016.33 419.667M885 420L886 421L885 420z" />
    <path style="fill:#545151; stroke:none;" d="M885.333 421.667L885.667 422.333L885.333 421.667M1016.33 421.667L1016.67 422.333L1016.33 421.667z" />
    <path style="fill:#ffffff; stroke:none;" d="M549 422L550 423L549 422z" />
    <path style="fill:#231f21; stroke:none;" d="M560 422L561 423L560 422z" />
    <path style="fill:#b9b7b7; stroke:none;" d="M886.333 424.667L886.667 425.333L886.333 424.667M1015.33 424.667L1015.67 425.333L1015.33 424.667z" />
    <path style="fill:#807e7e; stroke:none;" d="M886 426L887 427L886 426M1015.33 426.667L1015.67 427.333L1015.33 426.667z" />
    <path style="fill:#545151; stroke:none;" d="M886 427L887 428L886 427M1015 428L1016 429L1015 428z" />
    <path style="fill:#b9b7b7; stroke:none;" d="M887.333 429.667L887.667 430.333L887.333 429.667z" />
    <path style="fill:#ffffff; stroke:none;" d="M244 431L245 432L244 431z" />
    <path style="fill:#807e7e; stroke:none;" d="M887 431L888 432L887 431z" />
    <path style="fill:#b9b7b7; stroke:none;" d="M1014.33 431.667L1014.67 432.333L1014.33 431.667z" />
    <path style="fill:#ffffff; stroke:none;" d="M576 432L577 433L576 432z" />
    <path style="fill:#545151; stroke:none;" d="M887 432L888 433L887 432z" />
    <path style="fill:#807e7e; stroke:none;" d="M1014 433L1015 434L1014 433z" />
    <path style="fill:#b9b7b7; stroke:none;" d="M888 434L889 435L888 434z" />
    <path style="fill:#545151; stroke:none;" d="M1014 434L1015 435L1014 434z" />
    <path style="fill:#807e7e; stroke:none;" d="M888 435L889 436L888 435z" />
    <path style="fill:#ffffff; stroke:none;" d="M577 436L578 437L577 436z" />
    <path style="fill:#545151; stroke:none;" d="M888 436L889 437L888 436z" />
    <path style="fill:#b9b7b7; stroke:none;" d="M1013.33 437.667L1013.67 438.333L1013.33 437.667M889.333 438.667L889.667 439.333L889.333 438.667z" />
    <path style="fill:#807e7e; stroke:none;" d="M1013 439L1014 440L1013 439z" />
    <path style="fill:#545151; stroke:none;" d="M889 440L890 441L889 440M1013 440L1014 441L1013 440z" />
    <path style="fill:#b9b7b7; stroke:none;" d="M890.333 442.667L890.667 443.333L890.333 442.667M1012 443L1013 444L1012 443z" />
    <path style="fill:#545151; stroke:none;" d="M890 444L891 445L890 444z" />
    <path style="fill:#807e7e; stroke:none;" d="M1012 444L1013 445L1012 444z" />
    <path style="fill:#ffffff; stroke:none;" d="M260 445L261 446L260 445z" />
    <path style="fill:#545151; stroke:none;" d="M1012 445L1013 446L1012 445z" />
    <path style="fill:#b9b7b7; stroke:none;" d="M891.333 446.667L891.667 447.333L891.333 446.667z" />
    <path style="fill:#545151; stroke:none;" d="M891 448L892 449L891 448z" />
    <path style="fill:#b9b7b7; stroke:none;" d="M947 448L947 449L950 449L947 448M1011 448L1012 449L1011 448M941 449L942 450L941 449z" />
    <path style="fill:#807e7e; stroke:none;" d="M942 449L943 450L942 449z" />
    <path style="fill:#545151; stroke:none;" d="M943.667 449.333L944.333 449.667L943.667 449.333M953.667 449.333L954.333 449.667L953.667 449.333z" />
    <path style="fill:#807e7e; stroke:none;" d="M955 449L956 450L955 449z" />
    <path style="fill:#b9b7b7; stroke:none;" d="M956 449L957 450L956 449z" />
    <path style="fill:#807e7e; stroke:none;" d="M1011 449L1012 450L1011 449z" />
    <path style="fill:#b9b7b7; stroke:none;" d="M892 450L893 451L892 450M937 450L938 451L937 450z" />
    <path style="fill:#807e7e; stroke:none;" d="M938 450L939 451L938 450z" />
    <path style="fill:#545151; stroke:none;" d="M939 450L940 451L939 450M958 450L959 451L958 450z" />
    <path style="fill:#807e7e; stroke:none;" d="M959 450L960 451L959 450z" />
    <path style="fill:#b9b7b7; stroke:none;" d="M960 450L961 451L960 450z" />
    <path style="fill:#545151; stroke:none;" d="M1011.33 450.667L1011.67 451.333L1011.33 450.667z" />
    <path style="fill:#807e7e; stroke:none;" d="M892 451L893 452L892 451M935 451L936 452L935 451z" />
    <path style="fill:#545151; stroke:none;" d="M936 451L937 452L936 451M961 451L962 452L961 451z" />
    <path style="fill:#807e7e; stroke:none;" d="M962 451L963 452L962 451z" />
    <path style="fill:#545151; stroke:none;" d="M892 452L893 453L892 452z" />
    <path style="fill:#807e7e; stroke:none;" d="M933 452L934 453L933 452M964 452L965 453L964 452M931 453L932 454L931 453M966 453L967 454L966 453z" />
    <path style="fill:#b9b7b7; stroke:none;" d="M1010 453L1011 454L1010 453M893 454L894 455L893 454M929 454L930 455L929 454z" />
    <path style="fill:#545151; stroke:none;" d="M967 454L968 455L967 454z" />
    <path style="fill:#b9b7b7; stroke:none;" d="M968 454L969 455L968 454z" />
    <path style="fill:#807e7e; stroke:none;" d="M1010 454L1011 455L1010 454z" />
    <path style="fill:#ffffff; stroke:none;" d="M624 455L625 456L624 455z" />
    <path style="fill:#545151; stroke:none;" d="M893 455L894 456L893 455M928 455L929 456L928 455z" />
    <path style="fill:#807e7e; stroke:none;" d="M969 455L970 456L969 455z" />
    <path style="fill:#545151; stroke:none;" d="M1010 455L1011 456L1010 455z" />
    <path style="fill:#b9b7b7; stroke:none;" d="M926 456L927 457L926 456z" />
    <path style="fill:#545151; stroke:none;" d="M970 456L971 457L970 456z" />
    <path style="fill:#b9b7b7; stroke:none;" d="M894 457L895 458L894 457M925 457L926 458L925 457M972 457L973 458L972 457M1009.33 457.667L1009.67 458.333L1009.33 457.667z" />
    <path style="fill:#545151; stroke:none;" d="M894 458L895 459L894 458z" />
    <path style="fill:#807e7e; stroke:none;" d="M924 458L925 459L924 458z" />
    <path style="fill:#b9b7b7; stroke:none;" d="M973 458L974 459L973 458z" />
    <path style="fill:#807e7e; stroke:none;" d="M923 459L924 460L923 459z" />
    <path style="fill:#b9b7b7; stroke:none;" d="M974 459L975 460L974 459z" />
    <path style="fill:#807e7e; stroke:none;" d="M1009 459L1010 460L1009 459z" />
    <path style="fill:#b9b7b7; stroke:none;" d="M895 460L896 461L895 460z" />
    <path style="fill:#807e7e; stroke:none;" d="M922 460L923 461L922 460z" />
    <path style="fill:#b9b7b7; stroke:none;" d="M975 460L976 461L975 460z" />
    <path style="fill:#545151; stroke:none;" d="M1009 460L1010 461L1009 460z" />
    <path style="fill:#231f21; stroke:none;" d="M276 461L277 462L276 461z" />
    <path style="fill:#807e7e; stroke:none;" d="M895 461L896 462L895 461M921 461L922 462L921 461z" />
    <path style="fill:#b9b7b7; stroke:none;" d="M976 461L977 462L976 461z" />
    <path style="fill:#807e7e; stroke:none;" d="M920 462L921 463L920 462z" />
    <path style="fill:#b9b7b7; stroke:none;" d="M977 462L978 463L977 462M1008 462L1009 463L1008 462M896 463L897 464L896 463M919 463L920 464L919 463z" />
    <path style="fill:#545151; stroke:none;" d="M977 463L978 464L977 463z" />
    <path style="fill:#807e7e; stroke:none;" d="M1008 463L1009 464L1008 463M896 464L897 465L896 464z" />
    <path style="fill:#b9b7b7; stroke:none;" d="M918 464L919 465L918 464z" />
    <path style="fill:#807e7e; stroke:none;" d="M978 464L979 465L978 464z" />
    <path style="fill:#545151; stroke:none;" d="M1008 464L1009 465L1008 464z" />
    <path style="fill:#b9b7b7; stroke:none;" d="M979 465L980 466L979 465M897 466L898 467L897 466z" />
    <path style="fill:#545151; stroke:none;" d="M917 466L918 467L917 466z" />
    <path style="fill:#b9b7b7; stroke:none;" d="M1007.33 466.667L1007.67 467.333L1007.33 466.667z" />
    <path style="fill:#807e7e; stroke:none;" d="M897 467L898 468L897 467z" />
    <path style="fill:#b9b7b7; stroke:none;" d="M916 467L917 468L916 467z" />
    <path style="fill:#545151; stroke:none;" d="M980 467L981 468L980 467z" />
    <path style="fill:#b9b7b7; stroke:none;" d="M981 468L982 469L981 468z" />
    <path style="fill:#545151; stroke:none;" d="M1007 468L1008 469L1007 468z" />
    <path style="fill:#b9b7b7; stroke:none;" d="M898 469L899 470L898 469z" />
    <path style="fill:#807e7e; stroke:none;" d="M915 469L916 470L915 469z" />
    <path style="fill:#545151; stroke:none;" d="M981 469L982 470L981 469z" />
    <path style="fill:#ffffff; stroke:none;" d="M299 470L300 471L299 470M651 470L652 471L651 470z" />
    <path style="fill:#545151; stroke:none;" d="M898 470L899 471L898 470z" />
    <path style="fill:#b9b7b7; stroke:none;" d="M914 470L915 471L914 470M982 470L983 471L982 470M1006.33 470.667L1006.67 471.333L1006.33 470.667z" />
    <path style="fill:#545151; stroke:none;" d="M914 471L915 472L914 471M982 471L983 472L982 471z" />
    <path style="fill:#b9b7b7; stroke:none;" d="M899 472L900 473L899 472M913 472L914 473L913 472M983 472L984 473L983 472z" />
    <path style="fill:#545151; stroke:none;" d="M1006 472L1007 473L1006 472M899 473L900 474L899 473M913 473L914 474L913 473M983 473L984 474L983 473z" />
    <path style="fill:#b9b7b7; stroke:none;" d="M900 474L901 475L900 474M1005 474L1006 475L1005 474z" />
    <path style="fill:#807e7e; stroke:none;" d="M900 475L901 476L900 475M912 475L913 476L912 475M984 475L985 476L984 475M1005 475L1006 476L1005 475z" />
    <path style="fill:#545151; stroke:none;" d="M1005 476L1006 477L1005 476z" />
    <path style="fill:#b9b7b7; stroke:none;" d="M901 477L902 478L901 477M911 477L912 478L911 477M985 477L986 478L985 477z" />
    <path style="fill:#ffffff; stroke:none;" d="M667 478L668 479L667 478z" />
    <path style="fill:#545151; stroke:none;" d="M901 478L902 479L901 478M911 478L912 479L911 478z" />
    <path style="fill:#807e7e; stroke:none;" d="M985 478L986 479L985 478z" />
    <path style="fill:#b9b7b7; stroke:none;" d="M1004 478L1005 479L1004 478z" />
    <path style="fill:#ffffff; stroke:none;" d="M310 479L311 480L310 479z" />
    <path style="fill:#545151; stroke:none;" d="M985 479L986 480L985 479z" />
    <path style="fill:#807e7e; stroke:none;" d="M1004 479L1005 480L1004 479z" />
    <path style="fill:#b9b7b7; stroke:none;" d="M902 480L903 481L902 480M910 480L911 481L910 480z" />
    <path style="fill:#545151; stroke:none;" d="M1004 480L1005 481L1004 480M902 481L903 482L902 481M910 481L911 482L910 481z" />
    <path style="fill:#b9b7b7; stroke:none;" d="M986 481L987 482L986 481M1003.33 481.667L1003.67 482.333L1003.33 481.667M903 482L904 483L903 482z" />
    <path style="fill:#807e7e; stroke:none;" d="M986 482L987 483L986 482M903 483L904 484L903 483z" />
    <path style="fill:#b9b7b7; stroke:none;" d="M909.333 483.667L909.667 484.333L909.333 483.667z" />
    <path style="fill:#545151; stroke:none;" d="M986 483L987 484L986 483M1003 483L1004 484L1003 483z" />
    <path style="fill:#231f21; stroke:none;" d="M309 484L310 485L309 484z" />
    <path style="fill:#b9b7b7; stroke:none;" d="M904 485L905 486L904 485z" />
    <path style="fill:#807e7e; stroke:none;" d="M909 485L910 486L909 485z" />
    <path style="fill:#b9b7b7; stroke:none;" d="M987.333 485.667L987.667 486.333L987.333 485.667M1002 485L1003 486L1002 485z" />
    <path style="fill:#ffffff; stroke:none;" d="M683 486L684 489L685 489L685 486L683 486z" />
    <path style="fill:#545151; stroke:none;" d="M904 486L905 487L904 486M909 486L910 487L909 486M1002 486L1003 487L1002 486z" />
    <path style="fill:#b9b7b7; stroke:none;" d="M905 487L906 488L905 487z" />
    <path style="fill:#807e7e; stroke:none;" d="M987 487L987 490L988 490L987 487M905 488L906 489L905 488z" />
    <path style="fill:#b9b7b7; stroke:none;" d="M1001 488L1002 489L1001 488M908.333 489.667L908.667 490.333L908.333 489.667z" />
    <path style="fill:#545151; stroke:none;" d="M1001 489L1002 490L1001 489z" />
    <path style="fill:#b9b7b7; stroke:none;" d="M906 490L907 491L906 490z" />
    <path style="fill:#545151; stroke:none;" d="M987 490L987 497L988 497L987 490M906 491L907 492L906 491z" />
    <path style="fill:#807e7e; stroke:none;" d="M908 491L908 495L909 495L908 491z" />
    <path style="fill:#b9b7b7; stroke:none;" d="M1000 491L1001 492L1000 491M907 492L908 493L907 492z" />
    <path style="fill:#545151; stroke:none;" d="M1000 492L1001 493L1000 492z" />
    <path style="fill:#ffffff; stroke:none;" d="M694 493L695 494L694 493z" />
    <path style="fill:#545151; stroke:none;" d="M907 493L908 494L907 493z" />
    <path style="fill:#b9b7b7; stroke:none;" d="M999 494L1000 495L999 494z" />
    <path style="fill:#545151; stroke:none;" d="M908 495L909 496L908 495M999 495L1000 496L999 495z" />
    <path style="fill:#231f21; stroke:none;" d="M331 496L332 497L331 496z" />
    <path style="fill:#b9b7b7; stroke:none;" d="M998 496L999 497L998 496z" />
    <path style="fill:#807e7e; stroke:none;" d="M987 497L987 500L988 500L987 497M998 497L999 498L998 497z" />
    <path style="fill:#ffffff; stroke:none;" d="M343.333 498.667L343.667 499.333L343.333 498.667z" />
    <path style="fill:#807e7e; stroke:none;" d="M997 499L998 500L997 499z" />
    <path style="fill:#ffffff; stroke:none;" d="M696 500L697 501L696 500z" />
    <path style="fill:#b9b7b7; stroke:none;" d="M987.333 500.667L987.667 501.333L987.333 500.667M996 501L997 502L996 501z" />
    <path style="fill:#ffffff; stroke:none;" d="M346 505L350 503C347.303 502.146 346.614 502.149 346 505M711.667 502.333L712.333 502.667L711.667 502.333z" />
    <path style="fill:#545151; stroke:none;" d="M996 502L997 503L996 502M986 503L987 504L986 503z" />
    <path style="fill:#b9b7b7; stroke:none;" d="M995 503L996 504L995 503z" />
    <path style="fill:#807e7e; stroke:none;" d="M986 504L987 505L986 504z" />
    <path style="fill:#b9b7b7; stroke:none;" d="M986.333 505.667L986.667 506.333L986.333 505.667z" />
    <path style="fill:#807e7e; stroke:none;" d="M994 505L995 506L994 505z" />
    <path style="fill:#ffffff; stroke:none;" d="M361 506L361 510L364 509L361 506z" />
    <path style="fill:#231f21; stroke:none;" d="M725 506L726 507L725 506z" />
    <path style="fill:#ffffff; stroke:none;" d="M716 507L717 510L716 507z" />
    <path style="fill:#545151; stroke:none;" d="M993 507L994 508L993 507z" />
    <path style="fill:#807e7e; stroke:none;" d="M985 508L986 509L985 508z" />
    <path style="fill:#b9b7b7; stroke:none;" d="M992 508L993 509L992 508M985 509L986 510L985 509M991 509L992 510L991 509z" />
    <path style="fill:#231f21; stroke:none;" d="M355 510L356 511L355 510z" />
    <path style="fill:#ffffff; stroke:none;" d="M370 511L371 512L370 511z" />
    <path style="fill:#545151; stroke:none;" d="M984 511L985 512L984 511M990 511L991 512L990 511z" />
    <path style="fill:#b9b7b7; stroke:none;" d="M984 512L985 513L984 512z" />
    <path style="fill:#545151; stroke:none;" d="M989 512L990 513L989 512z" />
    <path style="fill:#ffffff; stroke:none;" d="M729 513L733 516L729 513z" />
    <path style="fill:#545151; stroke:none;" d="M983 513L984 514L983 513M988 513L989 514L988 513z" />
    <path style="fill:#807e7e; stroke:none;" d="M983 514L984 515L983 514M987 514L988 515L987 514z" />
    <path style="fill:#ffffff; stroke:none;" d="M381 515L382 516L381 515z" />
    <path style="fill:#807e7e; stroke:none;" d="M986 515L987 516L986 515M982 516L983 517L982 516M985 516L986 517L985 516z" />
    <path style="fill:#ffffff; stroke:none;" d="M737 517L738 518L737 517z" />
    <path style="fill:#807e7e; stroke:none;" d="M984 517L985 518L984 517M981 518L982 519L981 518z" />
    <path style="fill:#545151; stroke:none;" d="M983 518L984 519L983 518z" />
    <path style="fill:#b9b7b7; stroke:none;" d="M981 519L982 520L981 519z" />
    <path style="fill:#545151; stroke:none;" d="M982 519L983 520L982 519z" />
    <path style="fill:#807e7e; stroke:none;" d="M980 520L981 521L980 520z" />
    <path style="fill:#545151; stroke:none;" d="M979 521L980 522L979 521z" />
    <path style="fill:#ffffff; stroke:none;" d="M397 522L397 525L398 525L397 522z" />
    <path style="fill:#231f21; stroke:none;" d="M754.667 522.333L755.333 522.667L754.667 522.333M757 523L759 525L757 523z" />
    <path style="fill:#ffffff; stroke:none;" d="M397 526L398 527L397 526M401 526L402 527L401 526M399 527L400 528L399 527M422 532L422 535L424 534L424 533L422 532M439 537L443 541L443 536L439 537M779 536L780 537L779 536M445 540L446 541L445 540z" />
    <path style="fill:#231f21; stroke:none;" d="M441 543L441 544L444 544L441 543z" />
    <path style="fill:#ffffff; stroke:none;" d="M791 543L792 544L791 543M796.667 547.333L797.333 547.667L796.667 547.333M799 548L798 550L799 548M470 549L470 550L473 550L470 549M482 554L483 555L482 554M490 554L490 555L494 555L490 554M510 558L507 560L507 561L512 561L510 558z" />
    <path style="fill:#231f21; stroke:none;" d="M823 558L824 559L823 558z" />
    <path style="fill:#ffffff; stroke:none;" d="M513 563L514 564L513 563M519 566L520 569L521 569L522 566L519 566M523 567L524 568L523 567M530 569L531 570L530 569M533 569L534 570L533 569M846 572L847 573L846 572M846.333 574.667L846.667 575.333L846.333 574.667M559 578L560 579L559 578M561.333 582.667L561.667 583.333L561.333 582.667M565 583L566 584L565 583M567 583L568 584L567 583M869 584L870 585L869 584M586 595L587 596L586 595M619 603L620 604L619 603M907.667 612.333L908.333 612.667L907.667 612.333z" />
    <path style="fill:#231f21; stroke:none;" d="M939 621L939 624L940 624L939 621z" />
    <path style="fill:#ffffff; stroke:none;" d="M936 626L938 629L938 626L936 626z" />
    <path style="fill:#231f21; stroke:none;" d="M661 629L661 630L665 630L661 629z" />
    <path style="fill:#ffffff; stroke:none;" d="M674 630L675 631L674 630M676 632L677 633L676 632M721 651L722 652L721 651M989 651L990 652L989 651z" />
    <path style="fill:#231f21; stroke:none;" d="M716 653L717 654L716 653z" />
    <path style="fill:#ffffff; stroke:none;" d="M721.667 655.333L722.333 655.667L721.667 655.333M1009 655L1012 659L1012 655L1009 655M728 656L727 659L728 656M742.667 664.333L743.333 664.667L742.667 664.333M1034 666L1035 667L1034 666z" />
    <path style="fill:#231f21; stroke:none;" d="M1044.33 667.667L1044.67 668.333L1044.33 667.667z" />
    <path style="fill:#ffffff; stroke:none;" d="M759 668C757.98 670.899 757.772 672.308 761 673L759 668M1032.67 670.333L1033.33 670.667L1032.67 670.333M1086 693L1087 694L1086 693M810 696L811 697L810 696M814 697L815 698L814 697M813.667 699.333L814.333 699.667L813.667 699.333M838.333 704.667L838.667 705.333L838.333 704.667M825 705L826 706L825 705M1101.67 706.333L1102.33 706.667L1101.67 706.333M1105 707L1106 708L1105 707M834.667 710.333L835.333 710.667L834.667 710.333M837.667 710.333L838.333 710.667L837.667 710.333z" />
    <path style="fill:#231f21; stroke:none;" d="M836.667 714.333L837.333 714.667L836.667 714.333z" />
    <path style="fill:#ffffff; stroke:none;" d="M859 721L860 722L859 721M867 724L868 725L867 724z" />
    <path style="fill:#231f21; stroke:none;" d="M886 743L887 744L886 743z" />
    <path style="fill:#ffffff; stroke:none;" d="M899 751L899 752L902 752L899 751M910 754L911 755L910 754M917 763L923 765C921.311 762.389 919.846 761.568 917 763M939.667 772.333L940.333 772.667L939.667 772.333M1136 773L1137 774L1136 773M938 775L939 776L938 775z" />
    <path style="fill:#231f21; stroke:none;" d="M1137.67 783.333L1138.33 783.667L1137.67 783.333M1140 783L1141 784L1140 783z" />
    <path style="fill:#ffffff; stroke:none;" d="M956 784L958 787L956 784M967 789L968 790L967 789M1140 798L1140 801L1141 801L1140 798M980 799L981 800L980 799M990 806L991 809L995 806L990 806z" />
    <path style="fill:#231f21; stroke:none;" d="M1145 808L1146 809L1145 808z" />
    <path style="fill:#ffffff; stroke:none;" d="M1013 817L1013 820L1014 820L1013 817M1020 819L1021 820L1020 819M1146 823L1141 824L1141 829L1142 829L1142 825L1146 823M1033 856L1033 859L1034 859L1033 856M1035 857L1036 858L1035 857M1148.67 859.333L1149.33 859.667L1148.67 859.333M1145 866L1146 867L1145 866M1035 872L1036 873L1035 872M1027 890L1028 895L1031 892L1031 891L1027 890M1030.33 893.667L1030.67 894.333L1030.33 893.667M1141.33 898.667L1141.67 899.333L1141.33 898.667M1025.67 901.333L1026.33 901.667L1025.67 901.333z" />
    <path style="fill:#231f21; stroke:none;" d="M207 904C195.386 954.204 173.951 1003.51 156.692 1052C142.551 1091.73 131.946 1134.75 114.2 1173C110.931 1180.05 103.409 1185.59 98 1191L65 1224C60.0117 1228.99 48.065 1237.1 48.4174 1245C48.7065 1251.47 54.8283 1250.88 59 1248.53C63.8632 1245.79 76.4681 1232.99 81.8519 1234.46C85.8319 1235.55 84.7316 1241.12 84.196 1244C83.006 1250.4 74.2299 1279.95 87.8665 1277.58C94.1645 1276.48 97.0023 1252.62 98.196 1247C98.8031 1244.14 99.5267 1237.28 103.91 1237.92C107.528 1238.45 108.116 1244.21 108.561 1247C109.63 1253.7 107.944 1281.19 117.997 1280.33C128.672 1279.41 122.693 1256.86 123.04 1250C123.198 1246.88 124.069 1241.25 127.996 1240.63C133.24 1239.81 131.995 1250.16 132 1253C132.016 1263.19 132.679 1273.88 133.835 1284C134.377 1288.75 135.946 1293.23 141.891 1291.68C146.876 1290.37 145.998 1283.97 146 1280C146.005 1266.9 145.554 1254.98 148 1242C159.976 1251.74 150.605 1273.78 161.344 1283.57C174.811 1295.84 171.342 1267.36 170.975 1262C169.738 1243.88 162.42 1222.45 149.91 1209C145.417 1204.17 133.073 1196.11 133.078 1189C133.082 1182.16 137.306 1173.52 139.341 1167C143.589 1153.39 147.573 1139.68 151.576 1126C166.514 1074.93 182.479 1024.15 197.141 973C201.648 957.277 206.581 941.667 211.28 926C212.558 921.738 216.956 912.735 215.303 908.419C214.215 905.577 209.544 904.83 207 904z" />
    <path style="fill:#ffffff; stroke:none;" d="M1140.33 918.667L1140.67 919.333L1140.33 918.667M1016 919L1017 920L1016 919M1139.67 922.333L1140.33 922.667L1139.67 922.333z" />
    <path style="fill:#231f21; stroke:none;" d="M1006 940L1007 941L1006 940z" />
    <path style="fill:#ffffff; stroke:none;" d="M1128 956L1129 957L1128 956M1125 958L1126 959L1125 958z" />
    <path style="fill:#231f21; stroke:none;" d="M1129.33 962.667L1129.67 963.333L1129.33 962.667z" />
    <path style="fill:#ffffff; stroke:none;" d="M1123 970L1124 971L1123 970M999 979L1000 980L999 979z" />
    <path style="fill:#231f21; stroke:none;" d="M1124 981L1125 982L1124 981M1121.33 993.667L1121.67 994.333L1121.33 993.667z" />
    <path style="fill:#ffffff; stroke:none;" d="M991 995L992 996L991 995z" />
    <path style="fill:#231f21; stroke:none;" d="M987 999L988 1000L987 999z" />
    <path style="fill:#ffffff; stroke:none;" d="M985 1020L985 1023L986 1023L985 1020z" />
    <path style="fill:#231f21; stroke:none;" d="M979 1034L980 1035L979 1034z" />
    <path style="fill:#ffffff; stroke:none;" d="M1110 1034L1111 1035L1110 1034M1107 1052L1108 1053L1107 1052M1105 1089L1105 1091L1107 1091L1105 1089M971.667 1101.33L972.333 1101.67L971.667 1101.33M972 1103L973 1104L972 1103M967 1108L968 1109L967 1108z" />
    <path style="fill:#231f21; stroke:none;" d="M1183.02 1108.74C1170.12 1113.75 1172 1141.98 1172 1153C1172 1172.17 1175.6 1190.92 1176.91 1210C1178.74 1236.73 1179.44 1263.25 1181.93 1290C1183.77 1309.88 1189.67 1332.1 1186.56 1352C1183.51 1371.56 1172.82 1388.48 1166.75 1407C1162.93 1418.65 1163.49 1430.94 1162.96 1443C1162.4 1455.86 1161.87 1468.12 1163 1481C1163.31 1484.57 1163.44 1493.01 1167.26 1494.82C1172.36 1497.23 1173.94 1488 1174 1485C1174.22 1472.79 1174.62 1461.64 1183.3 1452.04C1187.64 1447.25 1193.96 1443.77 1200 1447.71C1218.53 1459.8 1215.09 1493.97 1215 1513C1214.98 1517.86 1213.28 1534.91 1222.89 1531.38C1230.73 1528.5 1228 1512.37 1228 1506C1228 1496.63 1230.35 1487.33 1229.96 1478C1229.34 1463.28 1225.68 1448.41 1222.8 1434C1215.79 1398.95 1216.41 1361.65 1211.72 1326C1206.98 1290 1197.56 1254.24 1195.09 1218C1194.22 1205.25 1197.04 1191.74 1197.91 1179C1198.57 1169.34 1198.15 1159.64 1199.29 1150C1200.32 1141.23 1203.24 1130.76 1201.67 1122C1200.24 1113.97 1191.81 1105.32 1183.02 1108.74z" />
    <path style="fill:#ffffff; stroke:none;" d="M970 1109L971 1110L970 1109M1099 1119L1103 1120L1104 1120L1104 1116L1099 1119M1100 1138L1099 1140L1101 1140L1100 1138M963 1140L969 1143L963 1140z" />
    <path style="fill:#231f21; stroke:none;" d="M1103 1142L1104 1143L1103 1142M957 1152L958 1153L957 1152M1103 1152L1104 1153L1103 1152z" />
    <path style="fill:#ffffff; stroke:none;" d="M957 1175L958 1176L957 1175M955 1189L955 1191L957 1191L955 1189M1095 1210L1093 1219C1097.16 1218.11 1097.19 1213.06 1095 1210M945 1229L946 1230L945 1229M1094 1242L1095 1243L1094 1242M1089.67 1275.33L1090.33 1275.67L1089.67 1275.33M936 1281L936 1283L939 1283L939 1281L936 1281z" />
    <path style="fill:#231f21; stroke:none;" d="M921 1326L921 1329L923 1326L921 1326M920 1330L920 1332L922 1330L920 1330M1087 1342L1088 1343L1087 1342M915.667 1351.33L916.333 1351.67L915.667 1351.33M1084 1357L1085 1358L1084 1357z" />
    <path style="fill:#ffffff; stroke:none;" d="M1081 1377L1082 1378L1081 1377M912 1385L913 1386L912 1385z" />
    <path style="fill:#231f21; stroke:none;" d="M906.667 1395.33L907.333 1395.67L906.667 1395.33M1080 1409L1081 1410L1080 1409z" />
    <path style="fill:#ffffff; stroke:none;" d="M1077 1411L1078 1412L1077 1411M906.667 1419.33L907.333 1419.67L906.667 1419.33z" />
    <path style="fill:#231f21; stroke:none;" d="M901 1422L902 1423L901 1422z" />
    <path style="fill:#ffffff; stroke:none;" d="M1077.67 1429.33L1078.33 1429.67L1077.67 1429.33M900 1434L901 1435L900 1434z" />
    <path style="fill:#231f21; stroke:none;" d="M168.667 1449.33L169.333 1449.67L168.667 1449.33z" />
    <path style="fill:#ffffff; stroke:none;" d="M897.333 1450.67L897.667 1451.33L897.333 1450.67M168 1453L169 1454L168 1453M176 1453L177 1456L176 1453M899 1454L900 1455L899 1454z" />
    <path style="fill:#231f21; stroke:none;" d="M188 1455L188 1456L191 1456L188 1455M1075 1464L1076 1465L1075 1464M236 1470L239 1474L243 1472L236 1470M1075 1470L1076 1471L1075 1470z" />
    <path style="fill:#ffffff; stroke:none;" d="M894 1471L894 1473L896 1471L894 1471z" />
    <path style="fill:#231f21; stroke:none;" d="M160 1475L161 1476L160 1475M157 1477L158 1478L157 1477z" />
    <path style="fill:#ffffff; stroke:none;" d="M261.667 1480.33L262.333 1480.67L261.667 1480.33z" />
    <path style="fill:#231f21; stroke:none;" d="M161 1481L162 1482L161 1481z" />
    <path style="fill:#ffffff; stroke:none;" d="M1072 1482L1073 1483L1072 1482M888 1484L889 1485L888 1484M283 1486L279 1487L279 1488L283 1486M286.667 1487.33L287.333 1487.67L286.667 1487.33M888 1487L889 1488L888 1487z" />
    <path style="fill:#231f21; stroke:none;" d="M302 1489L303 1490L302 1489z" />
    <path style="fill:#ffffff; stroke:none;" d="M293 1490L294 1491L293 1490z" />
    <path style="fill:#231f21; stroke:none;" d="M153 1499L154 1500L153 1499z" />
    <path style="fill:#ffffff; stroke:none;" d="M1069 1508L1070 1509L1069 1508M1065.33 1510.67L1065.67 1511.33L1065.33 1510.67M154 1512L155 1513L154 1512z" />
    <path style="fill:#231f21; stroke:none;" d="M878 1513L878 1515L881 1515L881 1513L878 1513z" />
    <path style="fill:#ffffff; stroke:none;" d="M880 1518L881 1519L880 1518M151 1526L152 1527L151 1526M151 1528L152 1529L151 1528M1059 1528L1059 1529L1062 1529L1059 1528M1061 1530L1062 1531L1061 1530z" />
    <path style="fill:#231f21; stroke:none;" d="M872 1533L873 1534L872 1533z" />
    <path style="fill:#ffffff; stroke:none;" d="M301 1537L302 1538L301 1537M152 1540L152 1542L154 1542L154 1540L152 1540M153 1546L153 1549L154 1549L153 1546M304 1546L303 1550L304 1546M307 1554L308 1555L307 1554M1060 1555L1061 1556L1060 1555M151 1559L151 1560L154 1560L151 1559M1054 1559L1054 1564L1058 1563L1058 1559L1054 1559z" />
    <path style="fill:#231f21; stroke:none;" d="M311 1561L312 1562L311 1561M1056 1561L1057 1562L1056 1561M857 1576L858 1577L857 1576z" />
    <path style="fill:#ffffff; stroke:none;" d="M326.667 1594.33L327.333 1594.67L326.667 1594.33M157 1596L158 1597L157 1596z" />
    <path style="fill:#231f21; stroke:none;" d="M157 1605L157 1607L159 1607L159 1605L157 1605z" />
    <path style="fill:#ffffff; stroke:none;" d="M853 1609L854 1610L853 1609M849 1619L849 1621L851 1621L851 1619L849 1619M847 1620L848 1621L847 1620M843 1623L846 1622L843 1623z" />
    <path style="fill:#231f21; stroke:none;" d="M839 1627L839 1629L841 1627L839 1627z" />
    <path style="fill:#ffffff; stroke:none;" d="M348 1628L348 1629L351 1629L348 1628M169 1630L170 1631L169 1630M361 1639L362 1640L361 1639z" />
    <path style="fill:#231f21; stroke:none;" d="M833 1639L834 1640L833 1639M170 1649L171 1650L170 1649z" />
    <path style="fill:#ffffff; stroke:none;" d="M828.667 1653.33L829.333 1653.67L828.667 1653.33M823 1666L823 1669L825 1669L825 1666L823 1666M826 1667L827 1668L826 1667z" />
    <path style="fill:#231f21; stroke:none;" d="M812 1675L811 1677L813 1677L812 1675z" />
    <path style="fill:#ffffff; stroke:none;" d="M413 1677L414 1678L413 1677M416 1684L417 1685L416 1684M424 1687L424 1692L425 1692L424 1687M1022 1688L1023 1689L1022 1688M805 1690L803 1691L803 1692L805 1690z" />
    <path style="fill:#231f21; stroke:none;" d="M445 1696L446 1697L445 1696z" />
    <path style="fill:#ffffff; stroke:none;" d="M447 1699L448 1700L447 1699M215 1714L216 1715L215 1714M1013 1715L1014 1716L1013 1715M470 1717L471 1718L470 1717z" />
    <path style="fill:#231f21; stroke:none;" d="M485 1721L485 1723L487 1723L485 1721M489.667 1724.33L490.333 1724.67L489.667 1724.33M214 1726L215 1727L214 1726z" />
    <path style="fill:#ffffff; stroke:none;" d="M497 1730L498 1731L497 1730M225 1733L226 1734L225 1733M495 1734L495 1735L499 1734L495 1734M1003.67 1733.33L1004.33 1733.67L1003.67 1733.33z" />
    <path style="fill:#231f21; stroke:none;" d="M515 1737L516 1738L515 1737z" />
    <path style="fill:#ffffff; stroke:none;" d="M745.333 1739.67L745.667 1740.33L745.333 1739.67M515.667 1741.33L516.333 1741.67L515.667 1741.33M232 1742L232 1744L234 1744L232 1742z" />
    <path style="fill:#231f21; stroke:none;" d="M524 1744L528 1743L524 1744z" />
    <path style="fill:#ffffff; stroke:none;" d="M725 1745L725 1746L728 1746L725 1745M715 1746L718 1749L715 1746M727 1747L728 1748L727 1747M537.333 1749.67L537.667 1750.33L537.333 1749.67M526 1750L527 1751L526 1750z" />
    <path style="fill:#231f21; stroke:none;" d="M233 1751L238 1755L238 1751L233 1751M563 1755L564 1756L563 1755z" />
    <path style="fill:#ffffff; stroke:none;" d="M541 1757L542 1758L541 1757M569 1758L570 1759L569 1758M658 1759L659 1760L658 1759M661 1759L661 1766L662 1766L666 1760L661 1759M598 1761L599 1762L598 1761M985.667 1766.33L986.333 1766.67L985.667 1766.33M272 1787L273 1788L272 1787M274 1788L275 1789L274 1788M280 1798L281 1799L280 1798M957 1802L957 1803L959 1806L960 1806L960 1802L957 1802M313 1820L312 1824L315 1824L313 1820z" />
    <path style="fill:#231f21; stroke:none;" d="M952 1820L953 1821L952 1820z" />
    <path style="fill:#ffffff; stroke:none;" d="M335 1838L333 1840L333 1841L334 1843L335 1838z" />
    <path style="fill:#231f21; stroke:none;" d="M933 1840L934 1841L933 1840z" />
    <path style="fill:#ffffff; stroke:none;" d="M922 1846L923 1847L922 1846M362 1863L363 1864L362 1863z" />
    <path style="fill:#231f21; stroke:none;" d="M901 1869L902 1870L901 1869M371 1873L372 1874L371 1873z" />
    <path style="fill:#ffffff; stroke:none;" d="M878 1880L879 1881L878 1880z" />
    <path style="fill:#231f21; stroke:none;" d="M384.333 1881.67L384.667 1882.33L384.333 1881.67z" />
    <path style="fill:#ffffff; stroke:none;" d="M877.667 1883.33L878.333 1883.67L877.667 1883.33z" />
    <path style="fill:#231f21; stroke:none;" d="M386 1884L387 1885L386 1884z" />
    <path style="fill:#ffffff; stroke:none;" d="M398 1887L398 1888L401 1888L398 1887z" />
    <path style="fill:#231f21; stroke:none;" d="M869 1888L870 1889L869 1888z" />
    <path style="fill:#ffffff; stroke:none;" d="M400 1889L401 1890L400 1889z" />
    <path style="fill:#231f21; stroke:none;" d="M869 1890L869 1892L871 1892L869 1890z" />
    <path style="fill:#ffffff; stroke:none;" d="M846 1900L845 1903L846 1900z" />
    <path style="fill:#231f21; stroke:none;" d="M415.667 1901.33L416.333 1901.67L415.667 1901.33z" />
    <path style="fill:#ffffff; stroke:none;" d="M825 1913L827 1915L827 1913L825 1913M456 1914L455 1916L456 1914M822 1914L823 1915L822 1914M455 1917L456 1918L455 1917M811 1918L812 1921L811 1918M795 1925L796 1926L795 1925M480 1927L478 1928L478 1929L480 1927M479 1930L480 1931L479 1930M482 1930L483 1931L482 1930M754 1937L755 1938L754 1937M757 1938L758 1939L757 1938M732 1943L731 1945L733 1945L732 1943M749 1944L750 1945L749 1944M535 1946L536 1947L535 1946M546 1949L547 1950L546 1949z" />
    <path style="fill:#231f21; stroke:none;" d="M728 1949L729 1950L728 1949z" />
    <path style="fill:#ffffff; stroke:none;" d="M552.333 1950.67L552.667 1951.33L552.333 1950.67M698 1951L699 1952L698 1951M673 1953L671 1958L674 1958L673 1953M688 1953L689 1954L688 1953M607.333 1954.67L607.667 1955.33L607.333 1954.67M628.667 1954.33L629.333 1954.67L628.667 1954.33z" />
    <path style="fill:#231f21; stroke:none;" d="M573 1956L574 1957L573 1956z" />
    <path style="fill:#ffffff; stroke:none;" d="M675 1956L676 1957L675 1956M612.667 1958.33L613.333 1958.67L612.667 1958.33z" />
    <path style="fill:#231f21; stroke:none;" d="M620 1959L621 1960L620 1959M646 1959L647 1960L646 1959z" />
</svg>
