<svg xmlns="http://www.w3.org/2000/svg">
    <symbol id="email" style="fill: var(--icon-color, currentColor);" viewBox="0 0 24 24">
        <path d="M0 0h24v24H0V0z" fill="none" />
        <path
            d="M22 6c0-1.1-.9-2-2-2H4c-1.1 0-2 .9-2 2v12c0 1.1.9 2 2 2h16c1.1 0 2-.9 2-2V6zm-2 0l-8 5-8-5h16zm0 12H4V8l8 5 8-5v10z" />
    </symbol>
    <symbol id="github" style="fill: var(--icon-color, currentColor);" viewBox="0 0 256 250"
        version="1.1" preserveAspectRatio="xMidYMid">
        <g>
            <path
                d="M128.00106,0 C57.3172926,0 0,57.3066942 0,128.00106 C0,184.555281 36.6761997,232.535542 87.534937,249.460899 C93.9320223,250.645779 96.280588,246.684165 96.280588,243.303333 C96.280588,240.251045 96.1618878,230.167899 96.106777,219.472176 C60.4967585,227.215235 52.9826207,204.369712 52.9826207,204.369712 C47.1599584,189.574598 38.770408,185.640538 38.770408,185.640538 C27.1568785,177.696113 39.6458206,177.859325 39.6458206,177.859325 C52.4993419,178.762293 59.267365,191.04987 59.267365,191.04987 C70.6837675,210.618423 89.2115753,204.961093 96.5158685,201.690482 C97.6647155,193.417512 100.981959,187.77078 104.642583,184.574357 C76.211799,181.33766 46.324819,170.362144 46.324819,121.315702 C46.324819,107.340889 51.3250588,95.9223682 59.5132437,86.9583937 C58.1842268,83.7344152 53.8029229,70.715562 60.7532354,53.0843636 C60.7532354,53.0843636 71.5019501,49.6441813 95.9626412,66.2049595 C106.172967,63.368876 117.123047,61.9465949 128.00106,61.8978432 C138.879073,61.9465949 149.837632,63.368876 160.067033,66.2049595 C184.49805,49.6441813 195.231926,53.0843636 195.231926,53.0843636 C202.199197,70.715562 197.815773,83.7344152 196.486756,86.9583937 C204.694018,95.9223682 209.660343,107.340889 209.660343,121.315702 C209.660343,170.478725 179.716133,181.303747 151.213281,184.472614 C155.80443,188.444828 159.895342,196.234518 159.895342,208.176593 C159.895342,225.303317 159.746968,239.087361 159.746968,243.303333 C159.746968,246.709601 162.05102,250.70089 168.53925,249.443941 C219.370432,232.499507 256,184.536204 256,128.00106 C256,57.3066942 198.691187,0 128.00106,0 Z M47.9405593,182.340212 C47.6586465,182.976105 46.6581745,183.166873 45.7467277,182.730227 C44.8183235,182.312656 44.2968914,181.445722 44.5978808,180.80771 C44.8734344,180.152739 45.876026,179.97045 46.8023103,180.409216 C47.7328342,180.826786 48.2627451,181.702199 47.9405593,182.340212 Z M54.2367892,187.958254 C53.6263318,188.524199 52.4329723,188.261363 51.6232682,187.366874 C50.7860088,186.474504 50.6291553,185.281144 51.2480912,184.70672 C51.8776254,184.140775 53.0349512,184.405731 53.8743302,185.298101 C54.7115892,186.201069 54.8748019,187.38595 54.2367892,187.958254 Z M58.5562413,195.146347 C57.7719732,195.691096 56.4895886,195.180261 55.6968417,194.042013 C54.9125733,192.903764 54.9125733,191.538713 55.713799,190.991845 C56.5086651,190.444977 57.7719732,190.936735 58.5753181,192.066505 C59.3574669,193.22383 59.3574669,194.58888 58.5562413,195.146347 Z M65.8613592,203.471174 C65.1597571,204.244846 63.6654083,204.03712 62.5716717,202.981538 C61.4524999,201.94927 61.1409122,200.484596 61.8446341,199.710926 C62.5547146,198.935137 64.0575422,199.15346 65.1597571,200.200564 C66.2704506,201.230712 66.6095936,202.705984 65.8613592,203.471174 Z M75.3025151,206.281542 C74.9930474,207.284134 73.553809,207.739857 72.1039724,207.313809 C70.6562556,206.875043 69.7087748,205.700761 70.0012857,204.687571 C70.302275,203.678621 71.7478721,203.20382 73.2083069,203.659543 C74.6539041,204.09619 75.6035048,205.261994 75.3025151,206.281542 Z M86.046947,207.473627 C86.0829806,208.529209 84.8535871,209.404622 83.3316829,209.4237 C81.8013,209.457614 80.563428,208.603398 80.5464708,207.564772 C80.5464708,206.498591 81.7483088,205.631657 83.2786917,205.606221 C84.8005962,205.576546 86.046947,206.424403 86.046947,207.473627 Z M96.6021471,207.069023 C96.7844366,208.099171 95.7267341,209.156872 94.215428,209.438785 C92.7295577,209.710099 91.3539086,209.074206 91.1652603,208.052538 C90.9808515,206.996955 92.0576306,205.939253 93.5413813,205.66582 C95.054807,205.402984 96.4092596,206.021919 96.6021471,207.069023 Z"
            ></path>
        </g>
    </symbol>
    <symbol id="linkedin" style="fill: var(--icon-color, currentColor);" viewBox="0 0 256 256"
        preserveAspectRatio="xMidYMid">
        <g>
            <path
                d="M218.123122,218.127392 L180.191928,218.127392 L180.191928,158.724263 C180.191928,144.559023 179.939053,126.323993 160.463756,126.323993 C140.707926,126.323993 137.685284,141.757585 137.685284,157.692986 L137.685284,218.123441 L99.7540894,218.123441 L99.7540894,95.9665207 L136.168036,95.9665207 L136.168036,112.660562 L136.677736,112.660562 C144.102746,99.9650027 157.908637,92.3824528 172.605689,92.9280076 C211.050535,92.9280076 218.138927,118.216023 218.138927,151.114151 L218.123122,218.127392 Z M56.9550587,79.2685282 C44.7981969,79.2707099 34.9413443,69.4171797 34.9391618,57.260052 C34.93698,45.1029244 44.7902948,35.2458562 56.9471566,35.2436736 C69.1040185,35.2414916 78.9608713,45.0950217 78.963054,57.2521493 C78.9641017,63.090208 76.6459976,68.6895714 72.5186979,72.8184433 C68.3913982,76.9473153 62.7929898,79.26748 56.9550587,79.2685282 M75.9206558,218.127392 L37.94995,218.127392 L37.94995,95.9665207 L75.9206558,95.9665207 L75.9206558,218.127392 Z M237.033403,0.0182577091 L18.8895249,0.0182577091 C8.57959469,-0.0980923971 0.124827038,8.16056231 -0.001,18.4706066 L-0.001,237.524091 C0.120519052,247.839103 8.57460631,256.105934 18.8895249,255.9977 L237.033403,255.9977 C247.368728,256.125818 255.855922,247.859464 255.999,237.524091 L255.999,18.4548016 C255.851624,8.12438979 247.363742,-0.133792868 237.033403,0.000790807055"
            ></path>
        </g>
    </symbol>
    <symbol id="resume" style="fill: var(--icon-color, currentColor);" viewBox="0 0 100 100">
        <path
            d="M45.37,31c1.32,0,2.61-0.53,3.54-1.47c0.93-0.92,1.46-2.21,1.46-3.53c0-1.32-0.53-2.6-1.46-3.54   C47.98,21.53,46.69,21,45.37,21c-1.32,0-2.61,0.53-3.54,1.46c-0.93,0.94-1.46,2.23-1.46,3.54c0,1.32,0.53,2.6,1.46,3.53   C42.76,30.47,44.05,31,45.37,31z"></path>
        <path
            d="M36,44.5h18.737c0.007,0.001,0.015,0,0.02,0c2.762,0,5-2.239,5-5c0-1.966-1.135-3.667-2.785-4.484   c-1.374-0.772-5.805-2.975-11.601-2.975c-6.624,0-11.47,2.878-12,3.207c-1.901,1.175-2.791,3.47-2.18,5.619   C31.801,43.017,33.765,44.5,36,44.5z"></path>
        <path
            d="M85.401,23.521c-0.029-0.148-0.085-0.285-0.127-0.428c-0.05-0.169-0.089-0.341-0.157-0.505   c-0.069-0.169-0.165-0.322-0.253-0.481c-0.069-0.126-0.125-0.258-0.206-0.379c-0.184-0.275-0.392-0.532-0.624-0.765L70.037,6.966   c-0.232-0.233-0.489-0.441-0.764-0.625C69.15,6.26,69.018,6.204,68.89,6.134c-0.157-0.087-0.31-0.182-0.478-0.251   c-0.161-0.067-0.33-0.105-0.496-0.154c-0.146-0.043-0.286-0.1-0.438-0.13c-0.307-0.061-0.618-0.091-0.93-0.094   c-0.017,0-0.032-0.005-0.049-0.005h-47c-2.761,0-5,2.239-5,5v78c0,2.762,2.239,5,5,5h61c2.762,0,5-2.238,5-5v-64   C85.5,24.172,85.466,23.844,85.401,23.521z M75.5,83.5h-51v-68h37v9c0,2.761,2.238,5,5,5h9V83.5z"></path>
        <path
            d="M35.5,50.5c-2.761,0-5,2.238-5,5s2.239,5,5,5h29c2.762,0,5-2.238,5-5s-2.238-5-5-5H35.5z"></path>
        <path
            d="M64.5,66.5h-29c-2.761,0-5,2.238-5,5s2.239,5,5,5h29c2.762,0,5-2.238,5-5S67.262,66.5,64.5,66.5z"></path>
    </symbol>
    <symbol id="hack4impact" style="fill: var(--icon-color, currentColor);" viewBox="0 0 100 100">
        <path
            d="m0 16.6481v16.648h2.47486 2.47487v-14.1732-14.17315h14.17317 14.1732v-2.47487-2.47486093h-16.6481-16.648z"
            fill="#657788" />
        <path
            d="m100 83.3521v-16.6481h-2.4749-2.4748v14.1732 14.1732h-14.1732-14.1732v2.4748 2.4748h16.6481 16.648z"
            fill="#657788" />
        <path
            d="m83.5803 50.1813c0 18.5188-15.0394 33.5312-33.5913 33.5312s-33.5912-15.0124-33.5912-33.5312 15.0393-33.5313 33.5912-33.5313 33.5913 15.0125 33.5913 33.5313z"
            fill="#80d2c8" />
        <path clip-rule="evenodd"
            d="m47.1083 16.7716c-16.9264 1.4351-30.2746 15.3991-30.7001 32.5644-.0009.2018-.0015.4287-.0015.6797.001.4851.0022.8505.0045 1.1228.0068.2419.0161.4832.028.7238.0034.0061.0071.0056.0112 0 .0218-.0281.053-.0531.0686-.0531s.1217.0624.2371.1373c.1154.0748.2651.1466.3275.159.1684.0281.9108.2465 1.2414.3588 1.3631.4741 2.1148.9232 2.355 1.4129.1403.2901.1871.5116.2183 1.0637.053.8858.0749 1.0262.2059 1.2383.1403.2245.2869.2838.839.3399.496.05.7767.1466 1.6158.5646.9794.4866 1.2289.5646 1.9089.602 1.0542.0593 1.6562.1529 2.4766.3805 1.2133.34 2.0337.8048 2.3425 1.3226.0343.0561.0436.1684.0436.4055-.0031.2807-.0187.368-.1029.6176-.1934.5676-.4772 1.0917-1.2196 2.2551-.6581 1.0262-.7517 1.2976-1.0137 2.8665-.1747 1.0543-.3244 1.6188-.602 2.277-.3805.8983-.9326 1.5907-1.2695 1.5907-.496 0-1.4754.6831-1.9089 1.3319-.2152.3213-.2683.4461-.2246.5303.0218.0405.0499.0717.0655.0717.0125 0 .025.0156.025.0312 0 .0187.0311.0686.0717.1092.0374.0405.106.1185.1528.1778.0468.0561.1154.1372.1497.1778.0344.0436.0562.0967.0468.1185-.0062.0249 0 .0343.0156.0249.0406-.0249.3463.2995.3275.3494-.0062.0249.0063.0312.0375.0187.0405-.0156.0468-.0062.0312.0343-.0125.0312-.0094.0468.0093.0343s.053.0031.0811.0281c.025.0281.0406.0499.0312.0499-.0093 0 .0718.0936.184.209.1123.1185.1965.2308.1872.2526-.0094.025 0 .0312.0187.0188.0187-.0125.1684.1216.3431.3025.1716.1778.3244.3369.34.3556.0437.0405.2463.2432.2745.2713v.0001c.0065.0065.052.0503.1193.1151.0618.0594.1418.1365.2269.2186.1809.1747.315.3244.3026.3431-.0125.0187-.0063.0281.0187.0187.0218-.0093.1341.0749.2526.1872.1154.1123.209.1934.209.184 0-.0093.0219.0062.0499.0312.025.0281.0406.0624.0281.0811s.0031.0218.0343.0094c.0406-.0156.0499-.0094.0343.0311-.0125.0312-.0062.0437.0187.0375.0499-.0187.3743.2869.3494.3275-.0094.0156 0 .0218.0249.0156.0219-.0094.0749.0125.1186.0468.0405.0343.1216.1029.1777.1497.0593.0468.1373.1154.1778.1528.0406.0406.0843.0718.0936.0718.0094 0 .0499.028.0874.0655.0374.0374.1185.1029.1777.1466.0593.0468.1591.131.2184.184.0592.0561.1185.1029.1341.1029.0125 0 .0655.0437.1217.0936.053.053.1091.0936.1216.0936s.0593.0343.1029.078c.0437.0436.0936.0779.1123.0779.0156 0 .0312.0094.0312.0219 0 .0156.053.0592.1154.1029s.1466.1092.1841.1466c.0405.0406.0873.0717.106.0717.0156 0 .0312.0156.0312.0344 0 .0156.0125.0249.0281.0156.0124-.0094.0499.0093.0811.0436s.0748.0624.0998.0624c.0249 0 .0343.0125.0249.0312-.0093.0187.0032.0312.0281.0312.0281 0 .0499.0125.0499.0312 0 .0156.0218.0312.0468.0312s.078.0343.1216.078c.0437.0436.0936.0779.1123.0779.0156 0 .0312.0125.0312.0312 0 .0156.0219.0312.0468.0312.025 0 .0468.0094.0468.0218 0 .0156.0717.0655.156.1186.0873.0499.1559.1029.1559.1154s.0219.0249.0468.0249c.025 0 .0468.0125.0468.025 0 .0156.0561.053.1248.0873.0686.0312.1247.0686.1247.0811 0 .0156.0156.025.0312.025.0187 0 .0593.0249.0936.053.0312.0312.1123.0842.1778.1185s.1403.0842.1653.1092c.0249.025.106.0749.1778.1092.0748.0343.1341.0717.1341.0842 0 .0156.0218.0249.0468.0249s.0468.0125.0468.0312c0 .0156.0218.0312.0499.0312.0249 0 .0374.0125.0281.0312-.0094.0156.0031.0312.0312.0312.0249 0 .1029.0343.1715.078s.1373.078.156.078c.0156 0 .0312.0124.0312.0312 0 .0156.0218.0311.0467.0311.025 0 .0468.0094.0468.0219 0 .0156.0624.053.1404.0873s.1404.0718.1404.0842c0 .0156.0218.025.0467.025.025 0 .0468.0125.0468.0312 0 .0156.0219.0312.0468.0312.025 0 .0468.0124.0468.0312 0 .0156.0218.0312.0499.0312.0562 0 .2402.0966.2558.131.0062.0156.0312.0249.0561.0249.025 0 .0437.0094.0437.025 0 .0249.2277.131.2807.131.0187 0 .0312.0124.0312.0312 0 .0156.0218.0312.0468.0312.0249 0 .0468.0124.0468.0311 0 .0156.0281.0312.0624.0312s.0624.0125.0624.0312c0 .0156.0218.0312.0467.0312.025 0 .0468.0125.0468.0312 0 .0156.0219.0312.0468.0312.053 0 .3681.1591.3837.1934.0062.0156.0374.0249.0717.0249.0312 0 .0593.0156.0593.0344 0 .0155.0124.0249.0249.0155.0156-.0093.0718.0125.1248.0468.0561.0312.1216.0593.1466.0593.0249 0 .0468.0125.0468.0312 0 .0156.0312.0312.0686.0312s.0561.0093.0468.0218c-.0218.0187.1372.0905.2838.1248.0375.0093.0687.0281.0687.0437 0 .0155.028.028.0623.028s.0624.0125.0624.0312c0 .0156.0281.0312.0624.0312s.0624.0125.0624.0312c0 .0156.0218.0312.0468.0312.0249 0 .1185.0343.209.078.0873.0436.1809.0779.2027.0779.025 0 .0343.0125.025.0312-.0125.0188.0155.0312.0592.0312s.0811.0125.0811.0312c0 .0156.0218.0312.0499.0312.0468 0 .2059.0624.3307.1279.0311.0156.0779.0281.1029.0281.0249 0 .0468.0124.0468.0312 0 .0156.0374.0312.0811.0312.0436 0 .0717.0124.0592.0311-.0093.0188.0125.0312.0531.0312.0405 0 .1122.0219.1622.0468.0467.025.1154.0468.1466.0468.0343 0 .0592.0125.0592.0312 0 .0156.0374.0312.0811.0312s.0718.0125.0593.0312.0156.0312.0592.0312c.0437 0 .0811.0125.0811.028 0 .0156.0562.0344.1248.0468.0717.0094.156.0343.1872.0499.0171.0094.0397.0203.0623.0312.0227.011.0453.0219.0624.0312.0343.0156.0905.0312.1248.0312.0374 0 .0561.0125.0468.0312-.0125.0187.0218.0312.0748.0312.0531 0 .0967.0125.0967.0281s.0624.0374.1404.0468c.0749.0124.1466.0343.1559.053.0125.0156.0531.0281.0967.0281.0406 0 .0749.0124.0749.0312 0
 .0155.0437.0311.0936.0311.053 0 .0936.0125.0936.0312 0 .0156.0436.0312.0935.0312.0531 0 .0936.0125.0936.0281s.0717.0374.156.0499c.0873.0125.1559.0343.1559.0499s.0437.0281.0936.0281c.053 0 .0936.0125.0936.0312 0 .0156.0499.0312.1123.0312.0655 0 .1029.0124.0904.0312-.0125.0187.0218.0312.0842.0312.0562.0031.1591.0218.2277.0467.0686.025.156.0468.1965.0468.0375 0 .0687.0125.0687.0312 0 .0156.0499.0312.1091.0312.0593 0 .1092.0125.1092.0312 0 .0156.0499.0312.1123.0312.0592 0 .1029.0125.0936.0281-.0094.0156.0717.0374.184.0499.1123.0093.209.0343.2183.0499.0125.0156.0655.028.1248.028s.1154.0125.1248.0312c.0093.0156.0686.0312.1278.0312.0593 0 .1061.0125.1061.0312 0 .0156.0561.0312.1248.0312.0686 0 .1247.0125.1247.0281s.1123.0374.2496.0499c.1372.0125.2495.0343.2495.0499s.0624.0281.1404.0281c.0779 0 .1403.0124.1403.0312 0 .0156.0624.0312.1404.0312s.1403.0124.1403.0311c0 .0156.0718.0312.1591.0312.0842 0 .1497.0125.1404.0281-.0094.0156.1279.0374.3088.0499s.3368.0343.3462.0499.0842.0281.1716.0281c.0842 0 .1528.0125.1528.0312s.0873.0312.2027.0312.2028.0125.2028.0312.0873.0312.2027.0312c.1123 0 .2028.0124.2028.028s.2183.0375.4834.0499c.2652.0125.4929.0343.5022.0499.0094.0156.156.0281.3275.0281.1841 0 .3088.0125.3088.0312s.1685.0312.4461.0312c.2963 0 .4273.0094.3961.0312-.0312.0187.6114.0312 1.8403.0312 1.229 0 1.8715-.0125 1.8403-.0312-.0312-.0218.0998-.0312.3993-.0312.2744 0 .4429-.0125.4429-.0312s.1247-.0312.3088-.0312c.1715 0 .3181-.0125.3275-.0281.0093-.0156.237-.0374.5022-.0499.2651-.0124.4834-.0343.4834-.0499s.0905-.028.2028-.028c.1154 0 .2027-.0125.2027-.0312s.0874-.0312.2028-.0312.2027-.0125.2027-.0312.0686-.0312.1528-.0312c.0874 0 .1622-.0125.1716-.0281s.1653-.0374.3462-.0499.3182-.0343.3088-.0499c-.0093-.0156.0562-.0281.1404-.0281.0873 0 .1591-.0156.1591-.0312 0-.0187.0623-.0311.1403-.0311s.1404-.0156.1404-.0312c0-.0188.0624-.0312.1403-.0312.078 0 .1404-.0125.1404-.0281s.1123-.0374.2495-.0499c.1373-.0125.2496-.0343.2496-.0499s.0655-.0281.1435-.0281c.0842 0 .1341-.0125.1216-.0312s.025-.0312.0905-.0312c.0592 0 .1185-.0156.1278-.0312.0094-.0187.0655-.0312.1248-.0312s.1123-.0124.1248-.028c.0093-.0156.106-.0406.2183-.0499.1123-.0125.1934-.0343.184-.0499-.0093-.0156.0344-.0281.0936-.0281.0624 0 .1123-.0156.1123-.0312 0-.0187.0499-.0312.1092-.0312.0592 0 .1091-.0156.1091-.0312 0-.0187.0312-.0312.0718-.0312.0374 0 .1248-.0218.1934-.0468.0686-.0249.1715-.0436.2277-.0467.0624 0 .0967-.0125.0842-.0312-.0125-.0188.0249-.0312.0904-.0312.0624 0 .1123-.0156.1123-.0312 0-.0187.0437-.0312.0936-.0312.053 0 .0936-.0125.0936-.0281 0-.0218.1185-.053.2869-.078.0094-.0031.0312-.0124.0437-.0249.0125-.0156.0562-.025.0967-.025.0406 0 .0718-.0156.0718-.0312 0-.0187.0436-.0312.0935-.0312.053 0 .0936-.0156.0936-.0311 0-.0188.0343-.0312.0749-.0312.0436 0 .0842-.0125.0967-.0281.0093-.0187.0811-.0406.1559-.053.078-.0094.1404-.0312.1404-.0468s.0436-.0281.0967-.0281c.053 0 .0873-.0125.0748-.0312s.0219-.0312.0749-.0312.0967-.0156.0967-.0312c0-.0187.028-.0312.0592-.0312.0344 0 .0687-.0124.0811-.028.0094-.0188.0811-.0406.156-.0531.078-.0093.1404-.0312.1404-.0468 0-.0155.0374-.028.0811-.028.0436 0 .0717-.0125.0592-.0312s.0156-.0312.0593-.0312.0811-.0156.0811-.0312c0-.0187.0249-.0312.0592-.0312.0312 0 .0999-.0218.1466-.0468.05-.0249.1217-.0468.1622-.0468.0406 0 .0624-.0124.0531-.0312-.0125-.0187.0156-.0311.0592-.0311.0437 0 .0811-.0156.0811-.0312 0-.0188.0219-.0312.0468-.0312.025 0 .0718-.0125.1029-.0281.1248-.0655.2839-.1279.3307-.1279.028 0 .0499-.0156.0499-.0312 0-.0187.0343-.0312.0748-.0312.0406 0 .0811-.0124.0874-.0249.0156-.0375.3618-.1934.4304-.1934.0343 0 .0624-.0156.0624-.0312 0-.0187.0281-.0312.0655-.0312.0343 0 .053-.0125.0437-.0312-.0094-.0187.0093-.0312.0436-.0312.0375 0 .0655-.0125.0655-.028 0-.0156.0312-.0344.0718-.0437.1435-.0343.3025-.1061.2807-.1248-.0093-.0125.0094-.0218.0468-.0218s.0686-.0156.0686-.0312c0-.0187.0219-.0312.0468-.0312.025 0 .0905-.0281.1466-.0593.053-.0343.1092-.0561.1248-.0468.0124.0094.0249 0 .0249-.0155 0-.0188.0281-.0344.0593-.0344.0343 0 .0655-.0093.0717-.0249.0156-.0343.3307-.1934.3837-.1934.0249 0 .0468-.0156.0468-.0312 0-.0187.0218-.0312.0468-.0312.0249 0 .0467-.0156.0467-.0312 0-.0187.0281-.0312.0624-.0312s.0624-.0156.0624-.0312c0-.0187.0219-.0311.0468-.0311.025 0 .0468-.0125.0468-.0281s.0405-.0374.0936-.0499c.0499-.0125.0998-.0343.1091-.0499.0125-.0156.0468-.0281.0811-.0281s.0531-.0125.0437-.0312c-.0094-.0156.0031-.0312.0281-.0312.028 0 .0499-.0125.0499-.0249 0-.0125.0717-.0499.1559-.0843.0874-.0343.156-.0717.156-.0842s.0281-.0249.0655-.0249c.0343 0 .053-.0156.0437-.0312-.0094-.0187.0031-.0312.028-.0312.0281 0 .0499-.0094.0499-.025 0-.0124.0624-.0499.1404-.0842s.1404-.0717.1404-.0873c0-.0125.0218-.0219.0468-.0219.0249 0 .0467-.0155.0467-.0311 0-.0188.0281-.0312.0624-.0312s.0624-.0094.0624-.025c0-.0281.1778-.131.2308-.131.0187 0 .0562-.0281.0811-.0624.025-.0343.0624-.0624.0842-.0624.0219 0 .0406-.0124.0406-.028 0-.025.1154-.0749.1653-.0687.0125.0032.0218-.0124.0218-.028 0-.0187.0156-.0312.0344-.0312.0218 0 .0592-.025.0873-.0562.0281-.028.106-.0811.1747-.1154.0686-.0343.1466-.0873.1746-.1185.0281-.0281.0655-.053.0874-.053.0187 0 .0343-.0094.0343-.025 0-.0125.0561-.0499.1247-.0811.0687-.0343.1248-.0717.1248-.0873 0-.0125.0156-.025.0312-.025.0187 0 .0624-.0249.0967-.0592.0343-.0312.1154-.0842.1778-.1154.0624-.0343.1372-.0843.1653-.1154.0281-.0281.0624-.0531.078-.0531s.0499-.028.0748-.0592c.0219-.0343.0531-.0562.0687-.0468.0124.0093.0249 0 .0249-.0156 0-.0187.0218-.0343.0468-.0343s.0468-.0156.0468-.0312c0-.0187.0218-.0312.0499-.0312.0249 0 .0374-.0156.0281-.0312-.0094-.0187 0-.0312.0249-.0312.0219 0 .0718-.0281.1061-.0593.0374-.0343.0748-.053.0842-.0436.0093.0125.0187.0031.0187-.0156 0-.0219.0156-.0375.0312-.0375.0187 0 .0749-.0405.131-.0935.053-.0499.1092-.0936.1216-.0936.0125 0 .0593-.0343.103-.078.0436-.0436.0873-.078.0967-.078.0093 0 .053-.0343.0967-.0779.0436-.0437.0904-.078.1029-.078s.0686-.0437.1216-.0936c.0562-.053.1092-.0936.1217-.0936.0156 0 .0873-.0561.1591-.1247.0748-.0687.1466-.1248.1559-.1248.0125 0 .0811-.0561.156-.1248.0717-.0686.1372-.1247.1466-.1247.0093 0 .053-.0312.0936-.0718.0405-.0374.1185-.106.1778-.1528.0561-.0468.1372-.1154.1777-.1497.0437-.0343.0967-.0562.1186-.0468.0249.0062.0343 0 .0249-.0156-.0218-.0374.2901-.3306.3462-.3244.0219.0031.0312-.0156.0188-.0437-.0125-.0343-.0032-.0436.0374-.028.0312.0124.0468.0093.0343-.0094-.0218-.0374.0624-.131.0905-.1029.0093.0124.0187.0031.0187-.0156 0-.0219.0156-.0375.0343-.0375s.0904-.0623.1622-.1403c.0686-.078.1435-.1373.1653-.1279.0281.0094.0343 0 .0218-.0343-.0156-.0374-.0062-.0468.0312-.0312.0375.0125.0437.0062.0312-.0312-.0156-.0405-.0062-.0468.0343-.0312.0343.0125.0468.0094.0312-.0125-.0156-.0249.34-.3961.5864-.6082.0218-.0187.0624-.0655.0874-.0998.0311-.0499.0499-.0562.0686-.0281.0156.025.0249.0125.0249-.0343 0-.0405.0125-.0655.025-.0561.0156.0093.0468-.0125.0717-.0499.0842-.1217.2059-.2402.2277-.2215.0094.0093.0187.0031.0187-.0187 0-.0593.3338-.3868.3712-.365.0218.0156.025.0032.0125-.0312-.0156-.0405-.0094-.0499.0312-.0343.0374.0125.0436.0063.0312-.0312-.0156-.0374-.0063-.0467.0312-.0311.0343.0124.0436.0062.0343-.0219-.0094-.0249.0187-.0717.0624-.106.0436-.0343.0811-.078.0811-.0998 0-.0188.0155-.025.0311-.0156.0188.0093.0312.0031.0312-.0188 0-.0187.0312-.0623.0687-.0935.0343-.0343.0561-.0593.0436-.0593-.0124 0 0-.0218.025-.0499.0281-.025.0624-.0406.0811-.0281s.0218-.0031.0093-.0343c-.0156-.0437-.0093-.0499.0343-.0343.0344.0125.0468.0094.0344-.0125-.0125-.0156.0156-.0655.0592-.106.0437-.0406.0811-.0905.0811-.1092s.0156-.0249.0312-.0156c.0187.0094.0312.0031.0312-.0156 0-.053.0873-.131.1248-.1092.0156.0094.0218 0 .0124-.0249-.0093-.025.0188-.0811.0624-.1248.0437-.0468.0811-.0904.0811-.0998 0-.0093.0312-.0499.0718-.0904.0374-.0406.0873-.103.1123-.1373.0249-.0374.0561-.0593.0717-.0499.0125.0094.025-.0156.025-.0561 0-.0562.0062-.0624.0311-.025.025.0406.0312.0374.0312-.0125 0-.0312.0343-.0904.078-.131.0437-.0405.078-.0873.078-.106s.0156-.025.0312-.0156c.0187.0093.0312-.0094.0312-.0468s.0156-.0561.0312-.0468c.0187.0094.0312-.0031.0312-.0281 0-.0249.0343-.0717.0779-.106.0437-.0343.078-.0842.078-.1154 0-.0281.0156-.0406.0312-.0312.0187.0093.0312-.0031.0312-.0343 0-.0406.0094-.0437.0437-.0156.0374.0312.0405.0249.028-.025-.0093-.0436 0-.0717.0343-.0842.0281-.0093.05-.0405.05-.0655 0-.0561.0779-.1372.106-.1123.0094.0125.0187-.0125.0187-.0499s.0125-.0593.0312-.0499.0312.0031.0312-.0156c0-.053.1123-.1903.1372-.1653.0094.0093.0188-.0062.0188-.0406 0-.0343.028-.0811.0623-.106.0344-.025.0624-.0624.0624-.0842 0-.0219.0156-.0406.0343-.0406.0156 0 .025-.0124.0156-.0249-.0093-.0156.0125-.0468.0468-.0687.0312-.0249.0593-.0717.0593-.1029s.0156-.0468.0312-.0374c.0187.0093.0312-.0031.0312-.0343 0-.0406.0093-.0437.0436-.0156s.0375.0218.0281-.0406c-.0093-.0499.0094-.0967.0655-.1528.0437-.0437.0811-.0967.0811-.1154 0-.0156.0156-.0312.0312-.0312.0187 0 .0312-.0218.0312-.0499 0-.025.0125-.0406.0281-.0312s.0374-.0156.0467-.0593c.0125-.0436.0344-.0779.05-.0779.0187 0 .0311-.0219.0311-.05 0-.0249.0156-.0374.0312-.028.0188.0093.0312-.0094.0312-.0437 0-.0374.0156-.0655.0312-.0655.0187 0 .0312-.0218.0312-.0499 0-.025.0125-.0405.0281-.0312.0156.0094.0374-.0156.0468-.0593.0125-.0436.0343-.0779.0499-.0779.0187 0 .0312-.0281.0312-.0655 0-.0343.0156-.0531.0312-.0437.0187.0094.0312-.0125.0312-.053 0-.0562.0062-.0624.0312-.025.0249.0374.0311.0343.0311-.0187 0-.0374.0219-.0842.0468-.106.025-.0219.0468-.0593.0468-.0843 0-.028.0187-.0405.0406-.0312.0311.0125.0405-.0062.0312-.0655-.0125-.0655-.0063-.0748.0187-.0374.028.0374.0343.0343.0343-.0249 0-.0375.0125-.0687.0281-.0687.0155 0 .0374-.0343.0467-.0779.0125-.0437.0344-.078.0499-.078.0188 0 .0312-.0281.0312-.0624s.0156-.0624.0312-.0624c.0187 0 .0312-.0218.0312-.0499 0-.0249.0156-.0374.0312-.0281.0187.0094.0312-.0093.0312-.0468 0-.0374.0156-.0561.0312-.0467.0187.0093.0312-.0094.0312-.0468 0-.0343.0218-.0718.0468-.0811.0249-.0125.0468-.0468.0468-.078s.0156-.0593.0312-.0593c.0187 0
 .0311-.028.0311-.0655 0-.0343.0156-.053.0312-.0436.0188.0093.0312-.0094.0312-.0468 0-.0375.0156-.0562.0312-.0468.0187.0093.0312-.0094.0312-.0437s.0218-.0811.0468-.1092c.025-.0249.0468-.0717.0468-.1029 0-.0468.0062-.0499.0312-.0093.0249.0374.0312.028.0312-.0406 0-.0499.0124-.0811.0312-.0686.0187.0093.0312-.0094.0312-.0437 0-.0374.0155-.0655.0311-.0655.0188 0 .0312-.0281.0312-.0592 0-.0344.0219-.0811.0468-.1092.025-.025.0468-.0686.0468-.0967s.0156-.0406.0312-.0312c.0187.0094.0312-.0094.0312-.0468s.0156-.0561.0312-.0468c.0187.0094.0312-.0093.0312-.0436 0-.0375.0124-.0655.028-.0655s.0375-.05.0468-.1092c.0125-.0593.0343-.1092.0499-.1092.0188 0 .0312-.0218.0312-.0468 0-.0249.0156-.0468.0312-.0468.0187 0 .0312-.028.0312-.0655 0-.0343.0156-.053.0312-.0436.0187.0093.0312-.0032.0312-.0312 0-.0281.0218-.0718.0468-.0967.0249-.0281.0468-.0749.0468-.1092 0-.0312.0156-.0593.0312-.0593.0187 0 .0312-.028.0312-.0623s.0156-.0624.0311-.0624c.0188 0 .0312-.0281.0312-.0655 0-.0343.0156-.053.0312-.0437.0187.0125.0312-.0156.0312-.0593 0-.0436.0156-.0811.0343-.0811.0156 0 .0219-.0124.0125-.0311-.0093-.0188-.0031-.0312.0125-.0312.0187 0 .0343-.0281.0343-.0624s.0156-.0624.0312-.0624c.0187 0 .0312-.0374.0312-.0873 0-.0655.0062-.0749.0312-.0375.0218.0343.0312.0187.0312-.0623 0-.0811.0093-.0967.0312-.0624.0249.0374.0311.028.0311-.0375 0-.0467.0219-.1029.0468-.131.0281-.0249.0499-.0561.0468-.0655-.0062-.0967.0063-.1403.0312-.1247.0187.0124.0312-.0156.0312-.0624s.0125-.0749.0312-.0624.0312-.0156.0312-.0624.0125-.0748.0312-.0624c.0187.0094.0312-.0156.0312-.0592 0-.0406.0218-.0967.0467-.1248.025-.0249.0468-.0749.0468-.1092 0-.0374.0156-.0655.0312-.0655.0188 0 .0312-.0374.0312-.0811 0-.0436.0125-.0717.0312-.0592.0187.0124.0312-.0156.0312-.0624 0-.0437.0125-.0749.0281-.0655.0156.0093.0343-.0374.0468-.1061.0093-.0686.0343-.1247.0499-.1247.0187 0 .0312-.0375.0312-.0811 0-.0437.0124-.0718.0312-.0593.0187.0125.0311-.0218.0311-.078 0-.0561.0125-.0904.0312-.078.0188.0125.0312-.0218.0312-.0779 0-.0531.0125-.0905.0281-.0811.0156.0093.0343-.0375.0468-.1061.0093-.0686.0343-.1247.0499-.1247.0187 0 .0312-.0437.0312-.0967 0-.0531.0125-.0874.0312-.0749s.0312-.0218.0312-.0842c0-.078.0093-.0905.0312-.0562.0101.0159.0175.0218.0226.0158.0016-.0044.0033-.0088.005-.0132.0024-.012.0036-.0313.0036-.0587 0-.053.0124-.0998.028-.0998.0187 0 .0406-.0624.0531-.1404.0093-.078.0311-.131.0467-.1216.0156.0093.0281-.0281.0281-.078 0-.053.0156-.0967.0312-.0967.0187 0 .0312-.0437.0312-.0967s.0125-.0873.0312-.0749c.0187.0125.0312-.0187.0312-.0748 0-.0499.0156-.0967.0343-.1029.0156-.0063.0405-.0687.0499-.1435.0094-.0718.0281-.1217.0437-.1123.0156.0093.028-.0343.028-.0967 0-.0686.0125-.1061.0312-.0936s.0312-.0249.0312-.0904c0-.0624.0156-.1123.0312-.1123.0187 0 .0312-.0406.0312-.0905s.0156-.0967.0343-.1029c.0187-.0063.0406-.078.0499-.1591.0094-.0811.0312-.1466.0437-.1466.0156 0 .0281-.0437.0281-.0967s.0124-.0873.0311-.0748c.0188.0124.0313-.0344.0313-.1155 0-.0842.0093-.1185.028-.0935.0156.028.0312-.025.0437-.1404.0093-.0998.0343-.184.053-.1903.0156-.0062.0312-.0686.0312-.1341 0-.0748.0125-.1185.0312-.106.0187.0124.0312-.0343.0312-.1154 0-.0967.0093-.1217.0312-.0874.0039.0062.0074.0102.0106.0121.0066-.025.0133-.05.0199-.075.0004-.0136.0007-.0289.0007-.0462 0-.0967.0093-.1404.028-.1155.0041.0074.0084.0083.0128.0031.0081-.0313.0162-.0627.0243-.0941.0035-.0246.0068-.0536.0097-.0868.0125-.1216.0343-.2214.0531-.2214.0155 0 .028-.0562.028-.1248s.0156-.1247.0312-.1247c.0187 0 .0312-.0562.0312-.1279 0-.0749.0125-.1186.0312-.1061.0027.0018.0052.0023.0076.0016.0078-.0338.0155-.0676.0232-.1015.0003-.0079.0004-.0162.0004-.0248 0-.078.0125-.1373.0281-.1279.002.0012.0041.0003.0063-.0024.0113-.0507.0224-.1015.0335-.1523.0037-.0299.0071-.0629.0101-.098.0156-.1746.0312-.2526.0499-.2246.0024.0037.0047.006.0068.0071.0069-.0334.0138-.0669.0206-.1003.0004-.0151.0007-.0319.0007-.0502 0-.131.0093-.1747.0311-.1404.0018.0028.0035.0051.0051.0068.0088-.0444.0175-.089.0261-.1335 0-.0024 0-.0049 0-.0074 0-.1123.0125-.1747.0312-.1622.0004.0002.0007.0004.0011.0006.0102-.0541.0202-.1082.0301-.1624.0005-.0931.0126-.1614.0278-.1534.0203-.114.04-.2282.0592-.3425.0041-.0603.0066-.1218.0066-.1783 0-.0717.0125-.1122.0312-.0998.0026.0018.0051.002.0074.0008.008-.0501.0158-.1002.0235-.1503.0002-.0091.0003-.0185.0003-.0283 0-.1292.0083-.1782.0275-.1549.0121-.0815.0239-.163.0354-.2447.0022-.103.011-.1628.0237-.1713.049-.3612.0923-.7241.1297-1.0888.0074-.1052.0159-.1897.0235-.2376.0149-.1561.0287-.3124.0414-.4691.0016-.1252.007-.1959.0169-.2159.0625-.8361.0944-1.6808.0944-2.5328 0-6.139-1.6527-11.8926-4.5382-16.8418-.0148.0159-.0312.0339-.0496.0543-.0967.1091-.2339.2245-.3181.2651-.1373.0655-.1903.0748-.5864.0717-.4648 0-.5646-.0156-1.4785-.2495-.7985-.2059-1.1666-.2651-1.6251-.2651-.3712 0-.4492.0093-.6519.0779-.3587.1217-.5833.3369-.7236.6956-.0624.1622-.0718.2371-.0718.68-.0031.3681.0125.5739.0562.7798.0717.3587.2464.9763.3088 1.0948.0811.1591.3056.3525.4897.4211.2183.0842.6987.0904.9981.0156.4554-.1154 1.0137-.3899 1.2664-.6176.1902-.1747.3212-.2215.5583-.1934.6831.0842 1.4504.5084 2.1241 1.1822.3712.3711.5615.6082.7985.995.2309.3836.2808.5427.2683.8765-.0094.2464-.0218.3056-.1123.4803-.2433.4679-.6082.8141-1.6875 1.5939-1.7904 1.2944-2.5171 1.99-3.0942 2.9569-.2869.4835-.4335.6831-.6581.8984-.2277.2183-.3712.3119-.6332.421-.1622.0655-.237.0749-.5614.0749-.4866 0-.7018-.0655-1.3569-.4055-.237-.1248-.8421-.5458-1.1665-.811-.1529-.1247-.995-.8359-1.1416-.9607-.0437-.0374-.1466-.1247-.234-.1933-.6363-.5022-1.3256-1.2259-1.8902-1.9807-.5614-.7548-.6456-.8765-1.3693-1.9651-.4835-.7236-.7735-1.1478-1.1385-1.6531-.0326-.0446-.1304-.1881-.2258-.3283l-.0144-.0211c-.3992-.602-.6394-.8328-.8608-.8359-.209 0-.5147.2339-.5708.446-.0624.2371.0655.8017.3462 1.5003.2807.705.4679 1.1073 1.1478 2.4517.3151.627.5864 1.151.5989 1.1697.0125.0156.1185.2121.2339.4367.0545.1045.1167.2224.1737.3304.0637.1207.1209.2292.1539.2934.3555.6644.7735 1.4847.8889 1.7467.3026.6862.4398.8391 1.0512 1.1822.5084.2838 1.5034.5458 2.5046.6581.7206.0811 1.0824.1809 1.5347.4273.6955.3806 1.0386.9015 1.0449 1.5846 0 .2776-.053.4647-.2184.7766-.106.2028-.446.7081-.5583.8297-.0312.0343-.1247.1466-.209.2496-.0842.1029-.4491.4866-.811.8515-.5458.5521-.8671.8609-1.7529 1.675-.0077.0064-.0344.0308-.0732.0661-.0554.0506-.1355.1237-.22.199-.0844.0753-.1645.1483-.22.1989-.0388.0354-.0655.0598-.0732.0662-.0073.0074-.0525.0487-.1228.1131-.1093.1-.2795.2558-.4636.4265-.8047.7393-1.0044.9763-1.1042 1.3163-.0593.2028-.0686 1.1759-.0125 1.6002.0187.1403.0468.368.0624.5053.0312.262.1404 1.0293.1872 1.3256.1996 1.2445.2807 1.8652.2807 2.1772 0 .3774-.0468.5021-.3369.8858-.2402.315-.4367.5147-1.0667 1.0948-.6956.6363-1.4567 1.3974-1.5846 1.5877-.1965.2869-.2526.4367-.2869.761-.0437.3868-.156.8297-.2807 1.1198-.0156.0343-.0718.1685-.1248.2963-.0998.2309-.4336.9108-.5521 1.1229-.5958 1.0481-1.8029 2.826-2.5515 3.7586-.7642.9482-1.2601 1.3257-2.0461 1.5534-.6675.1933-.942.2214-2.1491.2245h-1.0449l-.1841-.0935c-.3805-.1934-.6238-.6176-.7985-1.3912-.0936-.4211-.1154-.5209-.1528-.7143-.006-.0278-.014-.0652-.0235-.1091-.0444-.207-.1205-.561-.1668-.7642-.0073-.0279-.0202-.0799-.0356-.1425-.0174-.0704-.0381-.1542-.058-.2318-.0686-.2714-.1965-.7985-.3119-1.2945-.2713-1.1509-.4834-1.8777-.7486-2.539-.2589-.655-.5146-1.0886-.8889-1.5159-.4554-.5178-.5771-.7766-.7393-1.5596-.0499-.2495-.0499-1.5564 0-1.965l.0034-.0258c.0378-.2877.0493-.3753.1432-.9723.0143-.0904.0244-.1552.0353-.2198.0298-.1764.0648-.3519.2018-1.0435.1684-.8547.2121-1.1697.2152-1.5627 0-.4741-.0967-1.1104-.2526-1.6812-.1154-.4055-.4242-1.3069-.5459-1.5846-.0281-.0623-.0624-.1434-.0748-.1777-.025-.0624-.4679-1.1261-.5521-1.3257-.1872-.4398-.4336-.8827-.6114-1.0917-.3462-.4117-.864-.7392-1.3818-.8702-.7642-.1965-1.5845-.1685-2.9133.0935-.0779.0156-.2807.0406-.4522.0593-.2261.0201-.4441.0443-1.0076.1067-.1362.015-.2925.0324-.474.0524-1.9152.2121-3.6307.2932-4.5602.2183-.9264-.0748-1.0855-.1372-1.8965-.7299-.9513-.6986-1.335-1.3474-1.572-2.6575-.0998-.5489-.1279-1.0075-.1279-2.0586 0-1.1572.0436-1.7904.1747-2.5577.1216-.7081.3711-1.6345.5988-2.2458.0183-.0446.0483-.1286.08-.2171.0171-.0478.0346-.0968.051-.1416.015-.041.03-.0827.044-.1215.0296-.0822.0546-.1515.0652-.1748.0281-.0655.4304-1.1292.5303-1.4036.1029-.2745.2713-.7705.3867-1.1261.4523-1.4067 1.1105-2.1927 2.5765-3.0754.1278-.078.5708-.3276.9825-.5552.4117-.2277.8078-.4554.8796-.5053.0717-.0468.1372-.0874.1497-.0874.0343 0 .3587-.2152.9669-.6394.68-.4741 1.0075-.655 1.4567-.8048.8297-.2776 1.544-.3088 2.723-.1185.2183.0343 1.1291.209 1.3101.2527.1278.028.3462.0686.6893.1247.1029.0188.4959.0531.8733.078.3775.025.7674.0655.8641.0905.2994.0779.6082.262.8515.5022.2807.2744.4023.4647.7891 1.2258.5272 1.0293.6675 1.1541 1.4691 1.3007.7424.1372.9826.1185 1.6563-.1154l.4804-.1654.421.0032c.2527.0031.6052.0312.889.0717 1.2102.1809 1.6438.2215 2.3144.2215 1.5378 0 2.7137-.418 3.7399-1.3319.577-.5147 1.1821-1.282 1.4098-1.7873.1716-.3805.209-.5458.2059-.9513-.0031-.3275-.0125-.4024-.0873-.6051-.2153-.5709-.4897-.9389-1.5378-2.0306-.8047-.8391-.9544-.9981-1.1478-1.2321-.2932-.3524-.3431-.4055-.6083-.6737-.3306-.3338-.4741-.4149-.7486-.418-.2682 0-.3493.0437-.8172.4429-.6644.5677-.9388.7237-1.5408.8796-.1903.0499-.9545.0437-1.229-.0124-.5926-.1186-1.0075-.2558-1.7155-.5677-.9108-.4055-1.1447-.4991-1.7467-.6956-.7923-.2589-1.0512-.3119-1.5409-.3119-.8047 0-1.126.2214-1.9619 1.3412-.9607 1.2913-1.4505 1.7561-2.2739 2.1709-1.0293.5178-2.252.8079-3.7243.8859-.8733.0468-1.9432-.0156-2.4766-.1404-.0309-.0088-.0886-.0224-.1473-.0362-.0241-.0056-.0483-.0114-.071-.0168-.2496-.0593-.6051-.184-.786-.2807-.7174-.3806-.8017-1.1853-.2433-2.3331.1902-.3931.4647-.7767.8265-1.1479.5646-.5864 1.098-.8796 1.5939-.8796.1529 0 .4991-.0593.6894-.1185.2464-.078.5021-.2464.761-.5053.2277-.2246.2901-.3119.4118-.5615.2277-.471.2744
-.6799.2932-1.2788.0124-.4429.0031-.5646-.0562-.8734-.156-.811-.0936-1.5564.2246-2.6669.0022-.0076.0052-.0177.0088-.0297.0211-.0716.063-.2138.1004-.3446.1684-.5864.4772-1.4753.8078-2.3393.0436-.1118.0851-.2195.1183-.3059z"
            fill="#0069ca" fill-rule="evenodd" />
    </symbol>
    <symbol id="typematch" style="fill: var(--icon-color, currentColor);" viewBox="0 0 24 24">
        <path d="M0 0h24v24H0V0z" fill="black" />
        <path d="M5 4v3h5.5v12h3V7H19V4H5z" />
    </symbol>
    <symbol id="hackillinois" style="fill: var(--icon-color, #111130);" viewBox="0 0 40 56">
        <path
            d="M11.7268 22.6555H27.9698V12.5552H38.7016V0.353271H8.055L0.849609 12.5552H11.7268V22.6555Z"
        />
        <path
            d="M27.9698 33.3134H11.7268V43.4137H0.849609V55.6156H31.7797L38.7016 43.4137H27.9698V33.3134Z"
        />
    </symbol>
    <symbol id="viget" viewBox="0 0 29 27">
        <circle cx="10" cy="17" r="10" fill="#1395ba"></circle>
        <circle cx="23.5" cy="6.5" r="5.5" fill="#f16c20"></circle>
    </symbol>
    <symbol id="verkada" viewBox="0 0 30 21">
        <path
            d="M8.97171216 14.8913151 23.6248139.241191067c.3156328-.3156327543.824813899999999-.3156327543 1.1404466.0L29.5444169 5.01736973c.315632699999998.31563275.315632699999998.82779156.0 1.14044665L15.4630273 20.2362283C15.1473945 20.551861 14.6352357 20.551861 14.319603 20.2362283L8.97171216 14.8913151"
            id="symbol-1" fill="#fff"></path>
        <path
            d="M.241191067 6.16079404c-.3156327543-.31563275-.3156327543-.82779156.0-1.14044665L5.02034739.244168734c.31563276-.3156327539.82779157-.3156327539 1.14342432.0L13.5722084 7.64962779 7.64962779 13.5662531.241191067 6.16079404"
            fill="#fff"></path>
    </symbol>
    <symbol id="pencil" style="fill: var(--icon-color, currentColor);" viewBox="0 -960 960 960">
        <path
            d="M794-666 666-794l42-42q17-17 42.5-16.5T793-835l43 43q17 17 17 42t-17 42l-42 42Zm-42 42L248-120H120v-128l504-504 128 128Z" />
    </symbol>
    <symbol id="trophy" style="fill: var(--icon-color, currentColor);" viewBox="0 0 24 24">
        <path fill-rule="evenodd"
            d="M5.166 2.621v.858c-1.035.148-2.059.33-3.071.543a.75.75 0 00-.584.859 6.753 6.753 0 006.138 5.6 6.73 6.73 0 002.743 1.346A6.707 6.707 0 019.279 15H8.54c-1.036 0-1.875.84-1.875 1.875V19.5h-.75a2.25 2.25 0 00-2.25 2.25c0 .414.336.75.75.75h15a.75.75 0 00.75-.75 2.25 2.25 0 00-2.25-2.25h-.75v-2.625c0-1.036-.84-1.875-1.875-1.875h-.739a6.706 6.706 0 01-1.112-3.173 6.73 6.73 0 002.743-1.347 6.753 6.753 0 006.139-5.6.75.75 0 00-.585-.858 47.077 47.077 0 00-3.07-.543V2.62a.75.75 0 00-.658-.744 49.22 49.22 0 00-6.093-.377c-2.063 0-4.096.128-6.093.377a.75.75 0 00-.657.744zm0 2.629c0 1.196.312 2.32.857 3.294A5.266 5.266 0 013.16 5.337a45.6 45.6 0 012.006-.343v.256zm13.5 0v-.256c.674.1 1.343.214 2.006.343a5.265 5.265 0 01-2.863 3.207 6.72 6.72 0 00.857-3.294z"
            clip-rule="evenodd" />
    </symbol>
    <symbol id="folder" style="fill: var(--icon-color, currentColor);" viewBox="0 0 24 24">
        <path
            d="M19.5 21a3 3 0 003-3v-4.5a3 3 0 00-3-3h-15a3 3 0 00-3 3V18a3 3 0 003 3h15zM1.5 10.146V6a3 3 0 013-3h5.379a2.25 2.25 0 011.59.659l2.122 2.121c.14.141.331.22.53.22H19.5a3 3 0 013 3v1.146A4.483 4.483 0 0019.5 9h-15a4.483 4.483 0 00-3 1.146z" />
    </symbol>
    <symbol id="clock" style="fill: var(--icon-color, currentColor);" viewBox="0 0 24 24">
        <path fill-rule="evenodd"
            d="M12 2.25c-5.385 0-9.75 4.365-9.75 9.75s4.365 9.75 9.75 9.75 9.75-4.365 9.75-9.75S17.385 2.25 12 2.25zM12.75 6a.75.75 0 00-1.5 0v6c0 .414.336.75.75.75h4.5a.75.75 0 000-1.5h-3.75V6z"
            clip-rule="evenodd" />
    </symbol>
    <symbol id="search" style="fill: var(--icon-color, currentColor);" viewBox="0 0 24 24">
        <path d="M8.25 10.875a2.625 2.625 0 115.25 0 2.625 2.625 0 01-5.25 0z" />
        <path fill-rule="evenodd"
            d="M12 2.25c-5.385 0-9.75 4.365-9.75 9.75s4.365 9.75 9.75 9.75 9.75-4.365 9.75-9.75S17.385 2.25 12 2.25zm-1.125 4.5a4.125 4.125 0 102.338 7.524l2.007 2.006a.75.75 0 101.06-1.06l-2.006-2.007a4.125 4.125 0 00-3.399-6.463z"
            clip-rule="evenodd" />
    </symbol>
    <symbol id="jump" fill="none" viewBox="20 10 65 40">
        <path
            d="M64.693 17.56a16.318 16.318 0 0 0-20.542-1.973 16.216 16.216 0 0 0-6.514 8.78 16.156 16.156 0 0 0 .552 10.904 16.233 16.233 0 0 0 7.368 8.082A16.325 16.325 0 0 0 56.4 44.947a16.282 16.282 0 0 0 9.397-5.617 16.174 16.174 0 0 0 3.69-10.28 16.28 16.28 0 0 0-4.793-11.49ZM63.2 39.032a14.303 14.303 0 0 1-10.065 4.136c-3.771 0-7.39-1.487-10.064-4.136a14.162 14.162 0 0 1-3.893-7.26 14.13 14.13 0 0 1 .81-8.19 14.19 14.19 0 0 1 5.242-6.362 14.268 14.268 0 0 1 15.81 0 14.19 14.19 0 0 1 5.242 6.362c1.077 2.59 1.36 5.44.81 8.19a14.162 14.162 0 0 1-3.892 7.26Z"
            fill="#080808" />
        <path
            d="M51.353 40.376a10.623 10.623 0 0 1-4.818-2.048 12.974 12.974 0 0 1-4.062-5.728 16.738 16.738 0 0 1-.701-2.346c-.065-.292-.11-.53-.135-.689 0-.08-.025-.144-.03-.183v-.055l-1.274.149c.296 2 .943 3.931 1.911 5.708a13.36 13.36 0 0 0 3.485 4.175 12.081 12.081 0 0 0 6.177 2.405l.706.075v-24.85h-1.279l.02 23.387ZM65.22 29.689v-1.28H55.006V17.005h-1.284v24.825l.701-.065a12.974 12.974 0 0 0 4.704-1.611 13.55 13.55 0 0 0 3.783-3.135 15.045 15.045 0 0 0 2.922-5.663l-1.235-.347a13.866 13.866 0 0 1-2.667 5.167 12.597 12.597 0 0 1-6.924 4.17V29.69H65.22Z"
            fill="#080808" />
        <path
            d="M80.914 29.63h-1.946a25.633 25.633 0 0 1-5.825 16.313 25.806 25.806 0 0 1-14.891 8.927 25.873 25.873 0 0 1-17.195-2.514 25.727 25.727 0 0 1-11.69-12.813 25.603 25.603 0 0 1-.874-17.293A25.7 25.7 0 0 1 38.831 8.33 25.862 25.862 0 0 1 71.402 11.5a25.49 25.49 0 0 1 5.605 8.31 25.413 25.413 0 0 1 1.96 9.82h3.888a29.502 29.502 0 0 0-6.702-18.776A29.7 29.7 0 0 0 59.015.578a29.778 29.778 0 0 0-19.79 2.892A29.61 29.61 0 0 0 25.77 18.216a29.467 29.467 0 0 0-1.009 19.902 29.579 29.579 0 0 0 11.896 16.02 29.766 29.766 0 0 0 37.488-3.641 29.378 29.378 0 0 0 6.45-9.566 29.288 29.288 0 0 0 2.26-11.301h-1.94Z"
            fill="#EE322F" />
    </symbol>
</svg>
